%TF.GenerationSoftware,KiCad,Pcbnew,8.0.1*%
%TF.CreationDate,2025-05-19T10:21:45+02:00*%
%TF.ProjectId,stm32f103 board,73746d33-3266-4313-9033-20626f617264,rev?*%
%TF.SameCoordinates,Original*%
%TF.FileFunction,Legend,Bot*%
%TF.FilePolarity,Positive*%
%FSLAX46Y46*%
G04 Gerber Fmt 4.6, Leading zero omitted, Abs format (unit mm)*
G04 Created by KiCad (PCBNEW 8.0.1) date 2025-05-19 10:21:45*
%MOMM*%
%LPD*%
G01*
G04 APERTURE LIST*
%ADD10C,0.100000*%
%ADD11C,0.120000*%
G04 APERTURE END LIST*
D10*
X114802782Y-102748609D02*
X114659925Y-102796228D01*
X114659925Y-102796228D02*
X114612306Y-102843847D01*
X114612306Y-102843847D02*
X114564687Y-102939085D01*
X114564687Y-102939085D02*
X114564687Y-103081942D01*
X114564687Y-103081942D02*
X114612306Y-103177180D01*
X114612306Y-103177180D02*
X114659925Y-103224800D01*
X114659925Y-103224800D02*
X114755163Y-103272419D01*
X114755163Y-103272419D02*
X115136115Y-103272419D01*
X115136115Y-103272419D02*
X115136115Y-102272419D01*
X115136115Y-102272419D02*
X114802782Y-102272419D01*
X114802782Y-102272419D02*
X114707544Y-102320038D01*
X114707544Y-102320038D02*
X114659925Y-102367657D01*
X114659925Y-102367657D02*
X114612306Y-102462895D01*
X114612306Y-102462895D02*
X114612306Y-102558133D01*
X114612306Y-102558133D02*
X114659925Y-102653371D01*
X114659925Y-102653371D02*
X114707544Y-102700990D01*
X114707544Y-102700990D02*
X114802782Y-102748609D01*
X114802782Y-102748609D02*
X115136115Y-102748609D01*
X113945639Y-102272419D02*
X113755163Y-102272419D01*
X113755163Y-102272419D02*
X113659925Y-102320038D01*
X113659925Y-102320038D02*
X113564687Y-102415276D01*
X113564687Y-102415276D02*
X113517068Y-102605752D01*
X113517068Y-102605752D02*
X113517068Y-102939085D01*
X113517068Y-102939085D02*
X113564687Y-103129561D01*
X113564687Y-103129561D02*
X113659925Y-103224800D01*
X113659925Y-103224800D02*
X113755163Y-103272419D01*
X113755163Y-103272419D02*
X113945639Y-103272419D01*
X113945639Y-103272419D02*
X114040877Y-103224800D01*
X114040877Y-103224800D02*
X114136115Y-103129561D01*
X114136115Y-103129561D02*
X114183734Y-102939085D01*
X114183734Y-102939085D02*
X114183734Y-102605752D01*
X114183734Y-102605752D02*
X114136115Y-102415276D01*
X114136115Y-102415276D02*
X114040877Y-102320038D01*
X114040877Y-102320038D02*
X113945639Y-102272419D01*
X112898020Y-102272419D02*
X112707544Y-102272419D01*
X112707544Y-102272419D02*
X112612306Y-102320038D01*
X112612306Y-102320038D02*
X112517068Y-102415276D01*
X112517068Y-102415276D02*
X112469449Y-102605752D01*
X112469449Y-102605752D02*
X112469449Y-102939085D01*
X112469449Y-102939085D02*
X112517068Y-103129561D01*
X112517068Y-103129561D02*
X112612306Y-103224800D01*
X112612306Y-103224800D02*
X112707544Y-103272419D01*
X112707544Y-103272419D02*
X112898020Y-103272419D01*
X112898020Y-103272419D02*
X112993258Y-103224800D01*
X112993258Y-103224800D02*
X113088496Y-103129561D01*
X113088496Y-103129561D02*
X113136115Y-102939085D01*
X113136115Y-102939085D02*
X113136115Y-102605752D01*
X113136115Y-102605752D02*
X113088496Y-102415276D01*
X113088496Y-102415276D02*
X112993258Y-102320038D01*
X112993258Y-102320038D02*
X112898020Y-102272419D01*
X112183734Y-102272419D02*
X111612306Y-102272419D01*
X111898020Y-103272419D02*
X111898020Y-102272419D01*
X110802782Y-103272419D02*
X111278972Y-103272419D01*
X111278972Y-103272419D02*
X111278972Y-102272419D01*
X110278972Y-102272419D02*
X110088496Y-102272419D01*
X110088496Y-102272419D02*
X109993258Y-102320038D01*
X109993258Y-102320038D02*
X109898020Y-102415276D01*
X109898020Y-102415276D02*
X109850401Y-102605752D01*
X109850401Y-102605752D02*
X109850401Y-102939085D01*
X109850401Y-102939085D02*
X109898020Y-103129561D01*
X109898020Y-103129561D02*
X109993258Y-103224800D01*
X109993258Y-103224800D02*
X110088496Y-103272419D01*
X110088496Y-103272419D02*
X110278972Y-103272419D01*
X110278972Y-103272419D02*
X110374210Y-103224800D01*
X110374210Y-103224800D02*
X110469448Y-103129561D01*
X110469448Y-103129561D02*
X110517067Y-102939085D01*
X110517067Y-102939085D02*
X110517067Y-102605752D01*
X110517067Y-102605752D02*
X110469448Y-102415276D01*
X110469448Y-102415276D02*
X110374210Y-102320038D01*
X110374210Y-102320038D02*
X110278972Y-102272419D01*
X109469448Y-102986704D02*
X108993258Y-102986704D01*
X109564686Y-103272419D02*
X109231353Y-102272419D01*
X109231353Y-102272419D02*
X108898020Y-103272419D01*
X108564686Y-103272419D02*
X108564686Y-102272419D01*
X108564686Y-102272419D02*
X108326591Y-102272419D01*
X108326591Y-102272419D02*
X108183734Y-102320038D01*
X108183734Y-102320038D02*
X108088496Y-102415276D01*
X108088496Y-102415276D02*
X108040877Y-102510514D01*
X108040877Y-102510514D02*
X107993258Y-102700990D01*
X107993258Y-102700990D02*
X107993258Y-102843847D01*
X107993258Y-102843847D02*
X108040877Y-103034323D01*
X108040877Y-103034323D02*
X108088496Y-103129561D01*
X108088496Y-103129561D02*
X108183734Y-103224800D01*
X108183734Y-103224800D02*
X108326591Y-103272419D01*
X108326591Y-103272419D02*
X108564686Y-103272419D01*
X107564686Y-102748609D02*
X107231353Y-102748609D01*
X107088496Y-103272419D02*
X107564686Y-103272419D01*
X107564686Y-103272419D02*
X107564686Y-102272419D01*
X107564686Y-102272419D02*
X107088496Y-102272419D01*
X106088496Y-103272419D02*
X106421829Y-102796228D01*
X106659924Y-103272419D02*
X106659924Y-102272419D01*
X106659924Y-102272419D02*
X106278972Y-102272419D01*
X106278972Y-102272419D02*
X106183734Y-102320038D01*
X106183734Y-102320038D02*
X106136115Y-102367657D01*
X106136115Y-102367657D02*
X106088496Y-102462895D01*
X106088496Y-102462895D02*
X106088496Y-102605752D01*
X106088496Y-102605752D02*
X106136115Y-102700990D01*
X106136115Y-102700990D02*
X106183734Y-102748609D01*
X106183734Y-102748609D02*
X106278972Y-102796228D01*
X106278972Y-102796228D02*
X106659924Y-102796228D01*
X133196115Y-93122419D02*
X133196115Y-92122419D01*
X133196115Y-92122419D02*
X132624687Y-93122419D01*
X132624687Y-93122419D02*
X132624687Y-92122419D01*
X132148496Y-93122419D02*
X132148496Y-92122419D01*
X132148496Y-92122419D02*
X131815163Y-92836704D01*
X131815163Y-92836704D02*
X131481830Y-92122419D01*
X131481830Y-92122419D02*
X131481830Y-93122419D01*
X131005639Y-92598609D02*
X130672306Y-92598609D01*
X130529449Y-93122419D02*
X131005639Y-93122419D01*
X131005639Y-93122419D02*
X131005639Y-92122419D01*
X131005639Y-92122419D02*
X130529449Y-92122419D01*
X130148496Y-92836704D02*
X129672306Y-92836704D01*
X130243734Y-93122419D02*
X129910401Y-92122419D01*
X129910401Y-92122419D02*
X129577068Y-93122419D01*
X129291353Y-92217657D02*
X129243734Y-92170038D01*
X129243734Y-92170038D02*
X129148496Y-92122419D01*
X129148496Y-92122419D02*
X128910401Y-92122419D01*
X128910401Y-92122419D02*
X128815163Y-92170038D01*
X128815163Y-92170038D02*
X128767544Y-92217657D01*
X128767544Y-92217657D02*
X128719925Y-92312895D01*
X128719925Y-92312895D02*
X128719925Y-92408133D01*
X128719925Y-92408133D02*
X128767544Y-92550990D01*
X128767544Y-92550990D02*
X129338972Y-93122419D01*
X129338972Y-93122419D02*
X128719925Y-93122419D01*
X128100877Y-92122419D02*
X128005639Y-92122419D01*
X128005639Y-92122419D02*
X127910401Y-92170038D01*
X127910401Y-92170038D02*
X127862782Y-92217657D01*
X127862782Y-92217657D02*
X127815163Y-92312895D01*
X127815163Y-92312895D02*
X127767544Y-92503371D01*
X127767544Y-92503371D02*
X127767544Y-92741466D01*
X127767544Y-92741466D02*
X127815163Y-92931942D01*
X127815163Y-92931942D02*
X127862782Y-93027180D01*
X127862782Y-93027180D02*
X127910401Y-93074800D01*
X127910401Y-93074800D02*
X128005639Y-93122419D01*
X128005639Y-93122419D02*
X128100877Y-93122419D01*
X128100877Y-93122419D02*
X128196115Y-93074800D01*
X128196115Y-93074800D02*
X128243734Y-93027180D01*
X128243734Y-93027180D02*
X128291353Y-92931942D01*
X128291353Y-92931942D02*
X128338972Y-92741466D01*
X128338972Y-92741466D02*
X128338972Y-92503371D01*
X128338972Y-92503371D02*
X128291353Y-92312895D01*
X128291353Y-92312895D02*
X128243734Y-92217657D01*
X128243734Y-92217657D02*
X128196115Y-92170038D01*
X128196115Y-92170038D02*
X128100877Y-92122419D01*
X127148496Y-92122419D02*
X127053258Y-92122419D01*
X127053258Y-92122419D02*
X126958020Y-92170038D01*
X126958020Y-92170038D02*
X126910401Y-92217657D01*
X126910401Y-92217657D02*
X126862782Y-92312895D01*
X126862782Y-92312895D02*
X126815163Y-92503371D01*
X126815163Y-92503371D02*
X126815163Y-92741466D01*
X126815163Y-92741466D02*
X126862782Y-92931942D01*
X126862782Y-92931942D02*
X126910401Y-93027180D01*
X126910401Y-93027180D02*
X126958020Y-93074800D01*
X126958020Y-93074800D02*
X127053258Y-93122419D01*
X127053258Y-93122419D02*
X127148496Y-93122419D01*
X127148496Y-93122419D02*
X127243734Y-93074800D01*
X127243734Y-93074800D02*
X127291353Y-93027180D01*
X127291353Y-93027180D02*
X127338972Y-92931942D01*
X127338972Y-92931942D02*
X127386591Y-92741466D01*
X127386591Y-92741466D02*
X127386591Y-92503371D01*
X127386591Y-92503371D02*
X127338972Y-92312895D01*
X127338972Y-92312895D02*
X127291353Y-92217657D01*
X127291353Y-92217657D02*
X127243734Y-92170038D01*
X127243734Y-92170038D02*
X127148496Y-92122419D01*
X126196115Y-92122419D02*
X126100877Y-92122419D01*
X126100877Y-92122419D02*
X126005639Y-92170038D01*
X126005639Y-92170038D02*
X125958020Y-92217657D01*
X125958020Y-92217657D02*
X125910401Y-92312895D01*
X125910401Y-92312895D02*
X125862782Y-92503371D01*
X125862782Y-92503371D02*
X125862782Y-92741466D01*
X125862782Y-92741466D02*
X125910401Y-92931942D01*
X125910401Y-92931942D02*
X125958020Y-93027180D01*
X125958020Y-93027180D02*
X126005639Y-93074800D01*
X126005639Y-93074800D02*
X126100877Y-93122419D01*
X126100877Y-93122419D02*
X126196115Y-93122419D01*
X126196115Y-93122419D02*
X126291353Y-93074800D01*
X126291353Y-93074800D02*
X126338972Y-93027180D01*
X126338972Y-93027180D02*
X126386591Y-92931942D01*
X126386591Y-92931942D02*
X126434210Y-92741466D01*
X126434210Y-92741466D02*
X126434210Y-92503371D01*
X126434210Y-92503371D02*
X126386591Y-92312895D01*
X126386591Y-92312895D02*
X126338972Y-92217657D01*
X126338972Y-92217657D02*
X126291353Y-92170038D01*
X126291353Y-92170038D02*
X126196115Y-92122419D01*
X100891353Y-122772419D02*
X100272306Y-122772419D01*
X100272306Y-122772419D02*
X100605639Y-123153371D01*
X100605639Y-123153371D02*
X100462782Y-123153371D01*
X100462782Y-123153371D02*
X100367544Y-123200990D01*
X100367544Y-123200990D02*
X100319925Y-123248609D01*
X100319925Y-123248609D02*
X100272306Y-123343847D01*
X100272306Y-123343847D02*
X100272306Y-123581942D01*
X100272306Y-123581942D02*
X100319925Y-123677180D01*
X100319925Y-123677180D02*
X100367544Y-123724800D01*
X100367544Y-123724800D02*
X100462782Y-123772419D01*
X100462782Y-123772419D02*
X100748496Y-123772419D01*
X100748496Y-123772419D02*
X100843734Y-123724800D01*
X100843734Y-123724800D02*
X100891353Y-123677180D01*
X99843734Y-123677180D02*
X99796115Y-123724800D01*
X99796115Y-123724800D02*
X99843734Y-123772419D01*
X99843734Y-123772419D02*
X99891353Y-123724800D01*
X99891353Y-123724800D02*
X99843734Y-123677180D01*
X99843734Y-123677180D02*
X99843734Y-123772419D01*
X99462782Y-122772419D02*
X98843735Y-122772419D01*
X98843735Y-122772419D02*
X99177068Y-123153371D01*
X99177068Y-123153371D02*
X99034211Y-123153371D01*
X99034211Y-123153371D02*
X98938973Y-123200990D01*
X98938973Y-123200990D02*
X98891354Y-123248609D01*
X98891354Y-123248609D02*
X98843735Y-123343847D01*
X98843735Y-123343847D02*
X98843735Y-123581942D01*
X98843735Y-123581942D02*
X98891354Y-123677180D01*
X98891354Y-123677180D02*
X98938973Y-123724800D01*
X98938973Y-123724800D02*
X99034211Y-123772419D01*
X99034211Y-123772419D02*
X99319925Y-123772419D01*
X99319925Y-123772419D02*
X99415163Y-123724800D01*
X99415163Y-123724800D02*
X99462782Y-123677180D01*
X98558020Y-122772419D02*
X98224687Y-123772419D01*
X98224687Y-123772419D02*
X97891354Y-122772419D01*
X125191353Y-122772419D02*
X124572306Y-122772419D01*
X124572306Y-122772419D02*
X124905639Y-123153371D01*
X124905639Y-123153371D02*
X124762782Y-123153371D01*
X124762782Y-123153371D02*
X124667544Y-123200990D01*
X124667544Y-123200990D02*
X124619925Y-123248609D01*
X124619925Y-123248609D02*
X124572306Y-123343847D01*
X124572306Y-123343847D02*
X124572306Y-123581942D01*
X124572306Y-123581942D02*
X124619925Y-123677180D01*
X124619925Y-123677180D02*
X124667544Y-123724800D01*
X124667544Y-123724800D02*
X124762782Y-123772419D01*
X124762782Y-123772419D02*
X125048496Y-123772419D01*
X125048496Y-123772419D02*
X125143734Y-123724800D01*
X125143734Y-123724800D02*
X125191353Y-123677180D01*
X124143734Y-123677180D02*
X124096115Y-123724800D01*
X124096115Y-123724800D02*
X124143734Y-123772419D01*
X124143734Y-123772419D02*
X124191353Y-123724800D01*
X124191353Y-123724800D02*
X124143734Y-123677180D01*
X124143734Y-123677180D02*
X124143734Y-123772419D01*
X123762782Y-122772419D02*
X123143735Y-122772419D01*
X123143735Y-122772419D02*
X123477068Y-123153371D01*
X123477068Y-123153371D02*
X123334211Y-123153371D01*
X123334211Y-123153371D02*
X123238973Y-123200990D01*
X123238973Y-123200990D02*
X123191354Y-123248609D01*
X123191354Y-123248609D02*
X123143735Y-123343847D01*
X123143735Y-123343847D02*
X123143735Y-123581942D01*
X123143735Y-123581942D02*
X123191354Y-123677180D01*
X123191354Y-123677180D02*
X123238973Y-123724800D01*
X123238973Y-123724800D02*
X123334211Y-123772419D01*
X123334211Y-123772419D02*
X123619925Y-123772419D01*
X123619925Y-123772419D02*
X123715163Y-123724800D01*
X123715163Y-123724800D02*
X123762782Y-123677180D01*
X122858020Y-122772419D02*
X122524687Y-123772419D01*
X122524687Y-123772419D02*
X122191354Y-122772419D01*
X95896115Y-123772419D02*
X95896115Y-122772419D01*
X95896115Y-122772419D02*
X95515163Y-122772419D01*
X95515163Y-122772419D02*
X95419925Y-122820038D01*
X95419925Y-122820038D02*
X95372306Y-122867657D01*
X95372306Y-122867657D02*
X95324687Y-122962895D01*
X95324687Y-122962895D02*
X95324687Y-123105752D01*
X95324687Y-123105752D02*
X95372306Y-123200990D01*
X95372306Y-123200990D02*
X95419925Y-123248609D01*
X95419925Y-123248609D02*
X95515163Y-123296228D01*
X95515163Y-123296228D02*
X95896115Y-123296228D01*
X94705639Y-122772419D02*
X94515163Y-122772419D01*
X94515163Y-122772419D02*
X94419925Y-122820038D01*
X94419925Y-122820038D02*
X94324687Y-122915276D01*
X94324687Y-122915276D02*
X94277068Y-123105752D01*
X94277068Y-123105752D02*
X94277068Y-123439085D01*
X94277068Y-123439085D02*
X94324687Y-123629561D01*
X94324687Y-123629561D02*
X94419925Y-123724800D01*
X94419925Y-123724800D02*
X94515163Y-123772419D01*
X94515163Y-123772419D02*
X94705639Y-123772419D01*
X94705639Y-123772419D02*
X94800877Y-123724800D01*
X94800877Y-123724800D02*
X94896115Y-123629561D01*
X94896115Y-123629561D02*
X94943734Y-123439085D01*
X94943734Y-123439085D02*
X94943734Y-123105752D01*
X94943734Y-123105752D02*
X94896115Y-122915276D01*
X94896115Y-122915276D02*
X94800877Y-122820038D01*
X94800877Y-122820038D02*
X94705639Y-122772419D01*
X93991353Y-122772419D02*
X93419925Y-122772419D01*
X93705639Y-123772419D02*
X93705639Y-122772419D01*
X129996115Y-123772419D02*
X129996115Y-122772419D01*
X129996115Y-122772419D02*
X129615163Y-122772419D01*
X129615163Y-122772419D02*
X129519925Y-122820038D01*
X129519925Y-122820038D02*
X129472306Y-122867657D01*
X129472306Y-122867657D02*
X129424687Y-122962895D01*
X129424687Y-122962895D02*
X129424687Y-123105752D01*
X129424687Y-123105752D02*
X129472306Y-123200990D01*
X129472306Y-123200990D02*
X129519925Y-123248609D01*
X129519925Y-123248609D02*
X129615163Y-123296228D01*
X129615163Y-123296228D02*
X129996115Y-123296228D01*
X128805639Y-122772419D02*
X128615163Y-122772419D01*
X128615163Y-122772419D02*
X128519925Y-122820038D01*
X128519925Y-122820038D02*
X128424687Y-122915276D01*
X128424687Y-122915276D02*
X128377068Y-123105752D01*
X128377068Y-123105752D02*
X128377068Y-123439085D01*
X128377068Y-123439085D02*
X128424687Y-123629561D01*
X128424687Y-123629561D02*
X128519925Y-123724800D01*
X128519925Y-123724800D02*
X128615163Y-123772419D01*
X128615163Y-123772419D02*
X128805639Y-123772419D01*
X128805639Y-123772419D02*
X128900877Y-123724800D01*
X128900877Y-123724800D02*
X128996115Y-123629561D01*
X128996115Y-123629561D02*
X129043734Y-123439085D01*
X129043734Y-123439085D02*
X129043734Y-123105752D01*
X129043734Y-123105752D02*
X128996115Y-122915276D01*
X128996115Y-122915276D02*
X128900877Y-122820038D01*
X128900877Y-122820038D02*
X128805639Y-122772419D01*
X128091353Y-122772419D02*
X127519925Y-122772419D01*
X127805639Y-123772419D02*
X127805639Y-122772419D01*
X86672306Y-124720038D02*
X86767544Y-124672419D01*
X86767544Y-124672419D02*
X86910401Y-124672419D01*
X86910401Y-124672419D02*
X87053258Y-124720038D01*
X87053258Y-124720038D02*
X87148496Y-124815276D01*
X87148496Y-124815276D02*
X87196115Y-124910514D01*
X87196115Y-124910514D02*
X87243734Y-125100990D01*
X87243734Y-125100990D02*
X87243734Y-125243847D01*
X87243734Y-125243847D02*
X87196115Y-125434323D01*
X87196115Y-125434323D02*
X87148496Y-125529561D01*
X87148496Y-125529561D02*
X87053258Y-125624800D01*
X87053258Y-125624800D02*
X86910401Y-125672419D01*
X86910401Y-125672419D02*
X86815163Y-125672419D01*
X86815163Y-125672419D02*
X86672306Y-125624800D01*
X86672306Y-125624800D02*
X86624687Y-125577180D01*
X86624687Y-125577180D02*
X86624687Y-125243847D01*
X86624687Y-125243847D02*
X86815163Y-125243847D01*
X86196115Y-125672419D02*
X86196115Y-124672419D01*
X86196115Y-124672419D02*
X85624687Y-125672419D01*
X85624687Y-125672419D02*
X85624687Y-124672419D01*
X85148496Y-125672419D02*
X85148496Y-124672419D01*
X85148496Y-124672419D02*
X84910401Y-124672419D01*
X84910401Y-124672419D02*
X84767544Y-124720038D01*
X84767544Y-124720038D02*
X84672306Y-124815276D01*
X84672306Y-124815276D02*
X84624687Y-124910514D01*
X84624687Y-124910514D02*
X84577068Y-125100990D01*
X84577068Y-125100990D02*
X84577068Y-125243847D01*
X84577068Y-125243847D02*
X84624687Y-125434323D01*
X84624687Y-125434323D02*
X84672306Y-125529561D01*
X84672306Y-125529561D02*
X84767544Y-125624800D01*
X84767544Y-125624800D02*
X84910401Y-125672419D01*
X84910401Y-125672419D02*
X85148496Y-125672419D01*
X139422306Y-127620038D02*
X139517544Y-127572419D01*
X139517544Y-127572419D02*
X139660401Y-127572419D01*
X139660401Y-127572419D02*
X139803258Y-127620038D01*
X139803258Y-127620038D02*
X139898496Y-127715276D01*
X139898496Y-127715276D02*
X139946115Y-127810514D01*
X139946115Y-127810514D02*
X139993734Y-128000990D01*
X139993734Y-128000990D02*
X139993734Y-128143847D01*
X139993734Y-128143847D02*
X139946115Y-128334323D01*
X139946115Y-128334323D02*
X139898496Y-128429561D01*
X139898496Y-128429561D02*
X139803258Y-128524800D01*
X139803258Y-128524800D02*
X139660401Y-128572419D01*
X139660401Y-128572419D02*
X139565163Y-128572419D01*
X139565163Y-128572419D02*
X139422306Y-128524800D01*
X139422306Y-128524800D02*
X139374687Y-128477180D01*
X139374687Y-128477180D02*
X139374687Y-128143847D01*
X139374687Y-128143847D02*
X139565163Y-128143847D01*
X138946115Y-128572419D02*
X138946115Y-127572419D01*
X138946115Y-127572419D02*
X138374687Y-128572419D01*
X138374687Y-128572419D02*
X138374687Y-127572419D01*
X137898496Y-128572419D02*
X137898496Y-127572419D01*
X137898496Y-127572419D02*
X137660401Y-127572419D01*
X137660401Y-127572419D02*
X137517544Y-127620038D01*
X137517544Y-127620038D02*
X137422306Y-127715276D01*
X137422306Y-127715276D02*
X137374687Y-127810514D01*
X137374687Y-127810514D02*
X137327068Y-128000990D01*
X137327068Y-128000990D02*
X137327068Y-128143847D01*
X137327068Y-128143847D02*
X137374687Y-128334323D01*
X137374687Y-128334323D02*
X137422306Y-128429561D01*
X137422306Y-128429561D02*
X137517544Y-128524800D01*
X137517544Y-128524800D02*
X137660401Y-128572419D01*
X137660401Y-128572419D02*
X137898496Y-128572419D01*
X95796115Y-114272419D02*
X95796115Y-113272419D01*
X95796115Y-113272419D02*
X95558020Y-113272419D01*
X95558020Y-113272419D02*
X95415163Y-113320038D01*
X95415163Y-113320038D02*
X95319925Y-113415276D01*
X95319925Y-113415276D02*
X95272306Y-113510514D01*
X95272306Y-113510514D02*
X95224687Y-113700990D01*
X95224687Y-113700990D02*
X95224687Y-113843847D01*
X95224687Y-113843847D02*
X95272306Y-114034323D01*
X95272306Y-114034323D02*
X95319925Y-114129561D01*
X95319925Y-114129561D02*
X95415163Y-114224800D01*
X95415163Y-114224800D02*
X95558020Y-114272419D01*
X95558020Y-114272419D02*
X95796115Y-114272419D01*
X94796115Y-114272419D02*
X94796115Y-113272419D01*
X93748497Y-114272419D02*
X94081830Y-113796228D01*
X94319925Y-114272419D02*
X94319925Y-113272419D01*
X94319925Y-113272419D02*
X93938973Y-113272419D01*
X93938973Y-113272419D02*
X93843735Y-113320038D01*
X93843735Y-113320038D02*
X93796116Y-113367657D01*
X93796116Y-113367657D02*
X93748497Y-113462895D01*
X93748497Y-113462895D02*
X93748497Y-113605752D01*
X93748497Y-113605752D02*
X93796116Y-113700990D01*
X93796116Y-113700990D02*
X93843735Y-113748609D01*
X93843735Y-113748609D02*
X93938973Y-113796228D01*
X93938973Y-113796228D02*
X94319925Y-113796228D01*
X92796116Y-114272419D02*
X93367544Y-114272419D01*
X93081830Y-114272419D02*
X93081830Y-113272419D01*
X93081830Y-113272419D02*
X93177068Y-113415276D01*
X93177068Y-113415276D02*
X93272306Y-113510514D01*
X93272306Y-113510514D02*
X93367544Y-113558133D01*
X95796115Y-109072419D02*
X95796115Y-108072419D01*
X95796115Y-108072419D02*
X95415163Y-108072419D01*
X95415163Y-108072419D02*
X95319925Y-108120038D01*
X95319925Y-108120038D02*
X95272306Y-108167657D01*
X95272306Y-108167657D02*
X95224687Y-108262895D01*
X95224687Y-108262895D02*
X95224687Y-108405752D01*
X95224687Y-108405752D02*
X95272306Y-108500990D01*
X95272306Y-108500990D02*
X95319925Y-108548609D01*
X95319925Y-108548609D02*
X95415163Y-108596228D01*
X95415163Y-108596228D02*
X95796115Y-108596228D01*
X94891353Y-108072419D02*
X94653258Y-109072419D01*
X94653258Y-109072419D02*
X94462782Y-108358133D01*
X94462782Y-108358133D02*
X94272306Y-109072419D01*
X94272306Y-109072419D02*
X94034211Y-108072419D01*
X93653258Y-109072419D02*
X93653258Y-108072419D01*
X93653258Y-108072419D02*
X93319925Y-108786704D01*
X93319925Y-108786704D02*
X92986592Y-108072419D01*
X92986592Y-108072419D02*
X92986592Y-109072419D01*
X91986592Y-109072419D02*
X92558020Y-109072419D01*
X92272306Y-109072419D02*
X92272306Y-108072419D01*
X92272306Y-108072419D02*
X92367544Y-108215276D01*
X92367544Y-108215276D02*
X92462782Y-108310514D01*
X92462782Y-108310514D02*
X92558020Y-108358133D01*
X95796115Y-104072419D02*
X95796115Y-103072419D01*
X95796115Y-103072419D02*
X95558020Y-103072419D01*
X95558020Y-103072419D02*
X95415163Y-103120038D01*
X95415163Y-103120038D02*
X95319925Y-103215276D01*
X95319925Y-103215276D02*
X95272306Y-103310514D01*
X95272306Y-103310514D02*
X95224687Y-103500990D01*
X95224687Y-103500990D02*
X95224687Y-103643847D01*
X95224687Y-103643847D02*
X95272306Y-103834323D01*
X95272306Y-103834323D02*
X95319925Y-103929561D01*
X95319925Y-103929561D02*
X95415163Y-104024800D01*
X95415163Y-104024800D02*
X95558020Y-104072419D01*
X95558020Y-104072419D02*
X95796115Y-104072419D01*
X94796115Y-104072419D02*
X94796115Y-103072419D01*
X93748497Y-104072419D02*
X94081830Y-103596228D01*
X94319925Y-104072419D02*
X94319925Y-103072419D01*
X94319925Y-103072419D02*
X93938973Y-103072419D01*
X93938973Y-103072419D02*
X93843735Y-103120038D01*
X93843735Y-103120038D02*
X93796116Y-103167657D01*
X93796116Y-103167657D02*
X93748497Y-103262895D01*
X93748497Y-103262895D02*
X93748497Y-103405752D01*
X93748497Y-103405752D02*
X93796116Y-103500990D01*
X93796116Y-103500990D02*
X93843735Y-103548609D01*
X93843735Y-103548609D02*
X93938973Y-103596228D01*
X93938973Y-103596228D02*
X94319925Y-103596228D01*
X93367544Y-103167657D02*
X93319925Y-103120038D01*
X93319925Y-103120038D02*
X93224687Y-103072419D01*
X93224687Y-103072419D02*
X92986592Y-103072419D01*
X92986592Y-103072419D02*
X92891354Y-103120038D01*
X92891354Y-103120038D02*
X92843735Y-103167657D01*
X92843735Y-103167657D02*
X92796116Y-103262895D01*
X92796116Y-103262895D02*
X92796116Y-103358133D01*
X92796116Y-103358133D02*
X92843735Y-103500990D01*
X92843735Y-103500990D02*
X93415163Y-104072419D01*
X93415163Y-104072419D02*
X92796116Y-104072419D01*
X95796115Y-98772419D02*
X95796115Y-97772419D01*
X95796115Y-97772419D02*
X95415163Y-97772419D01*
X95415163Y-97772419D02*
X95319925Y-97820038D01*
X95319925Y-97820038D02*
X95272306Y-97867657D01*
X95272306Y-97867657D02*
X95224687Y-97962895D01*
X95224687Y-97962895D02*
X95224687Y-98105752D01*
X95224687Y-98105752D02*
X95272306Y-98200990D01*
X95272306Y-98200990D02*
X95319925Y-98248609D01*
X95319925Y-98248609D02*
X95415163Y-98296228D01*
X95415163Y-98296228D02*
X95796115Y-98296228D01*
X94891353Y-97772419D02*
X94653258Y-98772419D01*
X94653258Y-98772419D02*
X94462782Y-98058133D01*
X94462782Y-98058133D02*
X94272306Y-98772419D01*
X94272306Y-98772419D02*
X94034211Y-97772419D01*
X93653258Y-98772419D02*
X93653258Y-97772419D01*
X93653258Y-97772419D02*
X93319925Y-98486704D01*
X93319925Y-98486704D02*
X92986592Y-97772419D01*
X92986592Y-97772419D02*
X92986592Y-98772419D01*
X92558020Y-97867657D02*
X92510401Y-97820038D01*
X92510401Y-97820038D02*
X92415163Y-97772419D01*
X92415163Y-97772419D02*
X92177068Y-97772419D01*
X92177068Y-97772419D02*
X92081830Y-97820038D01*
X92081830Y-97820038D02*
X92034211Y-97867657D01*
X92034211Y-97867657D02*
X91986592Y-97962895D01*
X91986592Y-97962895D02*
X91986592Y-98058133D01*
X91986592Y-98058133D02*
X92034211Y-98200990D01*
X92034211Y-98200990D02*
X92605639Y-98772419D01*
X92605639Y-98772419D02*
X91986592Y-98772419D01*
X95272306Y-92720038D02*
X95367544Y-92672419D01*
X95367544Y-92672419D02*
X95510401Y-92672419D01*
X95510401Y-92672419D02*
X95653258Y-92720038D01*
X95653258Y-92720038D02*
X95748496Y-92815276D01*
X95748496Y-92815276D02*
X95796115Y-92910514D01*
X95796115Y-92910514D02*
X95843734Y-93100990D01*
X95843734Y-93100990D02*
X95843734Y-93243847D01*
X95843734Y-93243847D02*
X95796115Y-93434323D01*
X95796115Y-93434323D02*
X95748496Y-93529561D01*
X95748496Y-93529561D02*
X95653258Y-93624800D01*
X95653258Y-93624800D02*
X95510401Y-93672419D01*
X95510401Y-93672419D02*
X95415163Y-93672419D01*
X95415163Y-93672419D02*
X95272306Y-93624800D01*
X95272306Y-93624800D02*
X95224687Y-93577180D01*
X95224687Y-93577180D02*
X95224687Y-93243847D01*
X95224687Y-93243847D02*
X95415163Y-93243847D01*
X94796115Y-93672419D02*
X94796115Y-92672419D01*
X94796115Y-92672419D02*
X94224687Y-93672419D01*
X94224687Y-93672419D02*
X94224687Y-92672419D01*
X93748496Y-93672419D02*
X93748496Y-92672419D01*
X93748496Y-92672419D02*
X93510401Y-92672419D01*
X93510401Y-92672419D02*
X93367544Y-92720038D01*
X93367544Y-92720038D02*
X93272306Y-92815276D01*
X93272306Y-92815276D02*
X93224687Y-92910514D01*
X93224687Y-92910514D02*
X93177068Y-93100990D01*
X93177068Y-93100990D02*
X93177068Y-93243847D01*
X93177068Y-93243847D02*
X93224687Y-93434323D01*
X93224687Y-93434323D02*
X93272306Y-93529561D01*
X93272306Y-93529561D02*
X93367544Y-93624800D01*
X93367544Y-93624800D02*
X93510401Y-93672419D01*
X93510401Y-93672419D02*
X93748496Y-93672419D01*
X138581353Y-122512419D02*
X137962306Y-122512419D01*
X137962306Y-122512419D02*
X138295639Y-122893371D01*
X138295639Y-122893371D02*
X138152782Y-122893371D01*
X138152782Y-122893371D02*
X138057544Y-122940990D01*
X138057544Y-122940990D02*
X138009925Y-122988609D01*
X138009925Y-122988609D02*
X137962306Y-123083847D01*
X137962306Y-123083847D02*
X137962306Y-123321942D01*
X137962306Y-123321942D02*
X138009925Y-123417180D01*
X138009925Y-123417180D02*
X138057544Y-123464800D01*
X138057544Y-123464800D02*
X138152782Y-123512419D01*
X138152782Y-123512419D02*
X138438496Y-123512419D01*
X138438496Y-123512419D02*
X138533734Y-123464800D01*
X138533734Y-123464800D02*
X138581353Y-123417180D01*
X137533734Y-123417180D02*
X137486115Y-123464800D01*
X137486115Y-123464800D02*
X137533734Y-123512419D01*
X137533734Y-123512419D02*
X137581353Y-123464800D01*
X137581353Y-123464800D02*
X137533734Y-123417180D01*
X137533734Y-123417180D02*
X137533734Y-123512419D01*
X137152782Y-122512419D02*
X136533735Y-122512419D01*
X136533735Y-122512419D02*
X136867068Y-122893371D01*
X136867068Y-122893371D02*
X136724211Y-122893371D01*
X136724211Y-122893371D02*
X136628973Y-122940990D01*
X136628973Y-122940990D02*
X136581354Y-122988609D01*
X136581354Y-122988609D02*
X136533735Y-123083847D01*
X136533735Y-123083847D02*
X136533735Y-123321942D01*
X136533735Y-123321942D02*
X136581354Y-123417180D01*
X136581354Y-123417180D02*
X136628973Y-123464800D01*
X136628973Y-123464800D02*
X136724211Y-123512419D01*
X136724211Y-123512419D02*
X137009925Y-123512419D01*
X137009925Y-123512419D02*
X137105163Y-123464800D01*
X137105163Y-123464800D02*
X137152782Y-123417180D01*
X136248020Y-122512419D02*
X135914687Y-123512419D01*
X135914687Y-123512419D02*
X135581354Y-122512419D01*
X138533734Y-120854856D02*
X138390877Y-120902475D01*
X138390877Y-120902475D02*
X138152782Y-120902475D01*
X138152782Y-120902475D02*
X138057544Y-120854856D01*
X138057544Y-120854856D02*
X138009925Y-120807236D01*
X138009925Y-120807236D02*
X137962306Y-120711998D01*
X137962306Y-120711998D02*
X137962306Y-120616760D01*
X137962306Y-120616760D02*
X138009925Y-120521522D01*
X138009925Y-120521522D02*
X138057544Y-120473903D01*
X138057544Y-120473903D02*
X138152782Y-120426284D01*
X138152782Y-120426284D02*
X138343258Y-120378665D01*
X138343258Y-120378665D02*
X138438496Y-120331046D01*
X138438496Y-120331046D02*
X138486115Y-120283427D01*
X138486115Y-120283427D02*
X138533734Y-120188189D01*
X138533734Y-120188189D02*
X138533734Y-120092951D01*
X138533734Y-120092951D02*
X138486115Y-119997713D01*
X138486115Y-119997713D02*
X138438496Y-119950094D01*
X138438496Y-119950094D02*
X138343258Y-119902475D01*
X138343258Y-119902475D02*
X138105163Y-119902475D01*
X138105163Y-119902475D02*
X137962306Y-119950094D01*
X137628972Y-119902475D02*
X137390877Y-120902475D01*
X137390877Y-120902475D02*
X137200401Y-120188189D01*
X137200401Y-120188189D02*
X137009925Y-120902475D01*
X137009925Y-120902475D02*
X136771830Y-119902475D01*
X136390877Y-120902475D02*
X136390877Y-119902475D01*
X136390877Y-119902475D02*
X136152782Y-119902475D01*
X136152782Y-119902475D02*
X136009925Y-119950094D01*
X136009925Y-119950094D02*
X135914687Y-120045332D01*
X135914687Y-120045332D02*
X135867068Y-120140570D01*
X135867068Y-120140570D02*
X135819449Y-120331046D01*
X135819449Y-120331046D02*
X135819449Y-120473903D01*
X135819449Y-120473903D02*
X135867068Y-120664379D01*
X135867068Y-120664379D02*
X135914687Y-120759617D01*
X135914687Y-120759617D02*
X136009925Y-120854856D01*
X136009925Y-120854856D02*
X136152782Y-120902475D01*
X136152782Y-120902475D02*
X136390877Y-120902475D01*
X135390877Y-120902475D02*
X135390877Y-119902475D01*
X134724211Y-119902475D02*
X134533735Y-119902475D01*
X134533735Y-119902475D02*
X134438497Y-119950094D01*
X134438497Y-119950094D02*
X134343259Y-120045332D01*
X134343259Y-120045332D02*
X134295640Y-120235808D01*
X134295640Y-120235808D02*
X134295640Y-120569141D01*
X134295640Y-120569141D02*
X134343259Y-120759617D01*
X134343259Y-120759617D02*
X134438497Y-120854856D01*
X134438497Y-120854856D02*
X134533735Y-120902475D01*
X134533735Y-120902475D02*
X134724211Y-120902475D01*
X134724211Y-120902475D02*
X134819449Y-120854856D01*
X134819449Y-120854856D02*
X134914687Y-120759617D01*
X134914687Y-120759617D02*
X134962306Y-120569141D01*
X134962306Y-120569141D02*
X134962306Y-120235808D01*
X134962306Y-120235808D02*
X134914687Y-120045332D01*
X134914687Y-120045332D02*
X134819449Y-119950094D01*
X134819449Y-119950094D02*
X134724211Y-119902475D01*
X138533734Y-118364800D02*
X138390877Y-118412419D01*
X138390877Y-118412419D02*
X138152782Y-118412419D01*
X138152782Y-118412419D02*
X138057544Y-118364800D01*
X138057544Y-118364800D02*
X138009925Y-118317180D01*
X138009925Y-118317180D02*
X137962306Y-118221942D01*
X137962306Y-118221942D02*
X137962306Y-118126704D01*
X137962306Y-118126704D02*
X138009925Y-118031466D01*
X138009925Y-118031466D02*
X138057544Y-117983847D01*
X138057544Y-117983847D02*
X138152782Y-117936228D01*
X138152782Y-117936228D02*
X138343258Y-117888609D01*
X138343258Y-117888609D02*
X138438496Y-117840990D01*
X138438496Y-117840990D02*
X138486115Y-117793371D01*
X138486115Y-117793371D02*
X138533734Y-117698133D01*
X138533734Y-117698133D02*
X138533734Y-117602895D01*
X138533734Y-117602895D02*
X138486115Y-117507657D01*
X138486115Y-117507657D02*
X138438496Y-117460038D01*
X138438496Y-117460038D02*
X138343258Y-117412419D01*
X138343258Y-117412419D02*
X138105163Y-117412419D01*
X138105163Y-117412419D02*
X137962306Y-117460038D01*
X137628972Y-117412419D02*
X137390877Y-118412419D01*
X137390877Y-118412419D02*
X137200401Y-117698133D01*
X137200401Y-117698133D02*
X137009925Y-118412419D01*
X137009925Y-118412419D02*
X136771830Y-117412419D01*
X136390877Y-118412419D02*
X136390877Y-117412419D01*
X136390877Y-117412419D02*
X136152782Y-117412419D01*
X136152782Y-117412419D02*
X136009925Y-117460038D01*
X136009925Y-117460038D02*
X135914687Y-117555276D01*
X135914687Y-117555276D02*
X135867068Y-117650514D01*
X135867068Y-117650514D02*
X135819449Y-117840990D01*
X135819449Y-117840990D02*
X135819449Y-117983847D01*
X135819449Y-117983847D02*
X135867068Y-118174323D01*
X135867068Y-118174323D02*
X135914687Y-118269561D01*
X135914687Y-118269561D02*
X136009925Y-118364800D01*
X136009925Y-118364800D02*
X136152782Y-118412419D01*
X136152782Y-118412419D02*
X136390877Y-118412419D01*
X134819449Y-118317180D02*
X134867068Y-118364800D01*
X134867068Y-118364800D02*
X135009925Y-118412419D01*
X135009925Y-118412419D02*
X135105163Y-118412419D01*
X135105163Y-118412419D02*
X135248020Y-118364800D01*
X135248020Y-118364800D02*
X135343258Y-118269561D01*
X135343258Y-118269561D02*
X135390877Y-118174323D01*
X135390877Y-118174323D02*
X135438496Y-117983847D01*
X135438496Y-117983847D02*
X135438496Y-117840990D01*
X135438496Y-117840990D02*
X135390877Y-117650514D01*
X135390877Y-117650514D02*
X135343258Y-117555276D01*
X135343258Y-117555276D02*
X135248020Y-117460038D01*
X135248020Y-117460038D02*
X135105163Y-117412419D01*
X135105163Y-117412419D02*
X135009925Y-117412419D01*
X135009925Y-117412419D02*
X134867068Y-117460038D01*
X134867068Y-117460038D02*
X134819449Y-117507657D01*
X133914687Y-118412419D02*
X134390877Y-118412419D01*
X134390877Y-118412419D02*
X134390877Y-117412419D01*
X133581353Y-118412419D02*
X133581353Y-117412419D01*
X133009925Y-118412419D02*
X133438496Y-117840990D01*
X133009925Y-117412419D02*
X133581353Y-117983847D01*
X137962306Y-114860038D02*
X138057544Y-114812419D01*
X138057544Y-114812419D02*
X138200401Y-114812419D01*
X138200401Y-114812419D02*
X138343258Y-114860038D01*
X138343258Y-114860038D02*
X138438496Y-114955276D01*
X138438496Y-114955276D02*
X138486115Y-115050514D01*
X138486115Y-115050514D02*
X138533734Y-115240990D01*
X138533734Y-115240990D02*
X138533734Y-115383847D01*
X138533734Y-115383847D02*
X138486115Y-115574323D01*
X138486115Y-115574323D02*
X138438496Y-115669561D01*
X138438496Y-115669561D02*
X138343258Y-115764800D01*
X138343258Y-115764800D02*
X138200401Y-115812419D01*
X138200401Y-115812419D02*
X138105163Y-115812419D01*
X138105163Y-115812419D02*
X137962306Y-115764800D01*
X137962306Y-115764800D02*
X137914687Y-115717180D01*
X137914687Y-115717180D02*
X137914687Y-115383847D01*
X137914687Y-115383847D02*
X138105163Y-115383847D01*
X137486115Y-115812419D02*
X137486115Y-114812419D01*
X137486115Y-114812419D02*
X136914687Y-115812419D01*
X136914687Y-115812419D02*
X136914687Y-114812419D01*
X136438496Y-115812419D02*
X136438496Y-114812419D01*
X136438496Y-114812419D02*
X136200401Y-114812419D01*
X136200401Y-114812419D02*
X136057544Y-114860038D01*
X136057544Y-114860038D02*
X135962306Y-114955276D01*
X135962306Y-114955276D02*
X135914687Y-115050514D01*
X135914687Y-115050514D02*
X135867068Y-115240990D01*
X135867068Y-115240990D02*
X135867068Y-115383847D01*
X135867068Y-115383847D02*
X135914687Y-115574323D01*
X135914687Y-115574323D02*
X135962306Y-115669561D01*
X135962306Y-115669561D02*
X136057544Y-115764800D01*
X136057544Y-115764800D02*
X136200401Y-115812419D01*
X136200401Y-115812419D02*
X136438496Y-115812419D01*
X129633333Y-94287419D02*
X129633333Y-95001704D01*
X129633333Y-95001704D02*
X129680952Y-95144561D01*
X129680952Y-95144561D02*
X129776190Y-95239800D01*
X129776190Y-95239800D02*
X129919047Y-95287419D01*
X129919047Y-95287419D02*
X130014285Y-95287419D01*
X128633333Y-95287419D02*
X129204761Y-95287419D01*
X128919047Y-95287419D02*
X128919047Y-94287419D01*
X128919047Y-94287419D02*
X129014285Y-94430276D01*
X129014285Y-94430276D02*
X129109523Y-94525514D01*
X129109523Y-94525514D02*
X129204761Y-94573133D01*
X130546116Y-107320038D02*
X130641354Y-107272419D01*
X130641354Y-107272419D02*
X130784211Y-107272419D01*
X130784211Y-107272419D02*
X130927068Y-107320038D01*
X130927068Y-107320038D02*
X131022306Y-107415276D01*
X131022306Y-107415276D02*
X131069925Y-107510514D01*
X131069925Y-107510514D02*
X131117544Y-107700990D01*
X131117544Y-107700990D02*
X131117544Y-107843847D01*
X131117544Y-107843847D02*
X131069925Y-108034323D01*
X131069925Y-108034323D02*
X131022306Y-108129561D01*
X131022306Y-108129561D02*
X130927068Y-108224800D01*
X130927068Y-108224800D02*
X130784211Y-108272419D01*
X130784211Y-108272419D02*
X130688973Y-108272419D01*
X130688973Y-108272419D02*
X130546116Y-108224800D01*
X130546116Y-108224800D02*
X130498497Y-108177180D01*
X130498497Y-108177180D02*
X130498497Y-107843847D01*
X130498497Y-107843847D02*
X130688973Y-107843847D01*
X130069925Y-108272419D02*
X130069925Y-107272419D01*
X130069925Y-107272419D02*
X129498497Y-108272419D01*
X129498497Y-108272419D02*
X129498497Y-107272419D01*
X129022306Y-108272419D02*
X129022306Y-107272419D01*
X129022306Y-107272419D02*
X128784211Y-107272419D01*
X128784211Y-107272419D02*
X128641354Y-107320038D01*
X128641354Y-107320038D02*
X128546116Y-107415276D01*
X128546116Y-107415276D02*
X128498497Y-107510514D01*
X128498497Y-107510514D02*
X128450878Y-107700990D01*
X128450878Y-107700990D02*
X128450878Y-107843847D01*
X128450878Y-107843847D02*
X128498497Y-108034323D01*
X128498497Y-108034323D02*
X128546116Y-108129561D01*
X128546116Y-108129561D02*
X128641354Y-108224800D01*
X128641354Y-108224800D02*
X128784211Y-108272419D01*
X128784211Y-108272419D02*
X129022306Y-108272419D01*
X125624687Y-105477180D02*
X125672306Y-105524800D01*
X125672306Y-105524800D02*
X125815163Y-105572419D01*
X125815163Y-105572419D02*
X125910401Y-105572419D01*
X125910401Y-105572419D02*
X126053258Y-105524800D01*
X126053258Y-105524800D02*
X126148496Y-105429561D01*
X126148496Y-105429561D02*
X126196115Y-105334323D01*
X126196115Y-105334323D02*
X126243734Y-105143847D01*
X126243734Y-105143847D02*
X126243734Y-105000990D01*
X126243734Y-105000990D02*
X126196115Y-104810514D01*
X126196115Y-104810514D02*
X126148496Y-104715276D01*
X126148496Y-104715276D02*
X126053258Y-104620038D01*
X126053258Y-104620038D02*
X125910401Y-104572419D01*
X125910401Y-104572419D02*
X125815163Y-104572419D01*
X125815163Y-104572419D02*
X125672306Y-104620038D01*
X125672306Y-104620038D02*
X125624687Y-104667657D01*
X125243734Y-105286704D02*
X124767544Y-105286704D01*
X125338972Y-105572419D02*
X125005639Y-104572419D01*
X125005639Y-104572419D02*
X124672306Y-105572419D01*
X124338972Y-105572419D02*
X124338972Y-104572419D01*
X124338972Y-104572419D02*
X123767544Y-105572419D01*
X123767544Y-105572419D02*
X123767544Y-104572419D01*
X123529449Y-105667657D02*
X122767544Y-105667657D01*
X122529448Y-105572419D02*
X122529448Y-104572419D01*
X122529448Y-105048609D02*
X121958020Y-105048609D01*
X121958020Y-105572419D02*
X121958020Y-104572419D01*
X137096115Y-103430966D02*
X136334211Y-103430966D01*
X136715163Y-103811919D02*
X136715163Y-103050014D01*
X135334211Y-103811919D02*
X135905639Y-103811919D01*
X135619925Y-103811919D02*
X135619925Y-102811919D01*
X135619925Y-102811919D02*
X135715163Y-102954776D01*
X135715163Y-102954776D02*
X135810401Y-103050014D01*
X135810401Y-103050014D02*
X135905639Y-103097633D01*
X134953258Y-102907157D02*
X134905639Y-102859538D01*
X134905639Y-102859538D02*
X134810401Y-102811919D01*
X134810401Y-102811919D02*
X134572306Y-102811919D01*
X134572306Y-102811919D02*
X134477068Y-102859538D01*
X134477068Y-102859538D02*
X134429449Y-102907157D01*
X134429449Y-102907157D02*
X134381830Y-103002395D01*
X134381830Y-103002395D02*
X134381830Y-103097633D01*
X134381830Y-103097633D02*
X134429449Y-103240490D01*
X134429449Y-103240490D02*
X135000877Y-103811919D01*
X135000877Y-103811919D02*
X134381830Y-103811919D01*
X134048496Y-103145252D02*
X133810401Y-103811919D01*
X133810401Y-103811919D02*
X133572306Y-103145252D01*
X126264687Y-100857180D02*
X126312306Y-100904800D01*
X126312306Y-100904800D02*
X126455163Y-100952419D01*
X126455163Y-100952419D02*
X126550401Y-100952419D01*
X126550401Y-100952419D02*
X126693258Y-100904800D01*
X126693258Y-100904800D02*
X126788496Y-100809561D01*
X126788496Y-100809561D02*
X126836115Y-100714323D01*
X126836115Y-100714323D02*
X126883734Y-100523847D01*
X126883734Y-100523847D02*
X126883734Y-100380990D01*
X126883734Y-100380990D02*
X126836115Y-100190514D01*
X126836115Y-100190514D02*
X126788496Y-100095276D01*
X126788496Y-100095276D02*
X126693258Y-100000038D01*
X126693258Y-100000038D02*
X126550401Y-99952419D01*
X126550401Y-99952419D02*
X126455163Y-99952419D01*
X126455163Y-99952419D02*
X126312306Y-100000038D01*
X126312306Y-100000038D02*
X126264687Y-100047657D01*
X125883734Y-100666704D02*
X125407544Y-100666704D01*
X125978972Y-100952419D02*
X125645639Y-99952419D01*
X125645639Y-99952419D02*
X125312306Y-100952419D01*
X124978972Y-100952419D02*
X124978972Y-99952419D01*
X124978972Y-99952419D02*
X124407544Y-100952419D01*
X124407544Y-100952419D02*
X124407544Y-99952419D01*
X124169449Y-101047657D02*
X123407544Y-101047657D01*
X122693258Y-100952419D02*
X123169448Y-100952419D01*
X123169448Y-100952419D02*
X123169448Y-99952419D01*
D11*
%TO.C,J5*%
X139627500Y-114180000D02*
X139627500Y-112960000D01*
X146827500Y-114180000D02*
X146827500Y-112960000D01*
X139627500Y-112960000D02*
X148047500Y-112960000D01*
X141827500Y-114180000D02*
X139627500Y-114180000D01*
X141827500Y-112960000D02*
X141827500Y-114180000D01*
X141827500Y-114180000D02*
X146827500Y-114180000D01*
X142827500Y-115570000D02*
X142827500Y-115250000D01*
X142827500Y-115250000D02*
X146247500Y-115250000D01*
X142827500Y-115890000D02*
X142827500Y-115570000D01*
X146247500Y-115250000D02*
X146327500Y-115570000D01*
X146247500Y-115890000D02*
X142827500Y-115890000D01*
X146327500Y-115570000D02*
X146247500Y-115890000D01*
X141827500Y-116740000D02*
X141827500Y-116900000D01*
X142827500Y-118070000D02*
X142827500Y-117750000D01*
X142827500Y-117750000D02*
X146247500Y-117750000D01*
X142827500Y-118390000D02*
X142827500Y-118070000D01*
X146247500Y-117750000D02*
X146327500Y-118070000D01*
X146247500Y-118390000D02*
X142827500Y-118390000D01*
X146327500Y-118070000D02*
X146247500Y-118390000D01*
X141827500Y-119240000D02*
X141827500Y-119400000D01*
X142827500Y-120570000D02*
X142827500Y-120250000D01*
X142827500Y-120250000D02*
X146247500Y-120250000D01*
X142827500Y-120890000D02*
X142827500Y-120570000D01*
X146247500Y-120250000D02*
X146327500Y-120570000D01*
X146247500Y-120890000D02*
X142827500Y-120890000D01*
X146327500Y-120570000D02*
X146247500Y-120890000D01*
X141827500Y-121740000D02*
X141827500Y-121900000D01*
X142827500Y-123070000D02*
X142827500Y-122750000D01*
X142827500Y-122750000D02*
X146247500Y-122750000D01*
X139737500Y-123070000D02*
X139137500Y-122770000D01*
X139137500Y-123370000D02*
X139737500Y-123070000D01*
X142827500Y-123390000D02*
X142827500Y-123070000D01*
X146247500Y-122750000D02*
X146327500Y-123070000D01*
X139137500Y-122770000D02*
X139137500Y-123370000D01*
X146247500Y-123390000D02*
X142827500Y-123390000D01*
X146327500Y-123070000D02*
X146247500Y-123390000D01*
X139627500Y-125680000D02*
X139627500Y-124460000D01*
X139627500Y-124460000D02*
X141827500Y-124460000D01*
X141827500Y-125680000D02*
X141827500Y-124460000D01*
X142827500Y-114180000D02*
X142827500Y-124460000D01*
X141827500Y-124460000D02*
X146827500Y-124460000D01*
X148047500Y-125680000D02*
X139627500Y-125680000D01*
X146827500Y-124460000D02*
X146827500Y-125680000D01*
X148047500Y-112960000D02*
X148047500Y-125680000D01*
D10*
%TO.C,J1*%
X119313987Y-103985175D02*
X119297671Y-103400000D01*
X119336448Y-104277020D02*
X119313987Y-103985175D01*
X119297671Y-103400000D02*
X119313987Y-102814825D01*
X123808582Y-112022981D02*
X119336448Y-104277020D01*
X119313987Y-102814825D02*
X119336448Y-102522980D01*
X122300000Y-101400000D02*
X122800000Y-101400000D01*
X124050096Y-112188355D02*
X123808582Y-112022981D01*
X119336448Y-102522980D02*
X123808586Y-94777011D01*
X124548714Y-112495071D02*
X124050096Y-112188355D01*
X123808586Y-94777011D02*
X124050105Y-94611645D01*
X125063647Y-112773530D02*
X124548714Y-112495071D01*
X124050105Y-94611645D02*
X124548720Y-94304929D01*
X125327622Y-112900000D02*
X125063647Y-112773530D01*
X124548720Y-94304929D02*
X125063651Y-94026471D01*
X134271890Y-112900000D02*
X125327622Y-112900000D01*
X125063651Y-94026471D02*
X125327625Y-93900000D01*
X122800000Y-101400000D02*
X127300000Y-101400000D01*
X127300000Y-101400000D02*
X128800000Y-102400000D01*
X134535865Y-112773529D02*
X134271890Y-112900000D01*
X125327625Y-93900000D02*
X134271891Y-93900000D01*
X135050799Y-112495071D02*
X134535865Y-112773529D01*
X134271891Y-93900000D02*
X134535866Y-94026470D01*
X135549416Y-112188352D02*
X135050799Y-112495071D01*
X134535866Y-94026470D02*
X135050800Y-94304927D01*
X135790932Y-112022979D02*
X135549416Y-112188352D01*
X135050800Y-94304927D02*
X135549417Y-94611645D01*
X135549417Y-94611645D02*
X135790930Y-94777020D01*
X140263064Y-104277019D02*
X135790932Y-112022979D01*
X135790930Y-94777020D02*
X140263063Y-102522980D01*
X140285526Y-103985174D02*
X140263064Y-104277019D01*
X140263063Y-102522980D02*
X140285525Y-102814825D01*
X140301842Y-103399999D02*
X140285526Y-103985174D01*
X140285525Y-102814825D02*
X140301842Y-103399999D01*
%TD*%
M02*
