%TF.GenerationSoftware,KiCad,Pcbnew,8.0.1*%
%TF.CreationDate,2025-05-19T10:21:45+02:00*%
%TF.ProjectId,stm32f103 board,73746d33-3266-4313-9033-20626f617264,rev?*%
%TF.SameCoordinates,Original*%
%TF.FileFunction,Copper,L1,Top*%
%TF.FilePolarity,Positive*%
%FSLAX46Y46*%
G04 Gerber Fmt 4.6, Leading zero omitted, Abs format (unit mm)*
G04 Created by KiCad (PCBNEW 8.0.1) date 2025-05-19 10:21:45*
%MOMM*%
%LPD*%
G01*
G04 APERTURE LIST*
G04 Aperture macros list*
%AMRoundRect*
0 Rectangle with rounded corners*
0 $1 Rounding radius*
0 $2 $3 $4 $5 $6 $7 $8 $9 X,Y pos of 4 corners*
0 Add a 4 corners polygon primitive as box body*
4,1,4,$2,$3,$4,$5,$6,$7,$8,$9,$2,$3,0*
0 Add four circle primitives for the rounded corners*
1,1,$1+$1,$2,$3*
1,1,$1+$1,$4,$5*
1,1,$1+$1,$6,$7*
1,1,$1+$1,$8,$9*
0 Add four rect primitives between the rounded corners*
20,1,$1+$1,$2,$3,$4,$5,0*
20,1,$1+$1,$4,$5,$6,$7,0*
20,1,$1+$1,$6,$7,$8,$9,0*
20,1,$1+$1,$8,$9,$2,$3,0*%
G04 Aperture macros list end*
%TA.AperFunction,ComponentPad*%
%ADD10O,1.950000X1.700000*%
%TD*%
%TA.AperFunction,ComponentPad*%
%ADD11RoundRect,0.250000X0.725000X-0.600000X0.725000X0.600000X-0.725000X0.600000X-0.725000X-0.600000X0*%
%TD*%
%TA.AperFunction,ComponentPad*%
%ADD12R,1.700000X1.700000*%
%TD*%
%TA.AperFunction,SMDPad,CuDef*%
%ADD13RoundRect,0.250000X-0.312500X-0.625000X0.312500X-0.625000X0.312500X0.625000X-0.312500X0.625000X0*%
%TD*%
%TA.AperFunction,SMDPad,CuDef*%
%ADD14RoundRect,0.250000X0.650000X-0.325000X0.650000X0.325000X-0.650000X0.325000X-0.650000X-0.325000X0*%
%TD*%
%TA.AperFunction,ComponentPad*%
%ADD15C,2.000000*%
%TD*%
%TA.AperFunction,SMDPad,CuDef*%
%ADD16RoundRect,0.250000X0.325000X0.650000X-0.325000X0.650000X-0.325000X-0.650000X0.325000X-0.650000X0*%
%TD*%
%TA.AperFunction,SMDPad,CuDef*%
%ADD17RoundRect,0.250000X-0.650000X0.325000X-0.650000X-0.325000X0.650000X-0.325000X0.650000X0.325000X0*%
%TD*%
%TA.AperFunction,SMDPad,CuDef*%
%ADD18RoundRect,0.250000X0.900000X-1.000000X0.900000X1.000000X-0.900000X1.000000X-0.900000X-1.000000X0*%
%TD*%
%TA.AperFunction,SMDPad,CuDef*%
%ADD19RoundRect,0.250001X0.799999X-2.049999X0.799999X2.049999X-0.799999X2.049999X-0.799999X-2.049999X0*%
%TD*%
%TA.AperFunction,SMDPad,CuDef*%
%ADD20RoundRect,0.250001X-2.049999X-0.799999X2.049999X-0.799999X2.049999X0.799999X-2.049999X0.799999X0*%
%TD*%
%TA.AperFunction,SMDPad,CuDef*%
%ADD21RoundRect,0.525000X0.525000X0.975000X-0.525000X0.975000X-0.525000X-0.975000X0.525000X-0.975000X0*%
%TD*%
%TA.AperFunction,SMDPad,CuDef*%
%ADD22RoundRect,0.075000X-0.700000X-0.075000X0.700000X-0.075000X0.700000X0.075000X-0.700000X0.075000X0*%
%TD*%
%TA.AperFunction,SMDPad,CuDef*%
%ADD23RoundRect,0.075000X-0.075000X-0.700000X0.075000X-0.700000X0.075000X0.700000X-0.075000X0.700000X0*%
%TD*%
%TA.AperFunction,SMDPad,CuDef*%
%ADD24RoundRect,0.250000X-0.625000X0.312500X-0.625000X-0.312500X0.625000X-0.312500X0.625000X0.312500X0*%
%TD*%
%TA.AperFunction,SMDPad,CuDef*%
%ADD25RoundRect,0.250000X-0.325000X-0.650000X0.325000X-0.650000X0.325000X0.650000X-0.325000X0.650000X0*%
%TD*%
%TA.AperFunction,SMDPad,CuDef*%
%ADD26RoundRect,0.250000X0.625000X-0.375000X0.625000X0.375000X-0.625000X0.375000X-0.625000X-0.375000X0*%
%TD*%
%TA.AperFunction,SMDPad,CuDef*%
%ADD27RoundRect,0.250000X0.625000X-0.312500X0.625000X0.312500X-0.625000X0.312500X-0.625000X-0.312500X0*%
%TD*%
%TA.AperFunction,SMDPad,CuDef*%
%ADD28R,2.000000X4.500000*%
%TD*%
%TA.AperFunction,SMDPad,CuDef*%
%ADD29RoundRect,0.250000X0.700000X-0.275000X0.700000X0.275000X-0.700000X0.275000X-0.700000X-0.275000X0*%
%TD*%
%TA.AperFunction,ComponentPad*%
%ADD30R,2.800000X2.800000*%
%TD*%
%TA.AperFunction,ComponentPad*%
%ADD31C,2.800000*%
%TD*%
%TA.AperFunction,SMDPad,CuDef*%
%ADD32RoundRect,0.150000X0.150000X-0.825000X0.150000X0.825000X-0.150000X0.825000X-0.150000X-0.825000X0*%
%TD*%
%TA.AperFunction,ViaPad*%
%ADD33C,0.600000*%
%TD*%
%TA.AperFunction,Conductor*%
%ADD34C,0.300000*%
%TD*%
%TA.AperFunction,Conductor*%
%ADD35C,0.500000*%
%TD*%
%TA.AperFunction,Conductor*%
%ADD36C,0.800000*%
%TD*%
%TA.AperFunction,Conductor*%
%ADD37C,0.200000*%
%TD*%
G04 APERTURE END LIST*
D10*
%TO.P,J5,4,Pin_4*%
%TO.N,GND*%
X141237500Y-115570000D03*
%TO.P,J5,3,Pin_3*%
%TO.N,SWCLK*%
X141237500Y-118070000D03*
%TO.P,J5,2,Pin_2*%
%TO.N,SWDIO*%
X141237500Y-120570000D03*
D11*
%TO.P,J5,1,Pin_1*%
%TO.N,+3.3V*%
X141237500Y-123070000D03*
%TD*%
D12*
%TO.P,H1,1,1*%
%TO.N,Net-(U1-BOOT0)*%
X117120000Y-102920000D03*
%TD*%
D13*
%TO.P,R5,1*%
%TO.N,Net-(U1-BOOT0)*%
X116775000Y-106280000D03*
%TO.P,R5,2*%
%TO.N,GND*%
X119700000Y-106280000D03*
%TD*%
D14*
%TO.P,C17,1*%
%TO.N,+3.3V*%
X109140000Y-107950000D03*
%TO.P,C17,2*%
%TO.N,GND*%
X109140000Y-105000000D03*
%TD*%
D15*
%TO.P,J1,5,Pin_5*%
%TO.N,/CAN-*%
X129800000Y-103400000D03*
%TO.P,J1,2,Pin_2*%
%TO.N,+12V*%
X132300000Y-103400000D03*
%TO.P,J1,3,Pin_3*%
%TO.N,GND*%
X129800000Y-105900000D03*
%TO.P,J1,4,Pin_4*%
%TO.N,/CAN+*%
X127300000Y-103400000D03*
%TO.P,J1,1,Pin_1*%
%TO.N,unconnected-(J1-Pin_1-Pad1)*%
X129800000Y-100900000D03*
%TD*%
D16*
%TO.P,C16,1*%
%TO.N,+3.3V*%
X128675000Y-117100000D03*
%TO.P,C16,2*%
%TO.N,GND*%
X125725000Y-117100000D03*
%TD*%
D14*
%TO.P,C14,1*%
%TO.N,Net-(U1-PF0)*%
X103670000Y-109950000D03*
%TO.P,C14,2*%
%TO.N,GND*%
X103670000Y-107000000D03*
%TD*%
%TO.P,C6,2*%
%TO.N,Net-(U2-Feedback)*%
X117200000Y-97075000D03*
%TO.P,C6,1*%
%TO.N,+3.3V*%
X117200000Y-100025000D03*
%TD*%
D17*
%TO.P,C9,1*%
%TO.N,+3.3V*%
X122850000Y-105675000D03*
%TO.P,C9,2*%
%TO.N,GND*%
X122850000Y-108625000D03*
%TD*%
D18*
%TO.P,D3,1,K*%
%TO.N,Net-(D3-K)*%
X116800000Y-93725000D03*
%TO.P,D3,2,A*%
%TO.N,GND*%
X116800000Y-89425000D03*
%TD*%
D19*
%TO.P,C1,2*%
%TO.N,GND*%
X135400000Y-89700000D03*
%TO.P,C1,1*%
%TO.N,+12V*%
X135400000Y-98500000D03*
%TD*%
D20*
%TO.P,C4,1*%
%TO.N,+3.3V*%
X104150000Y-82250000D03*
%TO.P,C4,2*%
%TO.N,GND*%
X112950000Y-82250000D03*
%TD*%
D21*
%TO.P,L1,1,1*%
%TO.N,Net-(D3-K)*%
X111850000Y-96950000D03*
%TO.P,L1,2,2*%
%TO.N,+3.3V*%
X101750000Y-96950000D03*
%TD*%
D14*
%TO.P,C8,1*%
%TO.N,+3.3V*%
X109275000Y-124375000D03*
%TO.P,C8,2*%
%TO.N,GND*%
X109275000Y-121425000D03*
%TD*%
D17*
%TO.P,C15,1*%
%TO.N,Net-(U1-PF1)*%
X103500000Y-113500000D03*
%TO.P,C15,2*%
%TO.N,GND*%
X103500000Y-116450000D03*
%TD*%
D22*
%TO.P,U1,1,VBAT*%
%TO.N,+3.3V*%
X109275000Y-110825000D03*
%TO.P,U1,2,PC13*%
%TO.N,unconnected-(U1-PC13-Pad2)*%
X109275000Y-111325000D03*
%TO.P,U1,3,PC14*%
%TO.N,unconnected-(U1-PC14-Pad3)*%
X109275000Y-111825000D03*
%TO.P,U1,4,PC15*%
%TO.N,unconnected-(U1-PC15-Pad4)*%
X109275000Y-112325000D03*
%TO.P,U1,5,PF0*%
%TO.N,Net-(U1-PF0)*%
X109275000Y-112825000D03*
%TO.P,U1,6,PF1*%
%TO.N,Net-(U1-PF1)*%
X109275000Y-113325000D03*
%TO.P,U1,7,NRST*%
%TO.N,unconnected-(U1-NRST-Pad7)*%
X109275000Y-113825000D03*
%TO.P,U1,8,PC0*%
%TO.N,unconnected-(U1-PC0-Pad8)*%
X109275000Y-114325000D03*
%TO.P,U1,9,PC1*%
%TO.N,unconnected-(U1-PC1-Pad9)*%
X109275000Y-114825000D03*
%TO.P,U1,10,PC2*%
%TO.N,unconnected-(U1-PC2-Pad10)*%
X109275000Y-115325000D03*
%TO.P,U1,11,PC3*%
%TO.N,unconnected-(U1-PC3-Pad11)*%
X109275000Y-115825000D03*
%TO.P,U1,12,VSSA*%
%TO.N,GND*%
X109275000Y-116325000D03*
%TO.P,U1,13,VDDA*%
%TO.N,+3.3VA*%
X109275000Y-116825000D03*
%TO.P,U1,14,PA0*%
%TO.N,unconnected-(U1-PA0-Pad14)*%
X109275000Y-117325000D03*
%TO.P,U1,15,PA1*%
%TO.N,unconnected-(U1-PA1-Pad15)*%
X109275000Y-117825000D03*
%TO.P,U1,16,PA2*%
%TO.N,unconnected-(U1-PA2-Pad16)*%
X109275000Y-118325000D03*
D23*
%TO.P,U1,17,PA3*%
%TO.N,unconnected-(U1-PA3-Pad17)*%
X111200000Y-120250000D03*
%TO.P,U1,18,PF4*%
%TO.N,unconnected-(U1-PF4-Pad18)*%
X111700000Y-120250000D03*
%TO.P,U1,19,VDD*%
%TO.N,+3.3V*%
X112200000Y-120250000D03*
%TO.P,U1,20,PA4*%
%TO.N,DIR1*%
X112700000Y-120250000D03*
%TO.P,U1,21,PA5*%
%TO.N,PWM1*%
X113200000Y-120250000D03*
%TO.P,U1,22,PA6*%
%TO.N,DIR2*%
X113700000Y-120250000D03*
%TO.P,U1,23,PA7*%
%TO.N,PWM2*%
X114200000Y-120250000D03*
%TO.P,U1,24,PC4*%
%TO.N,Right ADC*%
X114700000Y-120250000D03*
%TO.P,U1,25,PC5*%
%TO.N,Left ADC*%
X115200000Y-120250000D03*
%TO.P,U1,26,PB0*%
%TO.N,unconnected-(U1-PB0-Pad26)*%
X115700000Y-120250000D03*
%TO.P,U1,27,PB1*%
%TO.N,unconnected-(U1-PB1-Pad27)*%
X116200000Y-120250000D03*
%TO.P,U1,28,PB2*%
%TO.N,unconnected-(U1-PB2-Pad28)*%
X116700000Y-120250000D03*
%TO.P,U1,29,PB10*%
%TO.N,unconnected-(U1-PB10-Pad29)*%
X117200000Y-120250000D03*
%TO.P,U1,30,PB11*%
%TO.N,unconnected-(U1-PB11-Pad30)*%
X117700000Y-120250000D03*
%TO.P,U1,31,VSS*%
%TO.N,GND*%
X118200000Y-120250000D03*
%TO.P,U1,32,VDD*%
%TO.N,+3.3V*%
X118700000Y-120250000D03*
D22*
%TO.P,U1,33,PB12*%
%TO.N,unconnected-(U1-PB12-Pad33)*%
X120625000Y-118325000D03*
%TO.P,U1,34,PB13*%
%TO.N,unconnected-(U1-PB13-Pad34)*%
X120625000Y-117825000D03*
%TO.P,U1,35,PB14*%
%TO.N,unconnected-(U1-PB14-Pad35)*%
X120625000Y-117325000D03*
%TO.P,U1,36,PB15*%
%TO.N,unconnected-(U1-PB15-Pad36)*%
X120625000Y-116825000D03*
%TO.P,U1,37,PC6*%
%TO.N,unconnected-(U1-PC6-Pad37)*%
X120625000Y-116325000D03*
%TO.P,U1,38,PC7*%
%TO.N,unconnected-(U1-PC7-Pad38)*%
X120625000Y-115825000D03*
%TO.P,U1,39,PC8*%
%TO.N,unconnected-(U1-PC8-Pad39)*%
X120625000Y-115325000D03*
%TO.P,U1,40,PC9*%
%TO.N,unconnected-(U1-PC9-Pad40)*%
X120625000Y-114825000D03*
%TO.P,U1,41,PA8*%
%TO.N,unconnected-(U1-PA8-Pad41)*%
X120625000Y-114325000D03*
%TO.P,U1,42,PA9*%
%TO.N,unconnected-(U1-PA9-Pad42)*%
X120625000Y-113825000D03*
%TO.P,U1,43,PA10*%
%TO.N,unconnected-(U1-PA10-Pad43)*%
X120625000Y-113325000D03*
%TO.P,U1,44,PA11*%
%TO.N,CAN_RX*%
X120625000Y-112825000D03*
%TO.P,U1,45,PA12*%
%TO.N,CAN_TX*%
X120625000Y-112325000D03*
%TO.P,U1,46,PA13*%
%TO.N,SWDIO*%
X120625000Y-111825000D03*
%TO.P,U1,47,VSS*%
%TO.N,GND*%
X120625000Y-111325000D03*
%TO.P,U1,48,VDD*%
%TO.N,+3.3V*%
X120625000Y-110825000D03*
D23*
%TO.P,U1,49,PA14*%
%TO.N,SWCLK*%
X118700000Y-108900000D03*
%TO.P,U1,50,PA15*%
%TO.N,unconnected-(U1-PA15-Pad50)*%
X118200000Y-108900000D03*
%TO.P,U1,51,PC10*%
%TO.N,unconnected-(U1-PC10-Pad51)*%
X117700000Y-108900000D03*
%TO.P,U1,52,PC11*%
%TO.N,unconnected-(U1-PC11-Pad52)*%
X117200000Y-108900000D03*
%TO.P,U1,53,PC12*%
%TO.N,unconnected-(U1-PC12-Pad53)*%
X116700000Y-108900000D03*
%TO.P,U1,54,PD2*%
%TO.N,unconnected-(U1-PD2-Pad54)*%
X116200000Y-108900000D03*
%TO.P,U1,55,PB3*%
%TO.N,unconnected-(U1-PB3-Pad55)*%
X115700000Y-108900000D03*
%TO.P,U1,56,PB4*%
%TO.N,unconnected-(U1-PB4-Pad56)*%
X115200000Y-108900000D03*
%TO.P,U1,57,PB5*%
%TO.N,unconnected-(U1-PB5-Pad57)*%
X114700000Y-108900000D03*
%TO.P,U1,58,PB6*%
%TO.N,unconnected-(U1-PB6-Pad58)*%
X114200000Y-108900000D03*
%TO.P,U1,59,PB7*%
%TO.N,unconnected-(U1-PB7-Pad59)*%
X113700000Y-108900000D03*
%TO.P,U1,60,BOOT0*%
%TO.N,Net-(U1-BOOT0)*%
X113200000Y-108900000D03*
%TO.P,U1,61,PB8*%
%TO.N,unconnected-(U1-PB8-Pad61)*%
X112700000Y-108900000D03*
%TO.P,U1,62,PB9*%
%TO.N,unconnected-(U1-PB9-Pad62)*%
X112200000Y-108900000D03*
%TO.P,U1,63,VSS*%
%TO.N,GND*%
X111700000Y-108900000D03*
%TO.P,U1,64,VDD*%
%TO.N,+3.3V*%
X111200000Y-108900000D03*
%TD*%
D14*
%TO.P,C13,1*%
%TO.N,+3.3VA*%
X106500000Y-118450000D03*
%TO.P,C13,2*%
%TO.N,GND*%
X106500000Y-115500000D03*
%TD*%
D24*
%TO.P,R3,2*%
%TO.N,GND*%
X120250000Y-101182500D03*
%TO.P,R3,1*%
%TO.N,Net-(U2-Feedback)*%
X120250000Y-98257500D03*
%TD*%
D25*
%TO.P,C5,1*%
%TO.N,+3.3V*%
X110475000Y-89200000D03*
%TO.P,C5,2*%
%TO.N,GND*%
X113425000Y-89200000D03*
%TD*%
D14*
%TO.P,C7,1*%
%TO.N,+3.3V*%
X100100000Y-124600000D03*
%TO.P,C7,2*%
%TO.N,GND*%
X100100000Y-121650000D03*
%TD*%
D26*
%TO.P,D2,1,K*%
%TO.N,Net-(D2-K)*%
X98550000Y-85050000D03*
%TO.P,D2,2,A*%
%TO.N,+3.3V*%
X98550000Y-82250000D03*
%TD*%
D27*
%TO.P,R4,1*%
%TO.N,Net-(D2-K)*%
X95550000Y-85175000D03*
%TO.P,R4,2*%
%TO.N,GND*%
X95550000Y-82250000D03*
%TD*%
D25*
%TO.P,C11,1*%
%TO.N,+3.3V*%
X111875000Y-106250000D03*
%TO.P,C11,2*%
%TO.N,GND*%
X114825000Y-106250000D03*
%TD*%
D28*
%TO.P,Y1,1,1*%
%TO.N,Net-(U1-PF0)*%
X99500000Y-109000000D03*
%TO.P,Y1,2,2*%
%TO.N,Net-(U1-PF1)*%
X99500000Y-117500000D03*
%TD*%
D17*
%TO.P,C12,1*%
%TO.N,+3.3VA*%
X106500000Y-121450000D03*
%TO.P,C12,2*%
%TO.N,GND*%
X106500000Y-124400000D03*
%TD*%
D29*
%TO.P,L2,1,1*%
%TO.N,+3.3V*%
X103300000Y-124600000D03*
%TO.P,L2,2,2*%
%TO.N,+3.3VA*%
X103300000Y-121450000D03*
%TD*%
D30*
%TO.P,J2,1,Pin_1*%
%TO.N,DIR1*%
X87925000Y-113560000D03*
D31*
%TO.P,J2,2,Pin_2*%
%TO.N,PWM1*%
X87925000Y-108480000D03*
%TO.P,J2,3,Pin_3*%
%TO.N,DIR2*%
X87925000Y-103400000D03*
%TO.P,J2,4,Pin_4*%
%TO.N,PWM2*%
X87925000Y-98320000D03*
%TO.P,J2,5,Pin_5*%
%TO.N,GND*%
X87925000Y-93240000D03*
%TD*%
D27*
%TO.P,R2,2*%
%TO.N,Net-(U2-Feedback)*%
X114540000Y-97057500D03*
%TO.P,R2,1*%
%TO.N,+3.3V*%
X114540000Y-99982500D03*
%TD*%
D17*
%TO.P,C10,1*%
%TO.N,+3.3V*%
X121500000Y-120000000D03*
%TO.P,C10,2*%
%TO.N,GND*%
X121500000Y-122950000D03*
%TD*%
D30*
%TO.P,J4,1,Pin_1*%
%TO.N,+3.3V*%
X100000000Y-128000000D03*
D31*
%TO.P,J4,2,Pin_2*%
%TO.N,Right ADC*%
X94920000Y-128000000D03*
%TO.P,J4,3,Pin_3*%
%TO.N,GND*%
X89840000Y-128000000D03*
%TD*%
D17*
%TO.P,C2,1*%
%TO.N,+12V*%
X135400000Y-103400000D03*
%TO.P,C2,2*%
%TO.N,GND*%
X135400000Y-106350000D03*
%TD*%
D14*
%TO.P,C3,1*%
%TO.N,+12V*%
X128200000Y-98500000D03*
%TO.P,C3,2*%
%TO.N,Net-(U2-Enable)*%
X128200000Y-95550000D03*
%TD*%
D32*
%TO.P,U3,1,D*%
%TO.N,CAN_TX*%
X125460000Y-114450000D03*
%TO.P,U3,2,GND*%
%TO.N,GND*%
X126730000Y-114450000D03*
%TO.P,U3,3,VCC*%
%TO.N,+3.3V*%
X128000000Y-114450000D03*
%TO.P,U3,4,R*%
%TO.N,CAN_RX*%
X129270000Y-114450000D03*
%TO.P,U3,5,Vref*%
%TO.N,unconnected-(U3-Vref-Pad5)*%
X129270000Y-109500000D03*
%TO.P,U3,6,CANL*%
%TO.N,/CAN-*%
X128000000Y-109500000D03*
%TO.P,U3,7,CANH*%
%TO.N,/CAN+*%
X126730000Y-109500000D03*
%TO.P,U3,8,Rs*%
%TO.N,GND*%
X125460000Y-109500000D03*
%TD*%
D30*
%TO.P,J3,1,Pin_1*%
%TO.N,+3.3V*%
X124300000Y-128000000D03*
D31*
%TO.P,J3,2,Pin_2*%
%TO.N,Left ADC*%
X129380000Y-128000000D03*
%TO.P,J3,3,Pin_3*%
%TO.N,GND*%
X134460000Y-128000000D03*
%TD*%
D27*
%TO.P,R1,1*%
%TO.N,Net-(U2-Enable)*%
X128200000Y-92625000D03*
%TO.P,R1,2*%
%TO.N,GND*%
X128200000Y-89700000D03*
%TD*%
D32*
%TO.P,U2,1,Input*%
%TO.N,+12V*%
X120890000Y-94650000D03*
%TO.P,U2,2,SW_Output*%
%TO.N,Net-(D3-K)*%
X122160000Y-94650000D03*
%TO.P,U2,3,Feedback*%
%TO.N,Net-(U2-Feedback)*%
X123430000Y-94650000D03*
%TO.P,U2,4,Enable*%
%TO.N,Net-(U2-Enable)*%
X124700000Y-94650000D03*
%TO.P,U2,5,GND*%
%TO.N,GND*%
X124700000Y-89700000D03*
%TO.P,U2,6,GND*%
X123430000Y-89700000D03*
%TO.P,U2,7,GND*%
X122160000Y-89700000D03*
%TO.P,U2,8,GND*%
X120890000Y-89700000D03*
%TD*%
D33*
%TO.N,GND*%
X103660000Y-105500000D03*
X127800000Y-86970000D03*
X126370000Y-87680000D03*
X132050000Y-87610000D03*
X117540000Y-83700000D03*
X115040000Y-85190000D03*
X116880000Y-86150000D03*
%TO.N,Net-(U2-Feedback)*%
X120250000Y-96990000D03*
%TO.N,GND*%
X119850000Y-108050000D03*
X109160000Y-103740000D03*
X124300000Y-117100000D03*
%TO.N,SWCLK*%
X137300000Y-110900000D03*
X118700000Y-110900000D03*
%TO.N,GND*%
X125500000Y-107600000D03*
%TO.N,CAN_RX*%
X122550000Y-113550000D03*
X130700000Y-113550000D03*
%TO.N,GND*%
X130975000Y-87600000D03*
X121500000Y-124450000D03*
X95500000Y-80862500D03*
X106500000Y-114125000D03*
X126370000Y-86925000D03*
X134460000Y-125065000D03*
X114820000Y-104560000D03*
X124625000Y-106500000D03*
X123400000Y-87650000D03*
X116325000Y-83675000D03*
X108625000Y-119900000D03*
X98250000Y-121650000D03*
X103500000Y-118000000D03*
X117850000Y-85175000D03*
X120825000Y-87650000D03*
X124775000Y-87650000D03*
X122150000Y-87650000D03*
X118575000Y-86375000D03*
X133125000Y-87600000D03*
X128990000Y-87000000D03*
X106025000Y-125950000D03*
X116325000Y-85175000D03*
X119400000Y-87425000D03*
X89875000Y-125325000D03*
X117425000Y-87250000D03*
X121800000Y-102450000D03*
%TO.N,Net-(U2-Feedback)*%
X123420000Y-97020000D03*
%TO.N,DIR2*%
X113875000Y-113150000D03*
%TO.N,PWM1*%
X112500000Y-115200000D03*
%TO.N,PWM2*%
X115025000Y-111050000D03*
%TO.N,DIR1*%
X111950000Y-117700000D03*
%TO.N,Left ADC*%
X125775000Y-121875000D03*
X115935940Y-121864060D03*
%TO.N,Right ADC*%
X113662500Y-123137500D03*
X95000000Y-125375000D03*
%TD*%
D34*
%TO.N,Net-(U2-Feedback)*%
X117182500Y-97057500D02*
X117200000Y-97075000D01*
X114540000Y-97057500D02*
X117182500Y-97057500D01*
X117687500Y-98257500D02*
X120250000Y-98257500D01*
X117200000Y-97075000D02*
X117200000Y-97770000D01*
X117200000Y-97770000D02*
X117687500Y-98257500D01*
%TO.N,SWDIO*%
X141700000Y-120500000D02*
X139730000Y-120500000D01*
X139730000Y-120500000D02*
X131055000Y-111825000D01*
X131055000Y-111825000D02*
X120625000Y-111825000D01*
%TO.N,SWCLK*%
X137300000Y-114190000D02*
X141180000Y-118070000D01*
X137300000Y-110900000D02*
X137300000Y-114190000D01*
D35*
%TO.N,GND*%
X103670000Y-107000000D02*
X103670000Y-105510000D01*
X103670000Y-105510000D02*
X103660000Y-105500000D01*
D34*
%TO.N,Net-(U1-PF0)*%
X100540000Y-110040000D02*
X99500000Y-109000000D01*
X105220000Y-110040000D02*
X100540000Y-110040000D01*
X108005000Y-112825000D02*
X105220000Y-110040000D01*
X109275000Y-112825000D02*
X108005000Y-112825000D01*
D35*
%TO.N,GND*%
X114825000Y-104565000D02*
X114825000Y-106250000D01*
X114820000Y-104560000D02*
X114825000Y-104565000D01*
D34*
%TO.N,Net-(U1-BOOT0)*%
X116775000Y-103265000D02*
X116775000Y-106280000D01*
X117120000Y-102920000D02*
X116775000Y-103265000D01*
%TO.N,Net-(U2-Feedback)*%
X123430000Y-97010000D02*
X123430000Y-94650000D01*
X123420000Y-97020000D02*
X123430000Y-97010000D01*
X120240000Y-98247500D02*
X120250000Y-98257500D01*
X120240000Y-97000000D02*
X120240000Y-98247500D01*
X120250000Y-96990000D02*
X120240000Y-97000000D01*
D35*
%TO.N,+3.3V*%
X111875000Y-99987500D02*
X111875000Y-106250000D01*
X119328122Y-102195000D02*
X119370000Y-102195000D01*
X118925000Y-101791878D02*
X119328122Y-102195000D01*
X118925000Y-101750000D02*
X118925000Y-101791878D01*
X117157500Y-99982500D02*
X118925000Y-101750000D01*
X103600000Y-96950000D02*
X106632500Y-99982500D01*
X101750000Y-96950000D02*
X103600000Y-96950000D01*
X106632500Y-99982500D02*
X117157500Y-99982500D01*
X119370000Y-102195000D02*
X122850000Y-105675000D01*
%TO.N,Net-(D3-K)*%
X122160000Y-94650000D02*
X122160000Y-93660000D01*
X121200000Y-92700000D02*
X117300000Y-92700000D01*
X122160000Y-93660000D02*
X121200000Y-92700000D01*
X117300000Y-92700000D02*
X116800000Y-93200000D01*
X116800000Y-93200000D02*
X116800000Y-94100000D01*
X111850000Y-95340000D02*
X111850000Y-96950000D01*
X113490000Y-93700000D02*
X111850000Y-95340000D01*
X116800000Y-93700000D02*
X113490000Y-93700000D01*
%TO.N,+3.3V*%
X109140000Y-106890000D02*
X109705000Y-106325000D01*
X109140000Y-107950000D02*
X109140000Y-106890000D01*
X109705000Y-106325000D02*
X111800000Y-106325000D01*
X111800000Y-106325000D02*
X111875000Y-106250000D01*
D34*
X109140000Y-110690000D02*
X109275000Y-110825000D01*
X109140000Y-107950000D02*
X109140000Y-110690000D01*
D35*
%TO.N,GND*%
X109150000Y-103750000D02*
X109150000Y-105300000D01*
X109160000Y-103740000D02*
X109150000Y-103750000D01*
D34*
%TO.N,+3.3V*%
X111875000Y-106805000D02*
X111875000Y-106250000D01*
X111200000Y-107480000D02*
X111875000Y-106805000D01*
X111200000Y-108900000D02*
X111200000Y-107480000D01*
%TO.N,GND*%
X112111880Y-107610000D02*
X112490000Y-107610000D01*
X111700000Y-108021880D02*
X112111880Y-107610000D01*
X112490000Y-107610000D02*
X113850000Y-106250000D01*
X111700000Y-108900000D02*
X111700000Y-108021880D01*
X113850000Y-106250000D02*
X114825000Y-106250000D01*
%TO.N,Net-(U1-BOOT0)*%
X116775000Y-106285000D02*
X116775000Y-106280000D01*
X113671880Y-107550000D02*
X115510000Y-107550000D01*
X113200000Y-108021880D02*
X113671880Y-107550000D01*
X113200000Y-108900000D02*
X113200000Y-108021880D01*
X115510000Y-107550000D02*
X116775000Y-106285000D01*
D35*
%TO.N,+12V*%
X123110000Y-98500000D02*
X128200000Y-98500000D01*
X120890000Y-96280000D02*
X123110000Y-98500000D01*
X120890000Y-95150000D02*
X120890000Y-96280000D01*
%TO.N,GND*%
X119700000Y-101225000D02*
X120575000Y-101225000D01*
X120575000Y-101225000D02*
X121800000Y-102450000D01*
X119850000Y-106487500D02*
X119850000Y-107950000D01*
X119662500Y-106300000D02*
X119850000Y-106487500D01*
%TO.N,Net-(D2-K)*%
X95575000Y-85150000D02*
X95550000Y-85175000D01*
X98450000Y-85150000D02*
X95575000Y-85150000D01*
%TO.N,+3.3V*%
X104000000Y-82300000D02*
X98600000Y-82300000D01*
X104000000Y-91650000D02*
X104000000Y-82300000D01*
X101800000Y-93850000D02*
X104000000Y-91650000D01*
X101800000Y-95700000D02*
X101800000Y-93850000D01*
X98050000Y-124550000D02*
X100100000Y-124550000D01*
X94875000Y-101925000D02*
X94875000Y-121375000D01*
X99850000Y-96950000D02*
X94875000Y-101925000D01*
X101750000Y-96950000D02*
X99850000Y-96950000D01*
X94875000Y-121375000D02*
X98050000Y-124550000D01*
X110475000Y-89200000D02*
X104000000Y-89200000D01*
X131800000Y-120000000D02*
X127800000Y-120000000D01*
X134900000Y-123100000D02*
X131800000Y-120000000D01*
X141600000Y-123100000D02*
X134900000Y-123100000D01*
X141700000Y-123000000D02*
X141600000Y-123100000D01*
D34*
%TO.N,CAN_RX*%
X130220000Y-113500000D02*
X129270000Y-114450000D01*
X130700000Y-113500000D02*
X130220000Y-113500000D01*
%TO.N,PWM1*%
X112500000Y-115200000D02*
X113200000Y-115900000D01*
X113200000Y-115900000D02*
X113200000Y-120250000D01*
%TO.N,SWCLK*%
X118700000Y-110900000D02*
X118700000Y-108900000D01*
%TO.N,CAN_TX*%
X122525000Y-112325000D02*
X124650000Y-114450000D01*
X120625000Y-112325000D02*
X122525000Y-112325000D01*
X124650000Y-114450000D02*
X125460000Y-114450000D01*
%TO.N,+3.3V*%
X122850000Y-106250000D02*
X122850000Y-105675000D01*
X120625000Y-108475000D02*
X122850000Y-106250000D01*
X120625000Y-110825000D02*
X120625000Y-108475000D01*
D35*
%TO.N,GND*%
X125400000Y-117100000D02*
X124300000Y-117100000D01*
X125725000Y-117100000D02*
X125400000Y-117100000D01*
%TO.N,+3.3V*%
X128675000Y-119925000D02*
X128600000Y-120000000D01*
X128675000Y-117100000D02*
X128675000Y-119925000D01*
X128600000Y-120000000D02*
X127800000Y-120000000D01*
%TO.N,GND*%
X125500000Y-107600000D02*
X125460000Y-107640000D01*
X125460000Y-109500000D02*
X125500000Y-107600000D01*
D34*
%TO.N,CAN_RX*%
X122550000Y-113550000D02*
X121825000Y-112825000D01*
X121825000Y-112825000D02*
X120625000Y-112825000D01*
D35*
%TO.N,+3.3V*%
X128000000Y-116425000D02*
X128675000Y-117100000D01*
X128000000Y-114450000D02*
X128000000Y-116425000D01*
%TO.N,GND*%
X126730000Y-116095000D02*
X125725000Y-117100000D01*
X126730000Y-114450000D02*
X126730000Y-116095000D01*
%TO.N,+3.3V*%
X127800000Y-120000000D02*
X124200000Y-120000000D01*
D36*
%TO.N,+12V*%
X135400000Y-98500000D02*
X128200000Y-98500000D01*
X135400000Y-103400000D02*
X135400000Y-98500000D01*
X132300000Y-103400000D02*
X135400000Y-103400000D01*
D35*
%TO.N,GND*%
X89840000Y-128000000D02*
X89840000Y-125360000D01*
X95500000Y-82237500D02*
X95500000Y-80862500D01*
D36*
X132950000Y-106350000D02*
X132500000Y-105900000D01*
D35*
X108625000Y-119900000D02*
X108625000Y-119875000D01*
X122850000Y-108625000D02*
X122850000Y-108275000D01*
X106050000Y-125950000D02*
X106025000Y-125950000D01*
X121500000Y-122950000D02*
X121500000Y-124450000D01*
D34*
X118200000Y-120250000D02*
X118200000Y-121128120D01*
X109275000Y-116325000D02*
X107325000Y-116325000D01*
X122850000Y-110300000D02*
X122850000Y-108625000D01*
D35*
X89840000Y-125360000D02*
X89875000Y-125325000D01*
X106500000Y-115500000D02*
X106500000Y-114125000D01*
X122850000Y-108275000D02*
X124625000Y-106500000D01*
X106500000Y-124400000D02*
X106500000Y-125500000D01*
D36*
X132500000Y-105900000D02*
X129800000Y-105900000D01*
D34*
X118200000Y-121128120D02*
X120021880Y-122950000D01*
X121825000Y-111325000D02*
X122850000Y-110300000D01*
X107325000Y-116325000D02*
X106500000Y-115500000D01*
D35*
X106025000Y-125950000D02*
X106025000Y-125975000D01*
D34*
X103625000Y-116325000D02*
X103500000Y-116450000D01*
D35*
X134460000Y-125065000D02*
X134460000Y-128000000D01*
X106500000Y-125500000D02*
X106050000Y-125950000D01*
X109275000Y-121425000D02*
X108625000Y-120775000D01*
D34*
X120021880Y-122950000D02*
X121500000Y-122950000D01*
X120625000Y-111325000D02*
X121825000Y-111325000D01*
D35*
X98250000Y-121650000D02*
X100100000Y-121650000D01*
X106025000Y-125975000D02*
X106075000Y-125925000D01*
X108625000Y-120775000D02*
X108625000Y-119900000D01*
D36*
X135400000Y-106350000D02*
X132950000Y-106350000D01*
D34*
X103500000Y-116450000D02*
X103500000Y-118000000D01*
D35*
%TO.N,Net-(U2-Enable)*%
X125750000Y-94100000D02*
X124700000Y-95150000D01*
X128200000Y-94100000D02*
X125750000Y-94100000D01*
X128200000Y-95550000D02*
X128200000Y-92625000D01*
%TO.N,+3.3V*%
X100300000Y-128300000D02*
X124000000Y-128300000D01*
X124300000Y-120100000D02*
X124200000Y-120000000D01*
D34*
X111125000Y-122700000D02*
X110125000Y-122700000D01*
X109275000Y-123550000D02*
X109275000Y-124375000D01*
D35*
X124300000Y-127100000D02*
X124250000Y-127050000D01*
D34*
X121250000Y-120250000D02*
X121500000Y-120000000D01*
D35*
X109275000Y-128275000D02*
X109275000Y-124375000D01*
X100100000Y-124600000D02*
X103300000Y-124600000D01*
X124200000Y-120000000D02*
X121500000Y-120000000D01*
D34*
X118700000Y-120250000D02*
X121250000Y-120250000D01*
D35*
X124300000Y-128000000D02*
X124300000Y-120100000D01*
D34*
X112200000Y-120250000D02*
X112200000Y-121625000D01*
X110125000Y-122700000D02*
X109275000Y-123550000D01*
D35*
X100100000Y-124600000D02*
X100100000Y-127475000D01*
D34*
X112200000Y-121625000D02*
X111125000Y-122700000D01*
D35*
X124300000Y-128000000D02*
X124300000Y-127100000D01*
X100000000Y-128000000D02*
X100300000Y-128300000D01*
X124000000Y-128300000D02*
X124300000Y-128000000D01*
%TO.N,GND*%
X119987500Y-101012500D02*
X120000000Y-101000000D01*
D34*
%TO.N,+3.3VA*%
X106500000Y-117500000D02*
X106500000Y-118450000D01*
X107175000Y-116825000D02*
X106500000Y-117500000D01*
D35*
X106500000Y-121450000D02*
X103300000Y-121450000D01*
X106500000Y-121450000D02*
X106500000Y-118450000D01*
D34*
X109275000Y-116825000D02*
X107175000Y-116825000D01*
%TO.N,Net-(U1-PF0)*%
X99500000Y-110450000D02*
X99500000Y-109000000D01*
%TO.N,Net-(U1-PF1)*%
X109275000Y-113325000D02*
X103675000Y-113325000D01*
X103675000Y-113325000D02*
X103500000Y-113500000D01*
X103500000Y-113500000D02*
X99500000Y-117500000D01*
%TO.N,DIR2*%
X114075000Y-118789774D02*
X113700000Y-119164774D01*
X113700000Y-119164774D02*
X113700000Y-120250000D01*
X113875000Y-113150000D02*
X114075000Y-113350000D01*
X114075000Y-113350000D02*
X114075000Y-118789774D01*
%TO.N,PWM2*%
X115000000Y-118571880D02*
X114200000Y-119371880D01*
X114200000Y-119371880D02*
X114200000Y-120250000D01*
X115000000Y-111075000D02*
X115000000Y-118571880D01*
X115025000Y-111050000D02*
X115000000Y-111075000D01*
%TO.N,DIR1*%
X112700000Y-118450000D02*
X112700000Y-120250000D01*
X111950000Y-117700000D02*
X112700000Y-118450000D01*
%TO.N,Left ADC*%
X129380000Y-125380000D02*
X129380000Y-128000000D01*
X115935940Y-121864060D02*
X115200000Y-121128120D01*
X125875000Y-121875000D02*
X129380000Y-125380000D01*
X115200000Y-121128120D02*
X115200000Y-120250000D01*
X125775000Y-121875000D02*
X125875000Y-121875000D01*
%TO.N,Right ADC*%
X113662500Y-123137500D02*
X114700000Y-122100000D01*
X95000000Y-125375000D02*
X95000000Y-127920000D01*
X114700000Y-122100000D02*
X114700000Y-120250000D01*
X95000000Y-127920000D02*
X94920000Y-128000000D01*
D37*
%TO.N,/CAN+*%
X126730000Y-108037499D02*
X127140000Y-107627499D01*
X127140000Y-105423603D02*
X127300000Y-105263603D01*
X127300000Y-105263603D02*
X127300000Y-103400000D01*
X126730000Y-109500000D02*
X126730000Y-108037499D01*
X127140000Y-107627499D02*
X127140000Y-105423603D01*
%TO.N,/CAN-*%
X127590000Y-107627499D02*
X127590000Y-105610000D01*
X128000000Y-109500000D02*
X128000000Y-108037499D01*
X128000000Y-108037499D02*
X127590000Y-107627499D01*
X127590000Y-105610000D02*
X129800000Y-103400000D01*
%TD*%
%TA.AperFunction,Conductor*%
%TO.N,GND*%
G36*
X116507941Y-80744685D02*
G01*
X116537220Y-80770905D01*
X119952409Y-84982971D01*
X121000000Y-86275000D01*
X136926193Y-86299807D01*
X136993202Y-86319596D01*
X137038874Y-86372471D01*
X137050000Y-86423807D01*
X137050000Y-92426000D01*
X137030315Y-92493039D01*
X136977511Y-92538794D01*
X136926000Y-92550000D01*
X133677520Y-92550000D01*
X133610481Y-92530315D01*
X133588458Y-92512279D01*
X133323602Y-92238880D01*
X132075000Y-90950000D01*
X132074998Y-90950000D01*
X132074998Y-90949999D01*
X115346505Y-90974967D01*
X115304740Y-90967788D01*
X114292746Y-90607587D01*
X113850000Y-90450000D01*
X113849999Y-90450000D01*
X112372954Y-90450000D01*
X112305915Y-90430315D01*
X112260160Y-90377511D01*
X112248958Y-90327051D01*
X112225000Y-87500000D01*
X110349567Y-84982971D01*
X110325296Y-84917452D01*
X110325000Y-84908883D01*
X110325000Y-80849000D01*
X110344685Y-80781961D01*
X110397489Y-80736206D01*
X110449000Y-80725000D01*
X116440902Y-80725000D01*
X116507941Y-80744685D01*
G37*
%TD.AperFunction*%
%TD*%
M02*
