%TF.GenerationSoftware,KiCad,Pcbnew,8.0.1*%
%TF.CreationDate,2025-05-19T10:21:45+02:00*%
%TF.ProjectId,stm32f103 board,73746d33-3266-4313-9033-20626f617264,rev?*%
%TF.SameCoordinates,Original*%
%TF.FileFunction,Legend,Top*%
%TF.FilePolarity,Positive*%
%FSLAX46Y46*%
G04 Gerber Fmt 4.6, Leading zero omitted, Abs format (unit mm)*
G04 Created by KiCad (PCBNEW 8.0.1) date 2025-05-19 10:21:45*
%MOMM*%
%LPD*%
G01*
G04 APERTURE LIST*
%ADD10C,0.150000*%
%ADD11C,0.100000*%
%ADD12C,0.120000*%
G04 APERTURE END LIST*
D10*
X119913333Y-104994819D02*
X119580000Y-104518628D01*
X119341905Y-104994819D02*
X119341905Y-103994819D01*
X119341905Y-103994819D02*
X119722857Y-103994819D01*
X119722857Y-103994819D02*
X119818095Y-104042438D01*
X119818095Y-104042438D02*
X119865714Y-104090057D01*
X119865714Y-104090057D02*
X119913333Y-104185295D01*
X119913333Y-104185295D02*
X119913333Y-104328152D01*
X119913333Y-104328152D02*
X119865714Y-104423390D01*
X119865714Y-104423390D02*
X119818095Y-104471009D01*
X119818095Y-104471009D02*
X119722857Y-104518628D01*
X119722857Y-104518628D02*
X119341905Y-104518628D01*
X120818095Y-103994819D02*
X120341905Y-103994819D01*
X120341905Y-103994819D02*
X120294286Y-104471009D01*
X120294286Y-104471009D02*
X120341905Y-104423390D01*
X120341905Y-104423390D02*
X120437143Y-104375771D01*
X120437143Y-104375771D02*
X120675238Y-104375771D01*
X120675238Y-104375771D02*
X120770476Y-104423390D01*
X120770476Y-104423390D02*
X120818095Y-104471009D01*
X120818095Y-104471009D02*
X120865714Y-104566247D01*
X120865714Y-104566247D02*
X120865714Y-104804342D01*
X120865714Y-104804342D02*
X120818095Y-104899580D01*
X120818095Y-104899580D02*
X120770476Y-104947200D01*
X120770476Y-104947200D02*
X120675238Y-104994819D01*
X120675238Y-104994819D02*
X120437143Y-104994819D01*
X120437143Y-104994819D02*
X120341905Y-104947200D01*
X120341905Y-104947200D02*
X120294286Y-104899580D01*
X107499580Y-106192857D02*
X107547200Y-106240476D01*
X107547200Y-106240476D02*
X107594819Y-106383333D01*
X107594819Y-106383333D02*
X107594819Y-106478571D01*
X107594819Y-106478571D02*
X107547200Y-106621428D01*
X107547200Y-106621428D02*
X107451961Y-106716666D01*
X107451961Y-106716666D02*
X107356723Y-106764285D01*
X107356723Y-106764285D02*
X107166247Y-106811904D01*
X107166247Y-106811904D02*
X107023390Y-106811904D01*
X107023390Y-106811904D02*
X106832914Y-106764285D01*
X106832914Y-106764285D02*
X106737676Y-106716666D01*
X106737676Y-106716666D02*
X106642438Y-106621428D01*
X106642438Y-106621428D02*
X106594819Y-106478571D01*
X106594819Y-106478571D02*
X106594819Y-106383333D01*
X106594819Y-106383333D02*
X106642438Y-106240476D01*
X106642438Y-106240476D02*
X106690057Y-106192857D01*
X107594819Y-105240476D02*
X107594819Y-105811904D01*
X107594819Y-105526190D02*
X106594819Y-105526190D01*
X106594819Y-105526190D02*
X106737676Y-105621428D01*
X106737676Y-105621428D02*
X106832914Y-105716666D01*
X106832914Y-105716666D02*
X106880533Y-105811904D01*
X106594819Y-104907142D02*
X106594819Y-104240476D01*
X106594819Y-104240476D02*
X107594819Y-104669047D01*
X126557142Y-119309580D02*
X126509523Y-119357200D01*
X126509523Y-119357200D02*
X126366666Y-119404819D01*
X126366666Y-119404819D02*
X126271428Y-119404819D01*
X126271428Y-119404819D02*
X126128571Y-119357200D01*
X126128571Y-119357200D02*
X126033333Y-119261961D01*
X126033333Y-119261961D02*
X125985714Y-119166723D01*
X125985714Y-119166723D02*
X125938095Y-118976247D01*
X125938095Y-118976247D02*
X125938095Y-118833390D01*
X125938095Y-118833390D02*
X125985714Y-118642914D01*
X125985714Y-118642914D02*
X126033333Y-118547676D01*
X126033333Y-118547676D02*
X126128571Y-118452438D01*
X126128571Y-118452438D02*
X126271428Y-118404819D01*
X126271428Y-118404819D02*
X126366666Y-118404819D01*
X126366666Y-118404819D02*
X126509523Y-118452438D01*
X126509523Y-118452438D02*
X126557142Y-118500057D01*
X127509523Y-119404819D02*
X126938095Y-119404819D01*
X127223809Y-119404819D02*
X127223809Y-118404819D01*
X127223809Y-118404819D02*
X127128571Y-118547676D01*
X127128571Y-118547676D02*
X127033333Y-118642914D01*
X127033333Y-118642914D02*
X126938095Y-118690533D01*
X128366666Y-118404819D02*
X128176190Y-118404819D01*
X128176190Y-118404819D02*
X128080952Y-118452438D01*
X128080952Y-118452438D02*
X128033333Y-118500057D01*
X128033333Y-118500057D02*
X127938095Y-118642914D01*
X127938095Y-118642914D02*
X127890476Y-118833390D01*
X127890476Y-118833390D02*
X127890476Y-119214342D01*
X127890476Y-119214342D02*
X127938095Y-119309580D01*
X127938095Y-119309580D02*
X127985714Y-119357200D01*
X127985714Y-119357200D02*
X128080952Y-119404819D01*
X128080952Y-119404819D02*
X128271428Y-119404819D01*
X128271428Y-119404819D02*
X128366666Y-119357200D01*
X128366666Y-119357200D02*
X128414285Y-119309580D01*
X128414285Y-119309580D02*
X128461904Y-119214342D01*
X128461904Y-119214342D02*
X128461904Y-118976247D01*
X128461904Y-118976247D02*
X128414285Y-118881009D01*
X128414285Y-118881009D02*
X128366666Y-118833390D01*
X128366666Y-118833390D02*
X128271428Y-118785771D01*
X128271428Y-118785771D02*
X128080952Y-118785771D01*
X128080952Y-118785771D02*
X127985714Y-118833390D01*
X127985714Y-118833390D02*
X127938095Y-118881009D01*
X127938095Y-118881009D02*
X127890476Y-118976247D01*
X101529580Y-108942857D02*
X101577200Y-108990476D01*
X101577200Y-108990476D02*
X101624819Y-109133333D01*
X101624819Y-109133333D02*
X101624819Y-109228571D01*
X101624819Y-109228571D02*
X101577200Y-109371428D01*
X101577200Y-109371428D02*
X101481961Y-109466666D01*
X101481961Y-109466666D02*
X101386723Y-109514285D01*
X101386723Y-109514285D02*
X101196247Y-109561904D01*
X101196247Y-109561904D02*
X101053390Y-109561904D01*
X101053390Y-109561904D02*
X100862914Y-109514285D01*
X100862914Y-109514285D02*
X100767676Y-109466666D01*
X100767676Y-109466666D02*
X100672438Y-109371428D01*
X100672438Y-109371428D02*
X100624819Y-109228571D01*
X100624819Y-109228571D02*
X100624819Y-109133333D01*
X100624819Y-109133333D02*
X100672438Y-108990476D01*
X100672438Y-108990476D02*
X100720057Y-108942857D01*
X101624819Y-107990476D02*
X101624819Y-108561904D01*
X101624819Y-108276190D02*
X100624819Y-108276190D01*
X100624819Y-108276190D02*
X100767676Y-108371428D01*
X100767676Y-108371428D02*
X100862914Y-108466666D01*
X100862914Y-108466666D02*
X100910533Y-108561904D01*
X100958152Y-107133333D02*
X101624819Y-107133333D01*
X100577200Y-107371428D02*
X101291485Y-107609523D01*
X101291485Y-107609523D02*
X101291485Y-106990476D01*
X119569580Y-96546666D02*
X119617200Y-96594285D01*
X119617200Y-96594285D02*
X119664819Y-96737142D01*
X119664819Y-96737142D02*
X119664819Y-96832380D01*
X119664819Y-96832380D02*
X119617200Y-96975237D01*
X119617200Y-96975237D02*
X119521961Y-97070475D01*
X119521961Y-97070475D02*
X119426723Y-97118094D01*
X119426723Y-97118094D02*
X119236247Y-97165713D01*
X119236247Y-97165713D02*
X119093390Y-97165713D01*
X119093390Y-97165713D02*
X118902914Y-97118094D01*
X118902914Y-97118094D02*
X118807676Y-97070475D01*
X118807676Y-97070475D02*
X118712438Y-96975237D01*
X118712438Y-96975237D02*
X118664819Y-96832380D01*
X118664819Y-96832380D02*
X118664819Y-96737142D01*
X118664819Y-96737142D02*
X118712438Y-96594285D01*
X118712438Y-96594285D02*
X118760057Y-96546666D01*
X118664819Y-95689523D02*
X118664819Y-95879999D01*
X118664819Y-95879999D02*
X118712438Y-95975237D01*
X118712438Y-95975237D02*
X118760057Y-96022856D01*
X118760057Y-96022856D02*
X118902914Y-96118094D01*
X118902914Y-96118094D02*
X119093390Y-96165713D01*
X119093390Y-96165713D02*
X119474342Y-96165713D01*
X119474342Y-96165713D02*
X119569580Y-96118094D01*
X119569580Y-96118094D02*
X119617200Y-96070475D01*
X119617200Y-96070475D02*
X119664819Y-95975237D01*
X119664819Y-95975237D02*
X119664819Y-95784761D01*
X119664819Y-95784761D02*
X119617200Y-95689523D01*
X119617200Y-95689523D02*
X119569580Y-95641904D01*
X119569580Y-95641904D02*
X119474342Y-95594285D01*
X119474342Y-95594285D02*
X119236247Y-95594285D01*
X119236247Y-95594285D02*
X119141009Y-95641904D01*
X119141009Y-95641904D02*
X119093390Y-95689523D01*
X119093390Y-95689523D02*
X119045771Y-95784761D01*
X119045771Y-95784761D02*
X119045771Y-95975237D01*
X119045771Y-95975237D02*
X119093390Y-96070475D01*
X119093390Y-96070475D02*
X119141009Y-96118094D01*
X119141009Y-96118094D02*
X119236247Y-96165713D01*
X122683333Y-104209580D02*
X122635714Y-104257200D01*
X122635714Y-104257200D02*
X122492857Y-104304819D01*
X122492857Y-104304819D02*
X122397619Y-104304819D01*
X122397619Y-104304819D02*
X122254762Y-104257200D01*
X122254762Y-104257200D02*
X122159524Y-104161961D01*
X122159524Y-104161961D02*
X122111905Y-104066723D01*
X122111905Y-104066723D02*
X122064286Y-103876247D01*
X122064286Y-103876247D02*
X122064286Y-103733390D01*
X122064286Y-103733390D02*
X122111905Y-103542914D01*
X122111905Y-103542914D02*
X122159524Y-103447676D01*
X122159524Y-103447676D02*
X122254762Y-103352438D01*
X122254762Y-103352438D02*
X122397619Y-103304819D01*
X122397619Y-103304819D02*
X122492857Y-103304819D01*
X122492857Y-103304819D02*
X122635714Y-103352438D01*
X122635714Y-103352438D02*
X122683333Y-103400057D01*
X123159524Y-104304819D02*
X123350000Y-104304819D01*
X123350000Y-104304819D02*
X123445238Y-104257200D01*
X123445238Y-104257200D02*
X123492857Y-104209580D01*
X123492857Y-104209580D02*
X123588095Y-104066723D01*
X123588095Y-104066723D02*
X123635714Y-103876247D01*
X123635714Y-103876247D02*
X123635714Y-103495295D01*
X123635714Y-103495295D02*
X123588095Y-103400057D01*
X123588095Y-103400057D02*
X123540476Y-103352438D01*
X123540476Y-103352438D02*
X123445238Y-103304819D01*
X123445238Y-103304819D02*
X123254762Y-103304819D01*
X123254762Y-103304819D02*
X123159524Y-103352438D01*
X123159524Y-103352438D02*
X123111905Y-103400057D01*
X123111905Y-103400057D02*
X123064286Y-103495295D01*
X123064286Y-103495295D02*
X123064286Y-103733390D01*
X123064286Y-103733390D02*
X123111905Y-103828628D01*
X123111905Y-103828628D02*
X123159524Y-103876247D01*
X123159524Y-103876247D02*
X123254762Y-103923866D01*
X123254762Y-103923866D02*
X123445238Y-103923866D01*
X123445238Y-103923866D02*
X123540476Y-103876247D01*
X123540476Y-103876247D02*
X123588095Y-103828628D01*
X123588095Y-103828628D02*
X123635714Y-103733390D01*
X114836905Y-87479819D02*
X114836905Y-86479819D01*
X114836905Y-86479819D02*
X115075000Y-86479819D01*
X115075000Y-86479819D02*
X115217857Y-86527438D01*
X115217857Y-86527438D02*
X115313095Y-86622676D01*
X115313095Y-86622676D02*
X115360714Y-86717914D01*
X115360714Y-86717914D02*
X115408333Y-86908390D01*
X115408333Y-86908390D02*
X115408333Y-87051247D01*
X115408333Y-87051247D02*
X115360714Y-87241723D01*
X115360714Y-87241723D02*
X115313095Y-87336961D01*
X115313095Y-87336961D02*
X115217857Y-87432200D01*
X115217857Y-87432200D02*
X115075000Y-87479819D01*
X115075000Y-87479819D02*
X114836905Y-87479819D01*
X115741667Y-86479819D02*
X116360714Y-86479819D01*
X116360714Y-86479819D02*
X116027381Y-86860771D01*
X116027381Y-86860771D02*
X116170238Y-86860771D01*
X116170238Y-86860771D02*
X116265476Y-86908390D01*
X116265476Y-86908390D02*
X116313095Y-86956009D01*
X116313095Y-86956009D02*
X116360714Y-87051247D01*
X116360714Y-87051247D02*
X116360714Y-87289342D01*
X116360714Y-87289342D02*
X116313095Y-87384580D01*
X116313095Y-87384580D02*
X116265476Y-87432200D01*
X116265476Y-87432200D02*
X116170238Y-87479819D01*
X116170238Y-87479819D02*
X115884524Y-87479819D01*
X115884524Y-87479819D02*
X115789286Y-87432200D01*
X115789286Y-87432200D02*
X115741667Y-87384580D01*
X142159580Y-94266666D02*
X142207200Y-94314285D01*
X142207200Y-94314285D02*
X142254819Y-94457142D01*
X142254819Y-94457142D02*
X142254819Y-94552380D01*
X142254819Y-94552380D02*
X142207200Y-94695237D01*
X142207200Y-94695237D02*
X142111961Y-94790475D01*
X142111961Y-94790475D02*
X142016723Y-94838094D01*
X142016723Y-94838094D02*
X141826247Y-94885713D01*
X141826247Y-94885713D02*
X141683390Y-94885713D01*
X141683390Y-94885713D02*
X141492914Y-94838094D01*
X141492914Y-94838094D02*
X141397676Y-94790475D01*
X141397676Y-94790475D02*
X141302438Y-94695237D01*
X141302438Y-94695237D02*
X141254819Y-94552380D01*
X141254819Y-94552380D02*
X141254819Y-94457142D01*
X141254819Y-94457142D02*
X141302438Y-94314285D01*
X141302438Y-94314285D02*
X141350057Y-94266666D01*
X142254819Y-93314285D02*
X142254819Y-93885713D01*
X142254819Y-93599999D02*
X141254819Y-93599999D01*
X141254819Y-93599999D02*
X141397676Y-93695237D01*
X141397676Y-93695237D02*
X141492914Y-93790475D01*
X141492914Y-93790475D02*
X141540533Y-93885713D01*
X115309580Y-78716666D02*
X115357200Y-78764285D01*
X115357200Y-78764285D02*
X115404819Y-78907142D01*
X115404819Y-78907142D02*
X115404819Y-79002380D01*
X115404819Y-79002380D02*
X115357200Y-79145237D01*
X115357200Y-79145237D02*
X115261961Y-79240475D01*
X115261961Y-79240475D02*
X115166723Y-79288094D01*
X115166723Y-79288094D02*
X114976247Y-79335713D01*
X114976247Y-79335713D02*
X114833390Y-79335713D01*
X114833390Y-79335713D02*
X114642914Y-79288094D01*
X114642914Y-79288094D02*
X114547676Y-79240475D01*
X114547676Y-79240475D02*
X114452438Y-79145237D01*
X114452438Y-79145237D02*
X114404819Y-79002380D01*
X114404819Y-79002380D02*
X114404819Y-78907142D01*
X114404819Y-78907142D02*
X114452438Y-78764285D01*
X114452438Y-78764285D02*
X114500057Y-78716666D01*
X114738152Y-77859523D02*
X115404819Y-77859523D01*
X114357200Y-78097618D02*
X115071485Y-78335713D01*
X115071485Y-78335713D02*
X115071485Y-77716666D01*
D11*
X98783333Y-92907419D02*
X98307143Y-92907419D01*
X98307143Y-92907419D02*
X98307143Y-91907419D01*
X99640476Y-92907419D02*
X99069048Y-92907419D01*
X99354762Y-92907419D02*
X99354762Y-91907419D01*
X99354762Y-91907419D02*
X99259524Y-92050276D01*
X99259524Y-92050276D02*
X99164286Y-92145514D01*
X99164286Y-92145514D02*
X99069048Y-92193133D01*
D10*
X109833333Y-126984580D02*
X109785714Y-127032200D01*
X109785714Y-127032200D02*
X109642857Y-127079819D01*
X109642857Y-127079819D02*
X109547619Y-127079819D01*
X109547619Y-127079819D02*
X109404762Y-127032200D01*
X109404762Y-127032200D02*
X109309524Y-126936961D01*
X109309524Y-126936961D02*
X109261905Y-126841723D01*
X109261905Y-126841723D02*
X109214286Y-126651247D01*
X109214286Y-126651247D02*
X109214286Y-126508390D01*
X109214286Y-126508390D02*
X109261905Y-126317914D01*
X109261905Y-126317914D02*
X109309524Y-126222676D01*
X109309524Y-126222676D02*
X109404762Y-126127438D01*
X109404762Y-126127438D02*
X109547619Y-126079819D01*
X109547619Y-126079819D02*
X109642857Y-126079819D01*
X109642857Y-126079819D02*
X109785714Y-126127438D01*
X109785714Y-126127438D02*
X109833333Y-126175057D01*
X110404762Y-126508390D02*
X110309524Y-126460771D01*
X110309524Y-126460771D02*
X110261905Y-126413152D01*
X110261905Y-126413152D02*
X110214286Y-126317914D01*
X110214286Y-126317914D02*
X110214286Y-126270295D01*
X110214286Y-126270295D02*
X110261905Y-126175057D01*
X110261905Y-126175057D02*
X110309524Y-126127438D01*
X110309524Y-126127438D02*
X110404762Y-126079819D01*
X110404762Y-126079819D02*
X110595238Y-126079819D01*
X110595238Y-126079819D02*
X110690476Y-126127438D01*
X110690476Y-126127438D02*
X110738095Y-126175057D01*
X110738095Y-126175057D02*
X110785714Y-126270295D01*
X110785714Y-126270295D02*
X110785714Y-126317914D01*
X110785714Y-126317914D02*
X110738095Y-126413152D01*
X110738095Y-126413152D02*
X110690476Y-126460771D01*
X110690476Y-126460771D02*
X110595238Y-126508390D01*
X110595238Y-126508390D02*
X110404762Y-126508390D01*
X110404762Y-126508390D02*
X110309524Y-126556009D01*
X110309524Y-126556009D02*
X110261905Y-126603628D01*
X110261905Y-126603628D02*
X110214286Y-126698866D01*
X110214286Y-126698866D02*
X110214286Y-126889342D01*
X110214286Y-126889342D02*
X110261905Y-126984580D01*
X110261905Y-126984580D02*
X110309524Y-127032200D01*
X110309524Y-127032200D02*
X110404762Y-127079819D01*
X110404762Y-127079819D02*
X110595238Y-127079819D01*
X110595238Y-127079819D02*
X110690476Y-127032200D01*
X110690476Y-127032200D02*
X110738095Y-126984580D01*
X110738095Y-126984580D02*
X110785714Y-126889342D01*
X110785714Y-126889342D02*
X110785714Y-126698866D01*
X110785714Y-126698866D02*
X110738095Y-126603628D01*
X110738095Y-126603628D02*
X110690476Y-126556009D01*
X110690476Y-126556009D02*
X110595238Y-126508390D01*
X103057142Y-119409580D02*
X103009523Y-119457200D01*
X103009523Y-119457200D02*
X102866666Y-119504819D01*
X102866666Y-119504819D02*
X102771428Y-119504819D01*
X102771428Y-119504819D02*
X102628571Y-119457200D01*
X102628571Y-119457200D02*
X102533333Y-119361961D01*
X102533333Y-119361961D02*
X102485714Y-119266723D01*
X102485714Y-119266723D02*
X102438095Y-119076247D01*
X102438095Y-119076247D02*
X102438095Y-118933390D01*
X102438095Y-118933390D02*
X102485714Y-118742914D01*
X102485714Y-118742914D02*
X102533333Y-118647676D01*
X102533333Y-118647676D02*
X102628571Y-118552438D01*
X102628571Y-118552438D02*
X102771428Y-118504819D01*
X102771428Y-118504819D02*
X102866666Y-118504819D01*
X102866666Y-118504819D02*
X103009523Y-118552438D01*
X103009523Y-118552438D02*
X103057142Y-118600057D01*
X104009523Y-119504819D02*
X103438095Y-119504819D01*
X103723809Y-119504819D02*
X103723809Y-118504819D01*
X103723809Y-118504819D02*
X103628571Y-118647676D01*
X103628571Y-118647676D02*
X103533333Y-118742914D01*
X103533333Y-118742914D02*
X103438095Y-118790533D01*
X104914285Y-118504819D02*
X104438095Y-118504819D01*
X104438095Y-118504819D02*
X104390476Y-118981009D01*
X104390476Y-118981009D02*
X104438095Y-118933390D01*
X104438095Y-118933390D02*
X104533333Y-118885771D01*
X104533333Y-118885771D02*
X104771428Y-118885771D01*
X104771428Y-118885771D02*
X104866666Y-118933390D01*
X104866666Y-118933390D02*
X104914285Y-118981009D01*
X104914285Y-118981009D02*
X104961904Y-119076247D01*
X104961904Y-119076247D02*
X104961904Y-119314342D01*
X104961904Y-119314342D02*
X104914285Y-119409580D01*
X104914285Y-119409580D02*
X104866666Y-119457200D01*
X104866666Y-119457200D02*
X104771428Y-119504819D01*
X104771428Y-119504819D02*
X104533333Y-119504819D01*
X104533333Y-119504819D02*
X104438095Y-119457200D01*
X104438095Y-119457200D02*
X104390476Y-119409580D01*
X116688095Y-122654819D02*
X116688095Y-123464342D01*
X116688095Y-123464342D02*
X116735714Y-123559580D01*
X116735714Y-123559580D02*
X116783333Y-123607200D01*
X116783333Y-123607200D02*
X116878571Y-123654819D01*
X116878571Y-123654819D02*
X117069047Y-123654819D01*
X117069047Y-123654819D02*
X117164285Y-123607200D01*
X117164285Y-123607200D02*
X117211904Y-123559580D01*
X117211904Y-123559580D02*
X117259523Y-123464342D01*
X117259523Y-123464342D02*
X117259523Y-122654819D01*
X118259523Y-123654819D02*
X117688095Y-123654819D01*
X117973809Y-123654819D02*
X117973809Y-122654819D01*
X117973809Y-122654819D02*
X117878571Y-122797676D01*
X117878571Y-122797676D02*
X117783333Y-122892914D01*
X117783333Y-122892914D02*
X117688095Y-122940533D01*
X105857142Y-113459580D02*
X105809523Y-113507200D01*
X105809523Y-113507200D02*
X105666666Y-113554819D01*
X105666666Y-113554819D02*
X105571428Y-113554819D01*
X105571428Y-113554819D02*
X105428571Y-113507200D01*
X105428571Y-113507200D02*
X105333333Y-113411961D01*
X105333333Y-113411961D02*
X105285714Y-113316723D01*
X105285714Y-113316723D02*
X105238095Y-113126247D01*
X105238095Y-113126247D02*
X105238095Y-112983390D01*
X105238095Y-112983390D02*
X105285714Y-112792914D01*
X105285714Y-112792914D02*
X105333333Y-112697676D01*
X105333333Y-112697676D02*
X105428571Y-112602438D01*
X105428571Y-112602438D02*
X105571428Y-112554819D01*
X105571428Y-112554819D02*
X105666666Y-112554819D01*
X105666666Y-112554819D02*
X105809523Y-112602438D01*
X105809523Y-112602438D02*
X105857142Y-112650057D01*
X106809523Y-113554819D02*
X106238095Y-113554819D01*
X106523809Y-113554819D02*
X106523809Y-112554819D01*
X106523809Y-112554819D02*
X106428571Y-112697676D01*
X106428571Y-112697676D02*
X106333333Y-112792914D01*
X106333333Y-112792914D02*
X106238095Y-112840533D01*
X107142857Y-112554819D02*
X107761904Y-112554819D01*
X107761904Y-112554819D02*
X107428571Y-112935771D01*
X107428571Y-112935771D02*
X107571428Y-112935771D01*
X107571428Y-112935771D02*
X107666666Y-112983390D01*
X107666666Y-112983390D02*
X107714285Y-113031009D01*
X107714285Y-113031009D02*
X107761904Y-113126247D01*
X107761904Y-113126247D02*
X107761904Y-113364342D01*
X107761904Y-113364342D02*
X107714285Y-113459580D01*
X107714285Y-113459580D02*
X107666666Y-113507200D01*
X107666666Y-113507200D02*
X107571428Y-113554819D01*
X107571428Y-113554819D02*
X107285714Y-113554819D01*
X107285714Y-113554819D02*
X107190476Y-113507200D01*
X107190476Y-113507200D02*
X107142857Y-113459580D01*
X122263333Y-100284819D02*
X121930000Y-99808628D01*
X121691905Y-100284819D02*
X121691905Y-99284819D01*
X121691905Y-99284819D02*
X122072857Y-99284819D01*
X122072857Y-99284819D02*
X122168095Y-99332438D01*
X122168095Y-99332438D02*
X122215714Y-99380057D01*
X122215714Y-99380057D02*
X122263333Y-99475295D01*
X122263333Y-99475295D02*
X122263333Y-99618152D01*
X122263333Y-99618152D02*
X122215714Y-99713390D01*
X122215714Y-99713390D02*
X122168095Y-99761009D01*
X122168095Y-99761009D02*
X122072857Y-99808628D01*
X122072857Y-99808628D02*
X121691905Y-99808628D01*
X122596667Y-99284819D02*
X123215714Y-99284819D01*
X123215714Y-99284819D02*
X122882381Y-99665771D01*
X122882381Y-99665771D02*
X123025238Y-99665771D01*
X123025238Y-99665771D02*
X123120476Y-99713390D01*
X123120476Y-99713390D02*
X123168095Y-99761009D01*
X123168095Y-99761009D02*
X123215714Y-99856247D01*
X123215714Y-99856247D02*
X123215714Y-100094342D01*
X123215714Y-100094342D02*
X123168095Y-100189580D01*
X123168095Y-100189580D02*
X123120476Y-100237200D01*
X123120476Y-100237200D02*
X123025238Y-100284819D01*
X123025238Y-100284819D02*
X122739524Y-100284819D01*
X122739524Y-100284819D02*
X122644286Y-100237200D01*
X122644286Y-100237200D02*
X122596667Y-100189580D01*
X108183333Y-89559580D02*
X108135714Y-89607200D01*
X108135714Y-89607200D02*
X107992857Y-89654819D01*
X107992857Y-89654819D02*
X107897619Y-89654819D01*
X107897619Y-89654819D02*
X107754762Y-89607200D01*
X107754762Y-89607200D02*
X107659524Y-89511961D01*
X107659524Y-89511961D02*
X107611905Y-89416723D01*
X107611905Y-89416723D02*
X107564286Y-89226247D01*
X107564286Y-89226247D02*
X107564286Y-89083390D01*
X107564286Y-89083390D02*
X107611905Y-88892914D01*
X107611905Y-88892914D02*
X107659524Y-88797676D01*
X107659524Y-88797676D02*
X107754762Y-88702438D01*
X107754762Y-88702438D02*
X107897619Y-88654819D01*
X107897619Y-88654819D02*
X107992857Y-88654819D01*
X107992857Y-88654819D02*
X108135714Y-88702438D01*
X108135714Y-88702438D02*
X108183333Y-88750057D01*
X109088095Y-88654819D02*
X108611905Y-88654819D01*
X108611905Y-88654819D02*
X108564286Y-89131009D01*
X108564286Y-89131009D02*
X108611905Y-89083390D01*
X108611905Y-89083390D02*
X108707143Y-89035771D01*
X108707143Y-89035771D02*
X108945238Y-89035771D01*
X108945238Y-89035771D02*
X109040476Y-89083390D01*
X109040476Y-89083390D02*
X109088095Y-89131009D01*
X109088095Y-89131009D02*
X109135714Y-89226247D01*
X109135714Y-89226247D02*
X109135714Y-89464342D01*
X109135714Y-89464342D02*
X109088095Y-89559580D01*
X109088095Y-89559580D02*
X109040476Y-89607200D01*
X109040476Y-89607200D02*
X108945238Y-89654819D01*
X108945238Y-89654819D02*
X108707143Y-89654819D01*
X108707143Y-89654819D02*
X108611905Y-89607200D01*
X108611905Y-89607200D02*
X108564286Y-89559580D01*
X98534580Y-123241666D02*
X98582200Y-123289285D01*
X98582200Y-123289285D02*
X98629819Y-123432142D01*
X98629819Y-123432142D02*
X98629819Y-123527380D01*
X98629819Y-123527380D02*
X98582200Y-123670237D01*
X98582200Y-123670237D02*
X98486961Y-123765475D01*
X98486961Y-123765475D02*
X98391723Y-123813094D01*
X98391723Y-123813094D02*
X98201247Y-123860713D01*
X98201247Y-123860713D02*
X98058390Y-123860713D01*
X98058390Y-123860713D02*
X97867914Y-123813094D01*
X97867914Y-123813094D02*
X97772676Y-123765475D01*
X97772676Y-123765475D02*
X97677438Y-123670237D01*
X97677438Y-123670237D02*
X97629819Y-123527380D01*
X97629819Y-123527380D02*
X97629819Y-123432142D01*
X97629819Y-123432142D02*
X97677438Y-123289285D01*
X97677438Y-123289285D02*
X97725057Y-123241666D01*
X97629819Y-122908332D02*
X97629819Y-122241666D01*
X97629819Y-122241666D02*
X98629819Y-122670237D01*
X97811905Y-87504819D02*
X97811905Y-86504819D01*
X97811905Y-86504819D02*
X98050000Y-86504819D01*
X98050000Y-86504819D02*
X98192857Y-86552438D01*
X98192857Y-86552438D02*
X98288095Y-86647676D01*
X98288095Y-86647676D02*
X98335714Y-86742914D01*
X98335714Y-86742914D02*
X98383333Y-86933390D01*
X98383333Y-86933390D02*
X98383333Y-87076247D01*
X98383333Y-87076247D02*
X98335714Y-87266723D01*
X98335714Y-87266723D02*
X98288095Y-87361961D01*
X98288095Y-87361961D02*
X98192857Y-87457200D01*
X98192857Y-87457200D02*
X98050000Y-87504819D01*
X98050000Y-87504819D02*
X97811905Y-87504819D01*
X98764286Y-86600057D02*
X98811905Y-86552438D01*
X98811905Y-86552438D02*
X98907143Y-86504819D01*
X98907143Y-86504819D02*
X99145238Y-86504819D01*
X99145238Y-86504819D02*
X99240476Y-86552438D01*
X99240476Y-86552438D02*
X99288095Y-86600057D01*
X99288095Y-86600057D02*
X99335714Y-86695295D01*
X99335714Y-86695295D02*
X99335714Y-86790533D01*
X99335714Y-86790533D02*
X99288095Y-86933390D01*
X99288095Y-86933390D02*
X98716667Y-87504819D01*
X98716667Y-87504819D02*
X99335714Y-87504819D01*
X95383333Y-87304819D02*
X95050000Y-86828628D01*
X94811905Y-87304819D02*
X94811905Y-86304819D01*
X94811905Y-86304819D02*
X95192857Y-86304819D01*
X95192857Y-86304819D02*
X95288095Y-86352438D01*
X95288095Y-86352438D02*
X95335714Y-86400057D01*
X95335714Y-86400057D02*
X95383333Y-86495295D01*
X95383333Y-86495295D02*
X95383333Y-86638152D01*
X95383333Y-86638152D02*
X95335714Y-86733390D01*
X95335714Y-86733390D02*
X95288095Y-86781009D01*
X95288095Y-86781009D02*
X95192857Y-86828628D01*
X95192857Y-86828628D02*
X94811905Y-86828628D01*
X96240476Y-86638152D02*
X96240476Y-87304819D01*
X96002381Y-86257200D02*
X95764286Y-86971485D01*
X95764286Y-86971485D02*
X96383333Y-86971485D01*
X111677142Y-104609580D02*
X111629523Y-104657200D01*
X111629523Y-104657200D02*
X111486666Y-104704819D01*
X111486666Y-104704819D02*
X111391428Y-104704819D01*
X111391428Y-104704819D02*
X111248571Y-104657200D01*
X111248571Y-104657200D02*
X111153333Y-104561961D01*
X111153333Y-104561961D02*
X111105714Y-104466723D01*
X111105714Y-104466723D02*
X111058095Y-104276247D01*
X111058095Y-104276247D02*
X111058095Y-104133390D01*
X111058095Y-104133390D02*
X111105714Y-103942914D01*
X111105714Y-103942914D02*
X111153333Y-103847676D01*
X111153333Y-103847676D02*
X111248571Y-103752438D01*
X111248571Y-103752438D02*
X111391428Y-103704819D01*
X111391428Y-103704819D02*
X111486666Y-103704819D01*
X111486666Y-103704819D02*
X111629523Y-103752438D01*
X111629523Y-103752438D02*
X111677142Y-103800057D01*
X112629523Y-104704819D02*
X112058095Y-104704819D01*
X112343809Y-104704819D02*
X112343809Y-103704819D01*
X112343809Y-103704819D02*
X112248571Y-103847676D01*
X112248571Y-103847676D02*
X112153333Y-103942914D01*
X112153333Y-103942914D02*
X112058095Y-103990533D01*
X113581904Y-104704819D02*
X113010476Y-104704819D01*
X113296190Y-104704819D02*
X113296190Y-103704819D01*
X113296190Y-103704819D02*
X113200952Y-103847676D01*
X113200952Y-103847676D02*
X113105714Y-103942914D01*
X113105714Y-103942914D02*
X113010476Y-103990533D01*
X98723809Y-105578628D02*
X98723809Y-106054819D01*
X98390476Y-105054819D02*
X98723809Y-105578628D01*
X98723809Y-105578628D02*
X99057142Y-105054819D01*
X99914285Y-106054819D02*
X99342857Y-106054819D01*
X99628571Y-106054819D02*
X99628571Y-105054819D01*
X99628571Y-105054819D02*
X99533333Y-105197676D01*
X99533333Y-105197676D02*
X99438095Y-105292914D01*
X99438095Y-105292914D02*
X99342857Y-105340533D01*
X106357142Y-127359580D02*
X106309523Y-127407200D01*
X106309523Y-127407200D02*
X106166666Y-127454819D01*
X106166666Y-127454819D02*
X106071428Y-127454819D01*
X106071428Y-127454819D02*
X105928571Y-127407200D01*
X105928571Y-127407200D02*
X105833333Y-127311961D01*
X105833333Y-127311961D02*
X105785714Y-127216723D01*
X105785714Y-127216723D02*
X105738095Y-127026247D01*
X105738095Y-127026247D02*
X105738095Y-126883390D01*
X105738095Y-126883390D02*
X105785714Y-126692914D01*
X105785714Y-126692914D02*
X105833333Y-126597676D01*
X105833333Y-126597676D02*
X105928571Y-126502438D01*
X105928571Y-126502438D02*
X106071428Y-126454819D01*
X106071428Y-126454819D02*
X106166666Y-126454819D01*
X106166666Y-126454819D02*
X106309523Y-126502438D01*
X106309523Y-126502438D02*
X106357142Y-126550057D01*
X107309523Y-127454819D02*
X106738095Y-127454819D01*
X107023809Y-127454819D02*
X107023809Y-126454819D01*
X107023809Y-126454819D02*
X106928571Y-126597676D01*
X106928571Y-126597676D02*
X106833333Y-126692914D01*
X106833333Y-126692914D02*
X106738095Y-126740533D01*
X107690476Y-126550057D02*
X107738095Y-126502438D01*
X107738095Y-126502438D02*
X107833333Y-126454819D01*
X107833333Y-126454819D02*
X108071428Y-126454819D01*
X108071428Y-126454819D02*
X108166666Y-126502438D01*
X108166666Y-126502438D02*
X108214285Y-126550057D01*
X108214285Y-126550057D02*
X108261904Y-126645295D01*
X108261904Y-126645295D02*
X108261904Y-126740533D01*
X108261904Y-126740533D02*
X108214285Y-126883390D01*
X108214285Y-126883390D02*
X107642857Y-127454819D01*
X107642857Y-127454819D02*
X108261904Y-127454819D01*
X103133333Y-126604819D02*
X102657143Y-126604819D01*
X102657143Y-126604819D02*
X102657143Y-125604819D01*
X103419048Y-125700057D02*
X103466667Y-125652438D01*
X103466667Y-125652438D02*
X103561905Y-125604819D01*
X103561905Y-125604819D02*
X103800000Y-125604819D01*
X103800000Y-125604819D02*
X103895238Y-125652438D01*
X103895238Y-125652438D02*
X103942857Y-125700057D01*
X103942857Y-125700057D02*
X103990476Y-125795295D01*
X103990476Y-125795295D02*
X103990476Y-125890533D01*
X103990476Y-125890533D02*
X103942857Y-126033390D01*
X103942857Y-126033390D02*
X103371429Y-126604819D01*
X103371429Y-126604819D02*
X103990476Y-126604819D01*
X87591666Y-116664819D02*
X87591666Y-117379104D01*
X87591666Y-117379104D02*
X87544047Y-117521961D01*
X87544047Y-117521961D02*
X87448809Y-117617200D01*
X87448809Y-117617200D02*
X87305952Y-117664819D01*
X87305952Y-117664819D02*
X87210714Y-117664819D01*
X88020238Y-116760057D02*
X88067857Y-116712438D01*
X88067857Y-116712438D02*
X88163095Y-116664819D01*
X88163095Y-116664819D02*
X88401190Y-116664819D01*
X88401190Y-116664819D02*
X88496428Y-116712438D01*
X88496428Y-116712438D02*
X88544047Y-116760057D01*
X88544047Y-116760057D02*
X88591666Y-116855295D01*
X88591666Y-116855295D02*
X88591666Y-116950533D01*
X88591666Y-116950533D02*
X88544047Y-117093390D01*
X88544047Y-117093390D02*
X87972619Y-117664819D01*
X87972619Y-117664819D02*
X88591666Y-117664819D01*
X114013333Y-102034819D02*
X113680000Y-101558628D01*
X113441905Y-102034819D02*
X113441905Y-101034819D01*
X113441905Y-101034819D02*
X113822857Y-101034819D01*
X113822857Y-101034819D02*
X113918095Y-101082438D01*
X113918095Y-101082438D02*
X113965714Y-101130057D01*
X113965714Y-101130057D02*
X114013333Y-101225295D01*
X114013333Y-101225295D02*
X114013333Y-101368152D01*
X114013333Y-101368152D02*
X113965714Y-101463390D01*
X113965714Y-101463390D02*
X113918095Y-101511009D01*
X113918095Y-101511009D02*
X113822857Y-101558628D01*
X113822857Y-101558628D02*
X113441905Y-101558628D01*
X114394286Y-101130057D02*
X114441905Y-101082438D01*
X114441905Y-101082438D02*
X114537143Y-101034819D01*
X114537143Y-101034819D02*
X114775238Y-101034819D01*
X114775238Y-101034819D02*
X114870476Y-101082438D01*
X114870476Y-101082438D02*
X114918095Y-101130057D01*
X114918095Y-101130057D02*
X114965714Y-101225295D01*
X114965714Y-101225295D02*
X114965714Y-101320533D01*
X114965714Y-101320533D02*
X114918095Y-101463390D01*
X114918095Y-101463390D02*
X114346667Y-102034819D01*
X114346667Y-102034819D02*
X114965714Y-102034819D01*
X123709580Y-122117857D02*
X123757200Y-122165476D01*
X123757200Y-122165476D02*
X123804819Y-122308333D01*
X123804819Y-122308333D02*
X123804819Y-122403571D01*
X123804819Y-122403571D02*
X123757200Y-122546428D01*
X123757200Y-122546428D02*
X123661961Y-122641666D01*
X123661961Y-122641666D02*
X123566723Y-122689285D01*
X123566723Y-122689285D02*
X123376247Y-122736904D01*
X123376247Y-122736904D02*
X123233390Y-122736904D01*
X123233390Y-122736904D02*
X123042914Y-122689285D01*
X123042914Y-122689285D02*
X122947676Y-122641666D01*
X122947676Y-122641666D02*
X122852438Y-122546428D01*
X122852438Y-122546428D02*
X122804819Y-122403571D01*
X122804819Y-122403571D02*
X122804819Y-122308333D01*
X122804819Y-122308333D02*
X122852438Y-122165476D01*
X122852438Y-122165476D02*
X122900057Y-122117857D01*
X123804819Y-121165476D02*
X123804819Y-121736904D01*
X123804819Y-121451190D02*
X122804819Y-121451190D01*
X122804819Y-121451190D02*
X122947676Y-121546428D01*
X122947676Y-121546428D02*
X123042914Y-121641666D01*
X123042914Y-121641666D02*
X123090533Y-121736904D01*
X122804819Y-120546428D02*
X122804819Y-120451190D01*
X122804819Y-120451190D02*
X122852438Y-120355952D01*
X122852438Y-120355952D02*
X122900057Y-120308333D01*
X122900057Y-120308333D02*
X122995295Y-120260714D01*
X122995295Y-120260714D02*
X123185771Y-120213095D01*
X123185771Y-120213095D02*
X123423866Y-120213095D01*
X123423866Y-120213095D02*
X123614342Y-120260714D01*
X123614342Y-120260714D02*
X123709580Y-120308333D01*
X123709580Y-120308333D02*
X123757200Y-120355952D01*
X123757200Y-120355952D02*
X123804819Y-120451190D01*
X123804819Y-120451190D02*
X123804819Y-120546428D01*
X123804819Y-120546428D02*
X123757200Y-120641666D01*
X123757200Y-120641666D02*
X123709580Y-120689285D01*
X123709580Y-120689285D02*
X123614342Y-120736904D01*
X123614342Y-120736904D02*
X123423866Y-120784523D01*
X123423866Y-120784523D02*
X123185771Y-120784523D01*
X123185771Y-120784523D02*
X122995295Y-120736904D01*
X122995295Y-120736904D02*
X122900057Y-120689285D01*
X122900057Y-120689285D02*
X122852438Y-120641666D01*
X122852438Y-120641666D02*
X122804819Y-120546428D01*
X137609580Y-105041666D02*
X137657200Y-105089285D01*
X137657200Y-105089285D02*
X137704819Y-105232142D01*
X137704819Y-105232142D02*
X137704819Y-105327380D01*
X137704819Y-105327380D02*
X137657200Y-105470237D01*
X137657200Y-105470237D02*
X137561961Y-105565475D01*
X137561961Y-105565475D02*
X137466723Y-105613094D01*
X137466723Y-105613094D02*
X137276247Y-105660713D01*
X137276247Y-105660713D02*
X137133390Y-105660713D01*
X137133390Y-105660713D02*
X136942914Y-105613094D01*
X136942914Y-105613094D02*
X136847676Y-105565475D01*
X136847676Y-105565475D02*
X136752438Y-105470237D01*
X136752438Y-105470237D02*
X136704819Y-105327380D01*
X136704819Y-105327380D02*
X136704819Y-105232142D01*
X136704819Y-105232142D02*
X136752438Y-105089285D01*
X136752438Y-105089285D02*
X136800057Y-105041666D01*
X136800057Y-104660713D02*
X136752438Y-104613094D01*
X136752438Y-104613094D02*
X136704819Y-104517856D01*
X136704819Y-104517856D02*
X136704819Y-104279761D01*
X136704819Y-104279761D02*
X136752438Y-104184523D01*
X136752438Y-104184523D02*
X136800057Y-104136904D01*
X136800057Y-104136904D02*
X136895295Y-104089285D01*
X136895295Y-104089285D02*
X136990533Y-104089285D01*
X136990533Y-104089285D02*
X137133390Y-104136904D01*
X137133390Y-104136904D02*
X137704819Y-104708332D01*
X137704819Y-104708332D02*
X137704819Y-104089285D01*
X125773333Y-97689580D02*
X125725714Y-97737200D01*
X125725714Y-97737200D02*
X125582857Y-97784819D01*
X125582857Y-97784819D02*
X125487619Y-97784819D01*
X125487619Y-97784819D02*
X125344762Y-97737200D01*
X125344762Y-97737200D02*
X125249524Y-97641961D01*
X125249524Y-97641961D02*
X125201905Y-97546723D01*
X125201905Y-97546723D02*
X125154286Y-97356247D01*
X125154286Y-97356247D02*
X125154286Y-97213390D01*
X125154286Y-97213390D02*
X125201905Y-97022914D01*
X125201905Y-97022914D02*
X125249524Y-96927676D01*
X125249524Y-96927676D02*
X125344762Y-96832438D01*
X125344762Y-96832438D02*
X125487619Y-96784819D01*
X125487619Y-96784819D02*
X125582857Y-96784819D01*
X125582857Y-96784819D02*
X125725714Y-96832438D01*
X125725714Y-96832438D02*
X125773333Y-96880057D01*
X126106667Y-96784819D02*
X126725714Y-96784819D01*
X126725714Y-96784819D02*
X126392381Y-97165771D01*
X126392381Y-97165771D02*
X126535238Y-97165771D01*
X126535238Y-97165771D02*
X126630476Y-97213390D01*
X126630476Y-97213390D02*
X126678095Y-97261009D01*
X126678095Y-97261009D02*
X126725714Y-97356247D01*
X126725714Y-97356247D02*
X126725714Y-97594342D01*
X126725714Y-97594342D02*
X126678095Y-97689580D01*
X126678095Y-97689580D02*
X126630476Y-97737200D01*
X126630476Y-97737200D02*
X126535238Y-97784819D01*
X126535238Y-97784819D02*
X126249524Y-97784819D01*
X126249524Y-97784819D02*
X126154286Y-97737200D01*
X126154286Y-97737200D02*
X126106667Y-97689580D01*
X130538095Y-114554819D02*
X130538095Y-115364342D01*
X130538095Y-115364342D02*
X130585714Y-115459580D01*
X130585714Y-115459580D02*
X130633333Y-115507200D01*
X130633333Y-115507200D02*
X130728571Y-115554819D01*
X130728571Y-115554819D02*
X130919047Y-115554819D01*
X130919047Y-115554819D02*
X131014285Y-115507200D01*
X131014285Y-115507200D02*
X131061904Y-115459580D01*
X131061904Y-115459580D02*
X131109523Y-115364342D01*
X131109523Y-115364342D02*
X131109523Y-114554819D01*
X131490476Y-114554819D02*
X132109523Y-114554819D01*
X132109523Y-114554819D02*
X131776190Y-114935771D01*
X131776190Y-114935771D02*
X131919047Y-114935771D01*
X131919047Y-114935771D02*
X132014285Y-114983390D01*
X132014285Y-114983390D02*
X132061904Y-115031009D01*
X132061904Y-115031009D02*
X132109523Y-115126247D01*
X132109523Y-115126247D02*
X132109523Y-115364342D01*
X132109523Y-115364342D02*
X132061904Y-115459580D01*
X132061904Y-115459580D02*
X132014285Y-115507200D01*
X132014285Y-115507200D02*
X131919047Y-115554819D01*
X131919047Y-115554819D02*
X131633333Y-115554819D01*
X131633333Y-115554819D02*
X131538095Y-115507200D01*
X131538095Y-115507200D02*
X131490476Y-115459580D01*
X128083333Y-88679819D02*
X127750000Y-88203628D01*
X127511905Y-88679819D02*
X127511905Y-87679819D01*
X127511905Y-87679819D02*
X127892857Y-87679819D01*
X127892857Y-87679819D02*
X127988095Y-87727438D01*
X127988095Y-87727438D02*
X128035714Y-87775057D01*
X128035714Y-87775057D02*
X128083333Y-87870295D01*
X128083333Y-87870295D02*
X128083333Y-88013152D01*
X128083333Y-88013152D02*
X128035714Y-88108390D01*
X128035714Y-88108390D02*
X127988095Y-88156009D01*
X127988095Y-88156009D02*
X127892857Y-88203628D01*
X127892857Y-88203628D02*
X127511905Y-88203628D01*
X129035714Y-88679819D02*
X128464286Y-88679819D01*
X128750000Y-88679819D02*
X128750000Y-87679819D01*
X128750000Y-87679819D02*
X128654762Y-87822676D01*
X128654762Y-87822676D02*
X128559524Y-87917914D01*
X128559524Y-87917914D02*
X128464286Y-87965533D01*
X122313095Y-85804819D02*
X122313095Y-86614342D01*
X122313095Y-86614342D02*
X122360714Y-86709580D01*
X122360714Y-86709580D02*
X122408333Y-86757200D01*
X122408333Y-86757200D02*
X122503571Y-86804819D01*
X122503571Y-86804819D02*
X122694047Y-86804819D01*
X122694047Y-86804819D02*
X122789285Y-86757200D01*
X122789285Y-86757200D02*
X122836904Y-86709580D01*
X122836904Y-86709580D02*
X122884523Y-86614342D01*
X122884523Y-86614342D02*
X122884523Y-85804819D01*
X123313095Y-85900057D02*
X123360714Y-85852438D01*
X123360714Y-85852438D02*
X123455952Y-85804819D01*
X123455952Y-85804819D02*
X123694047Y-85804819D01*
X123694047Y-85804819D02*
X123789285Y-85852438D01*
X123789285Y-85852438D02*
X123836904Y-85900057D01*
X123836904Y-85900057D02*
X123884523Y-85995295D01*
X123884523Y-85995295D02*
X123884523Y-86090533D01*
X123884523Y-86090533D02*
X123836904Y-86233390D01*
X123836904Y-86233390D02*
X123265476Y-86804819D01*
X123265476Y-86804819D02*
X123884523Y-86804819D01*
D12*
%TO.C,H1*%
X115790000Y-101590000D02*
X117120000Y-101590000D01*
X115790000Y-102920000D02*
X115790000Y-101590000D01*
X115790000Y-104190000D02*
X115790000Y-104250000D01*
X115790000Y-104190000D02*
X118450000Y-104190000D01*
X115790000Y-104250000D02*
X118450000Y-104250000D01*
X118450000Y-104190000D02*
X118450000Y-104250000D01*
%TO.C,R5*%
X117510436Y-105370000D02*
X118964564Y-105370000D01*
X117510436Y-107190000D02*
X118964564Y-107190000D01*
%TO.C,C17*%
X108230000Y-107186252D02*
X108230000Y-105763748D01*
X110050000Y-107186252D02*
X110050000Y-105763748D01*
%TO.C,C16*%
X127911252Y-118010000D02*
X126488748Y-118010000D01*
X127911252Y-116190000D02*
X126488748Y-116190000D01*
%TO.C,C14*%
X102760000Y-109186252D02*
X102760000Y-107763748D01*
X104580000Y-109186252D02*
X104580000Y-107763748D01*
%TO.C,C6*%
X118110000Y-99261252D02*
X118110000Y-97838748D01*
X116290000Y-99261252D02*
X116290000Y-97838748D01*
%TO.C,C9*%
X121940000Y-106438748D02*
X121940000Y-107861252D01*
X123760000Y-106438748D02*
X123760000Y-107861252D01*
%TO.C,D3*%
X114650000Y-95235000D02*
X114650000Y-89425000D01*
X114650000Y-95235000D02*
X118950000Y-95235000D01*
X118950000Y-95235000D02*
X118950000Y-89425000D01*
%TO.C,C1*%
X140660000Y-98295563D02*
X140660000Y-88840000D01*
X140660000Y-88840000D02*
X136710000Y-88840000D01*
X139595563Y-99360000D02*
X140660000Y-98295563D01*
X139595563Y-99360000D02*
X136710000Y-99360000D01*
X131204437Y-99360000D02*
X134090000Y-99360000D01*
X131204437Y-99360000D02*
X130140000Y-98295563D01*
X130140000Y-98295563D02*
X130140000Y-88840000D01*
X130140000Y-88840000D02*
X134090000Y-88840000D01*
%TO.C,C4*%
X103290000Y-78054437D02*
X103290000Y-80940000D01*
X103290000Y-78054437D02*
X104354437Y-76990000D01*
X103290000Y-86445563D02*
X103290000Y-83560000D01*
X103290000Y-86445563D02*
X104354437Y-87510000D01*
X104354437Y-76990000D02*
X113810000Y-76990000D01*
X104354437Y-87510000D02*
X113810000Y-87510000D01*
X113810000Y-76990000D02*
X113810000Y-80940000D01*
X113810000Y-87510000D02*
X113810000Y-83560000D01*
D11*
%TO.C,L1*%
X100700000Y-90850000D02*
X112900000Y-90850000D01*
X100700000Y-95400000D02*
X100700000Y-90850000D01*
X100700000Y-103050000D02*
X100700000Y-98575000D01*
X112900000Y-95400000D02*
X112900000Y-90850000D01*
X112900000Y-103050000D02*
X100700000Y-103050000D01*
X112900000Y-103050000D02*
X112900000Y-98600000D01*
D12*
%TO.C,C8*%
X108365000Y-123611252D02*
X108365000Y-122188748D01*
X110185000Y-123611252D02*
X110185000Y-122188748D01*
%TO.C,C15*%
X102590000Y-114263748D02*
X102590000Y-115686252D01*
X104410000Y-114263748D02*
X104410000Y-115686252D01*
%TO.C,U1*%
X109840000Y-109465000D02*
X109840000Y-110415000D01*
X109840000Y-119685000D02*
X109840000Y-118735000D01*
X110790000Y-109465000D02*
X109840000Y-109465000D01*
X110790000Y-119685000D02*
X109840000Y-119685000D01*
X119110000Y-109465000D02*
X120060000Y-109465000D01*
X119110000Y-119685000D02*
X120060000Y-119685000D01*
X120060000Y-109465000D02*
X120060000Y-110415000D01*
X120060000Y-119685000D02*
X120060000Y-118735000D01*
X109225000Y-110415000D02*
X108885000Y-109945000D01*
X109565000Y-109945000D01*
X109225000Y-110415000D01*
G36*
X109225000Y-110415000D02*
G01*
X108885000Y-109945000D01*
X109565000Y-109945000D01*
X109225000Y-110415000D01*
G37*
%TO.C,C13*%
X105590000Y-117686252D02*
X105590000Y-116263748D01*
X107410000Y-117686252D02*
X107410000Y-116263748D01*
%TO.C,R3*%
X121160000Y-98992936D02*
X121160000Y-100447064D01*
X119340000Y-98992936D02*
X119340000Y-100447064D01*
%TO.C,C5*%
X111238748Y-88290000D02*
X112661252Y-88290000D01*
X111238748Y-90110000D02*
X112661252Y-90110000D01*
%TO.C,C7*%
X99190000Y-123836252D02*
X99190000Y-122413748D01*
X101010000Y-123836252D02*
X101010000Y-122413748D01*
%TO.C,D2*%
X97415000Y-82050000D02*
X97415000Y-85935000D01*
X97415000Y-85935000D02*
X99685000Y-85935000D01*
X99685000Y-85935000D02*
X99685000Y-82050000D01*
%TO.C,R4*%
X94640000Y-84439564D02*
X94640000Y-82985436D01*
X96460000Y-84439564D02*
X96460000Y-82985436D01*
%TO.C,C11*%
X112638748Y-105340000D02*
X114061252Y-105340000D01*
X112638748Y-107160000D02*
X114061252Y-107160000D01*
%TO.C,Y1*%
X96950000Y-106550000D02*
X96950000Y-119150000D01*
X102050000Y-106550000D02*
X96950000Y-106550000D01*
X102050000Y-119150000D02*
X102050000Y-106550000D01*
%TO.C,C12*%
X105590000Y-122213748D02*
X105590000Y-123636252D01*
X107410000Y-122213748D02*
X107410000Y-123636252D01*
%TO.C,L2*%
X102390000Y-123860242D02*
X102390000Y-122189758D01*
X104210000Y-123860242D02*
X104210000Y-122189758D01*
%TO.C,J2*%
X84640000Y-111020000D02*
X84640000Y-90590000D01*
X91210000Y-90590000D02*
X84640000Y-90590000D01*
X91210000Y-111020000D02*
X84640000Y-111020000D01*
X91210000Y-111020000D02*
X91210000Y-90590000D01*
X91210000Y-113560000D02*
X91210000Y-116210000D01*
X91210000Y-116210000D02*
X87925000Y-116210000D01*
%TO.C,R2*%
X115450000Y-99247064D02*
X115450000Y-97792936D01*
X113630000Y-99247064D02*
X113630000Y-97792936D01*
%TO.C,C10*%
X120590000Y-120763748D02*
X120590000Y-122186252D01*
X122410000Y-120763748D02*
X122410000Y-122186252D01*
%TO.C,C2*%
X134490000Y-104163748D02*
X134490000Y-105586252D01*
X136310000Y-104163748D02*
X136310000Y-105586252D01*
%TO.C,C3*%
X127290000Y-97736252D02*
X127290000Y-96313748D01*
X129110000Y-97736252D02*
X129110000Y-96313748D01*
%TO.C,U3*%
X124805000Y-111975000D02*
X124805000Y-110025000D01*
X124805000Y-111975000D02*
X124805000Y-113925000D01*
X129925000Y-111975000D02*
X129925000Y-110025000D01*
X129925000Y-111975000D02*
X129925000Y-113925000D01*
X124900000Y-114675000D02*
X124570000Y-114915000D01*
X124570000Y-114435000D01*
X124900000Y-114675000D01*
G36*
X124900000Y-114675000D02*
G01*
X124570000Y-114915000D01*
X124570000Y-114435000D01*
X124900000Y-114675000D01*
G37*
%TO.C,R1*%
X127290000Y-91889564D02*
X127290000Y-90435436D01*
X129110000Y-91889564D02*
X129110000Y-90435436D01*
%TO.C,U2*%
X120235000Y-92175000D02*
X120235000Y-90225000D01*
X120235000Y-92175000D02*
X120235000Y-94125000D01*
X125355000Y-92175000D02*
X125355000Y-90225000D01*
X125355000Y-92175000D02*
X125355000Y-94125000D01*
X120330000Y-94875000D02*
X120000000Y-95115000D01*
X120000000Y-94635000D01*
X120330000Y-94875000D01*
G36*
X120330000Y-94875000D02*
G01*
X120000000Y-95115000D01*
X120000000Y-94635000D01*
X120330000Y-94875000D01*
G37*
%TD*%
M02*
