%TF.GenerationSoftware,KiCad,Pcbnew,8.0.1*%
%TF.CreationDate,2025-05-19T10:21:45+02:00*%
%TF.ProjectId,stm32f103 board,73746d33-3266-4313-9033-20626f617264,rev?*%
%TF.SameCoordinates,Original*%
%TF.FileFunction,Soldermask,Bot*%
%TF.FilePolarity,Negative*%
%FSLAX46Y46*%
G04 Gerber Fmt 4.6, Leading zero omitted, Abs format (unit mm)*
G04 Created by KiCad (PCBNEW 8.0.1) date 2025-05-19 10:21:45*
%MOMM*%
%LPD*%
G01*
G04 APERTURE LIST*
G04 Aperture macros list*
%AMRoundRect*
0 Rectangle with rounded corners*
0 $1 Rounding radius*
0 $2 $3 $4 $5 $6 $7 $8 $9 X,Y pos of 4 corners*
0 Add a 4 corners polygon primitive as box body*
4,1,4,$2,$3,$4,$5,$6,$7,$8,$9,$2,$3,0*
0 Add four circle primitives for the rounded corners*
1,1,$1+$1,$2,$3*
1,1,$1+$1,$4,$5*
1,1,$1+$1,$6,$7*
1,1,$1+$1,$8,$9*
0 Add four rect primitives between the rounded corners*
20,1,$1+$1,$2,$3,$4,$5,0*
20,1,$1+$1,$4,$5,$6,$7,0*
20,1,$1+$1,$6,$7,$8,$9,0*
20,1,$1+$1,$8,$9,$2,$3,0*%
G04 Aperture macros list end*
%ADD10C,0.150000*%
%ADD11C,0.100000*%
%ADD12O,1.950000X1.700000*%
%ADD13RoundRect,0.250000X0.725000X-0.600000X0.725000X0.600000X-0.725000X0.600000X-0.725000X-0.600000X0*%
%ADD14R,1.700000X1.700000*%
%ADD15C,2.000000*%
%ADD16C,3.200000*%
%ADD17R,2.800000X2.800000*%
%ADD18C,2.800000*%
G04 APERTURE END LIST*
D10*
X144659887Y-79496009D02*
X144993220Y-79496009D01*
X144993220Y-80019819D02*
X144993220Y-79019819D01*
X144993220Y-79019819D02*
X144517030Y-79019819D01*
X143707506Y-80019819D02*
X143707506Y-79496009D01*
X143707506Y-79496009D02*
X143755125Y-79400771D01*
X143755125Y-79400771D02*
X143850363Y-79353152D01*
X143850363Y-79353152D02*
X144040839Y-79353152D01*
X144040839Y-79353152D02*
X144136077Y-79400771D01*
X143707506Y-79972200D02*
X143802744Y-80019819D01*
X143802744Y-80019819D02*
X144040839Y-80019819D01*
X144040839Y-80019819D02*
X144136077Y-79972200D01*
X144136077Y-79972200D02*
X144183696Y-79876961D01*
X144183696Y-79876961D02*
X144183696Y-79781723D01*
X144183696Y-79781723D02*
X144136077Y-79686485D01*
X144136077Y-79686485D02*
X144040839Y-79638866D01*
X144040839Y-79638866D02*
X143802744Y-79638866D01*
X143802744Y-79638866D02*
X143707506Y-79591247D01*
X143231315Y-80019819D02*
X143231315Y-79019819D01*
X143231315Y-79400771D02*
X143136077Y-79353152D01*
X143136077Y-79353152D02*
X142945601Y-79353152D01*
X142945601Y-79353152D02*
X142850363Y-79400771D01*
X142850363Y-79400771D02*
X142802744Y-79448390D01*
X142802744Y-79448390D02*
X142755125Y-79543628D01*
X142755125Y-79543628D02*
X142755125Y-79829342D01*
X142755125Y-79829342D02*
X142802744Y-79924580D01*
X142802744Y-79924580D02*
X142850363Y-79972200D01*
X142850363Y-79972200D02*
X142945601Y-80019819D01*
X142945601Y-80019819D02*
X143136077Y-80019819D01*
X143136077Y-80019819D02*
X143231315Y-79972200D01*
X141850363Y-80019819D02*
X142326553Y-80019819D01*
X142326553Y-80019819D02*
X142326553Y-79019819D01*
X141088458Y-80019819D02*
X141088458Y-79496009D01*
X141088458Y-79496009D02*
X141136077Y-79400771D01*
X141136077Y-79400771D02*
X141231315Y-79353152D01*
X141231315Y-79353152D02*
X141421791Y-79353152D01*
X141421791Y-79353152D02*
X141517029Y-79400771D01*
X141088458Y-79972200D02*
X141183696Y-80019819D01*
X141183696Y-80019819D02*
X141421791Y-80019819D01*
X141421791Y-80019819D02*
X141517029Y-79972200D01*
X141517029Y-79972200D02*
X141564648Y-79876961D01*
X141564648Y-79876961D02*
X141564648Y-79781723D01*
X141564648Y-79781723D02*
X141517029Y-79686485D01*
X141517029Y-79686485D02*
X141421791Y-79638866D01*
X141421791Y-79638866D02*
X141183696Y-79638866D01*
X141183696Y-79638866D02*
X141088458Y-79591247D01*
X140612267Y-80019819D02*
X140612267Y-79019819D01*
X140612267Y-79400771D02*
X140517029Y-79353152D01*
X140517029Y-79353152D02*
X140326553Y-79353152D01*
X140326553Y-79353152D02*
X140231315Y-79400771D01*
X140231315Y-79400771D02*
X140183696Y-79448390D01*
X140183696Y-79448390D02*
X140136077Y-79543628D01*
X140136077Y-79543628D02*
X140136077Y-79829342D01*
X140136077Y-79829342D02*
X140183696Y-79924580D01*
X140183696Y-79924580D02*
X140231315Y-79972200D01*
X140231315Y-79972200D02*
X140326553Y-80019819D01*
X140326553Y-80019819D02*
X140517029Y-80019819D01*
X140517029Y-80019819D02*
X140612267Y-79972200D01*
X139707505Y-79924580D02*
X139659886Y-79972200D01*
X139659886Y-79972200D02*
X139707505Y-80019819D01*
X139707505Y-80019819D02*
X139755124Y-79972200D01*
X139755124Y-79972200D02*
X139707505Y-79924580D01*
X139707505Y-79924580D02*
X139707505Y-80019819D01*
X138897982Y-79496009D02*
X138755125Y-79543628D01*
X138755125Y-79543628D02*
X138707506Y-79591247D01*
X138707506Y-79591247D02*
X138659887Y-79686485D01*
X138659887Y-79686485D02*
X138659887Y-79829342D01*
X138659887Y-79829342D02*
X138707506Y-79924580D01*
X138707506Y-79924580D02*
X138755125Y-79972200D01*
X138755125Y-79972200D02*
X138850363Y-80019819D01*
X138850363Y-80019819D02*
X139231315Y-80019819D01*
X139231315Y-80019819D02*
X139231315Y-79019819D01*
X139231315Y-79019819D02*
X138897982Y-79019819D01*
X138897982Y-79019819D02*
X138802744Y-79067438D01*
X138802744Y-79067438D02*
X138755125Y-79115057D01*
X138755125Y-79115057D02*
X138707506Y-79210295D01*
X138707506Y-79210295D02*
X138707506Y-79305533D01*
X138707506Y-79305533D02*
X138755125Y-79400771D01*
X138755125Y-79400771D02*
X138802744Y-79448390D01*
X138802744Y-79448390D02*
X138897982Y-79496009D01*
X138897982Y-79496009D02*
X139231315Y-79496009D01*
X138088458Y-80019819D02*
X138183696Y-79972200D01*
X138183696Y-79972200D02*
X138231315Y-79876961D01*
X138231315Y-79876961D02*
X138231315Y-79019819D01*
X137278934Y-79353152D02*
X137278934Y-80019819D01*
X137707505Y-79353152D02*
X137707505Y-79876961D01*
X137707505Y-79876961D02*
X137659886Y-79972200D01*
X137659886Y-79972200D02*
X137564648Y-80019819D01*
X137564648Y-80019819D02*
X137421791Y-80019819D01*
X137421791Y-80019819D02*
X137326553Y-79972200D01*
X137326553Y-79972200D02*
X137278934Y-79924580D01*
X136421791Y-79972200D02*
X136517029Y-80019819D01*
X136517029Y-80019819D02*
X136707505Y-80019819D01*
X136707505Y-80019819D02*
X136802743Y-79972200D01*
X136802743Y-79972200D02*
X136850362Y-79876961D01*
X136850362Y-79876961D02*
X136850362Y-79496009D01*
X136850362Y-79496009D02*
X136802743Y-79400771D01*
X136802743Y-79400771D02*
X136707505Y-79353152D01*
X136707505Y-79353152D02*
X136517029Y-79353152D01*
X136517029Y-79353152D02*
X136421791Y-79400771D01*
X136421791Y-79400771D02*
X136374172Y-79496009D01*
X136374172Y-79496009D02*
X136374172Y-79591247D01*
X136374172Y-79591247D02*
X136850362Y-79686485D01*
X144421792Y-81629763D02*
X144755125Y-81153572D01*
X144993220Y-81629763D02*
X144993220Y-80629763D01*
X144993220Y-80629763D02*
X144612268Y-80629763D01*
X144612268Y-80629763D02*
X144517030Y-80677382D01*
X144517030Y-80677382D02*
X144469411Y-80725001D01*
X144469411Y-80725001D02*
X144421792Y-80820239D01*
X144421792Y-80820239D02*
X144421792Y-80963096D01*
X144421792Y-80963096D02*
X144469411Y-81058334D01*
X144469411Y-81058334D02*
X144517030Y-81105953D01*
X144517030Y-81105953D02*
X144612268Y-81153572D01*
X144612268Y-81153572D02*
X144993220Y-81153572D01*
X143564649Y-80963096D02*
X143564649Y-81629763D01*
X143993220Y-80963096D02*
X143993220Y-81486905D01*
X143993220Y-81486905D02*
X143945601Y-81582144D01*
X143945601Y-81582144D02*
X143850363Y-81629763D01*
X143850363Y-81629763D02*
X143707506Y-81629763D01*
X143707506Y-81629763D02*
X143612268Y-81582144D01*
X143612268Y-81582144D02*
X143564649Y-81534524D01*
X142659887Y-81629763D02*
X142659887Y-80629763D01*
X142659887Y-81582144D02*
X142755125Y-81629763D01*
X142755125Y-81629763D02*
X142945601Y-81629763D01*
X142945601Y-81629763D02*
X143040839Y-81582144D01*
X143040839Y-81582144D02*
X143088458Y-81534524D01*
X143088458Y-81534524D02*
X143136077Y-81439286D01*
X143136077Y-81439286D02*
X143136077Y-81153572D01*
X143136077Y-81153572D02*
X143088458Y-81058334D01*
X143088458Y-81058334D02*
X143040839Y-81010715D01*
X143040839Y-81010715D02*
X142945601Y-80963096D01*
X142945601Y-80963096D02*
X142755125Y-80963096D01*
X142755125Y-80963096D02*
X142659887Y-81010715D01*
X141755125Y-81629763D02*
X141755125Y-80629763D01*
X141755125Y-81582144D02*
X141850363Y-81629763D01*
X141850363Y-81629763D02*
X142040839Y-81629763D01*
X142040839Y-81629763D02*
X142136077Y-81582144D01*
X142136077Y-81582144D02*
X142183696Y-81534524D01*
X142183696Y-81534524D02*
X142231315Y-81439286D01*
X142231315Y-81439286D02*
X142231315Y-81153572D01*
X142231315Y-81153572D02*
X142183696Y-81058334D01*
X142183696Y-81058334D02*
X142136077Y-81010715D01*
X142136077Y-81010715D02*
X142040839Y-80963096D01*
X142040839Y-80963096D02*
X141850363Y-80963096D01*
X141850363Y-80963096D02*
X141755125Y-81010715D01*
X140897982Y-81582144D02*
X140993220Y-81629763D01*
X140993220Y-81629763D02*
X141183696Y-81629763D01*
X141183696Y-81629763D02*
X141278934Y-81582144D01*
X141278934Y-81582144D02*
X141326553Y-81486905D01*
X141326553Y-81486905D02*
X141326553Y-81105953D01*
X141326553Y-81105953D02*
X141278934Y-81010715D01*
X141278934Y-81010715D02*
X141183696Y-80963096D01*
X141183696Y-80963096D02*
X140993220Y-80963096D01*
X140993220Y-80963096D02*
X140897982Y-81010715D01*
X140897982Y-81010715D02*
X140850363Y-81105953D01*
X140850363Y-81105953D02*
X140850363Y-81201191D01*
X140850363Y-81201191D02*
X141326553Y-81296429D01*
X140421791Y-81629763D02*
X140421791Y-80963096D01*
X140421791Y-81153572D02*
X140374172Y-81058334D01*
X140374172Y-81058334D02*
X140326553Y-81010715D01*
X140326553Y-81010715D02*
X140231315Y-80963096D01*
X140231315Y-80963096D02*
X140136077Y-80963096D01*
X138612267Y-81582144D02*
X138707505Y-81629763D01*
X138707505Y-81629763D02*
X138897981Y-81629763D01*
X138897981Y-81629763D02*
X138993219Y-81582144D01*
X138993219Y-81582144D02*
X139040838Y-81534524D01*
X139040838Y-81534524D02*
X139088457Y-81439286D01*
X139088457Y-81439286D02*
X139088457Y-81153572D01*
X139088457Y-81153572D02*
X139040838Y-81058334D01*
X139040838Y-81058334D02*
X138993219Y-81010715D01*
X138993219Y-81010715D02*
X138897981Y-80963096D01*
X138897981Y-80963096D02*
X138707505Y-80963096D01*
X138707505Y-80963096D02*
X138612267Y-81010715D01*
X138040838Y-81629763D02*
X138136076Y-81582144D01*
X138136076Y-81582144D02*
X138183695Y-81534524D01*
X138183695Y-81534524D02*
X138231314Y-81439286D01*
X138231314Y-81439286D02*
X138231314Y-81153572D01*
X138231314Y-81153572D02*
X138183695Y-81058334D01*
X138183695Y-81058334D02*
X138136076Y-81010715D01*
X138136076Y-81010715D02*
X138040838Y-80963096D01*
X138040838Y-80963096D02*
X137897981Y-80963096D01*
X137897981Y-80963096D02*
X137802743Y-81010715D01*
X137802743Y-81010715D02*
X137755124Y-81058334D01*
X137755124Y-81058334D02*
X137707505Y-81153572D01*
X137707505Y-81153572D02*
X137707505Y-81439286D01*
X137707505Y-81439286D02*
X137755124Y-81534524D01*
X137755124Y-81534524D02*
X137802743Y-81582144D01*
X137802743Y-81582144D02*
X137897981Y-81629763D01*
X137897981Y-81629763D02*
X138040838Y-81629763D01*
X137278933Y-80963096D02*
X137278933Y-81629763D01*
X137278933Y-81058334D02*
X137231314Y-81010715D01*
X137231314Y-81010715D02*
X137136076Y-80963096D01*
X137136076Y-80963096D02*
X136993219Y-80963096D01*
X136993219Y-80963096D02*
X136897981Y-81010715D01*
X136897981Y-81010715D02*
X136850362Y-81105953D01*
X136850362Y-81105953D02*
X136850362Y-81629763D01*
X136517028Y-80963096D02*
X136136076Y-80963096D01*
X136374171Y-80629763D02*
X136374171Y-81486905D01*
X136374171Y-81486905D02*
X136326552Y-81582144D01*
X136326552Y-81582144D02*
X136231314Y-81629763D01*
X136231314Y-81629763D02*
X136136076Y-81629763D01*
X135802742Y-81629763D02*
X135802742Y-80963096D01*
X135802742Y-81153572D02*
X135755123Y-81058334D01*
X135755123Y-81058334D02*
X135707504Y-81010715D01*
X135707504Y-81010715D02*
X135612266Y-80963096D01*
X135612266Y-80963096D02*
X135517028Y-80963096D01*
X135040837Y-81629763D02*
X135136075Y-81582144D01*
X135136075Y-81582144D02*
X135183694Y-81534524D01*
X135183694Y-81534524D02*
X135231313Y-81439286D01*
X135231313Y-81439286D02*
X135231313Y-81153572D01*
X135231313Y-81153572D02*
X135183694Y-81058334D01*
X135183694Y-81058334D02*
X135136075Y-81010715D01*
X135136075Y-81010715D02*
X135040837Y-80963096D01*
X135040837Y-80963096D02*
X134897980Y-80963096D01*
X134897980Y-80963096D02*
X134802742Y-81010715D01*
X134802742Y-81010715D02*
X134755123Y-81058334D01*
X134755123Y-81058334D02*
X134707504Y-81153572D01*
X134707504Y-81153572D02*
X134707504Y-81439286D01*
X134707504Y-81439286D02*
X134755123Y-81534524D01*
X134755123Y-81534524D02*
X134802742Y-81582144D01*
X134802742Y-81582144D02*
X134897980Y-81629763D01*
X134897980Y-81629763D02*
X135040837Y-81629763D01*
X134136075Y-81629763D02*
X134231313Y-81582144D01*
X134231313Y-81582144D02*
X134278932Y-81486905D01*
X134278932Y-81486905D02*
X134278932Y-80629763D01*
X133612265Y-81629763D02*
X133707503Y-81582144D01*
X133707503Y-81582144D02*
X133755122Y-81486905D01*
X133755122Y-81486905D02*
X133755122Y-80629763D01*
X132850360Y-81582144D02*
X132945598Y-81629763D01*
X132945598Y-81629763D02*
X133136074Y-81629763D01*
X133136074Y-81629763D02*
X133231312Y-81582144D01*
X133231312Y-81582144D02*
X133278931Y-81486905D01*
X133278931Y-81486905D02*
X133278931Y-81105953D01*
X133278931Y-81105953D02*
X133231312Y-81010715D01*
X133231312Y-81010715D02*
X133136074Y-80963096D01*
X133136074Y-80963096D02*
X132945598Y-80963096D01*
X132945598Y-80963096D02*
X132850360Y-81010715D01*
X132850360Y-81010715D02*
X132802741Y-81105953D01*
X132802741Y-81105953D02*
X132802741Y-81201191D01*
X132802741Y-81201191D02*
X133278931Y-81296429D01*
X132374169Y-81629763D02*
X132374169Y-80963096D01*
X132374169Y-81153572D02*
X132326550Y-81058334D01*
X132326550Y-81058334D02*
X132278931Y-81010715D01*
X132278931Y-81010715D02*
X132183693Y-80963096D01*
X132183693Y-80963096D02*
X132088455Y-80963096D01*
X131136073Y-80629763D02*
X130802740Y-81629763D01*
X130802740Y-81629763D02*
X130469407Y-80629763D01*
X129612264Y-81629763D02*
X130183692Y-81629763D01*
X129897978Y-81629763D02*
X129897978Y-80629763D01*
X129897978Y-80629763D02*
X129993216Y-80772620D01*
X129993216Y-80772620D02*
X130088454Y-80867858D01*
X130088454Y-80867858D02*
X130183692Y-80915477D01*
X129183692Y-81534524D02*
X129136073Y-81582144D01*
X129136073Y-81582144D02*
X129183692Y-81629763D01*
X129183692Y-81629763D02*
X129231311Y-81582144D01*
X129231311Y-81582144D02*
X129183692Y-81534524D01*
X129183692Y-81534524D02*
X129183692Y-81629763D01*
X128517026Y-80629763D02*
X128421788Y-80629763D01*
X128421788Y-80629763D02*
X128326550Y-80677382D01*
X128326550Y-80677382D02*
X128278931Y-80725001D01*
X128278931Y-80725001D02*
X128231312Y-80820239D01*
X128231312Y-80820239D02*
X128183693Y-81010715D01*
X128183693Y-81010715D02*
X128183693Y-81248810D01*
X128183693Y-81248810D02*
X128231312Y-81439286D01*
X128231312Y-81439286D02*
X128278931Y-81534524D01*
X128278931Y-81534524D02*
X128326550Y-81582144D01*
X128326550Y-81582144D02*
X128421788Y-81629763D01*
X128421788Y-81629763D02*
X128517026Y-81629763D01*
X128517026Y-81629763D02*
X128612264Y-81582144D01*
X128612264Y-81582144D02*
X128659883Y-81534524D01*
X128659883Y-81534524D02*
X128707502Y-81439286D01*
X128707502Y-81439286D02*
X128755121Y-81248810D01*
X128755121Y-81248810D02*
X128755121Y-81010715D01*
X128755121Y-81010715D02*
X128707502Y-80820239D01*
X128707502Y-80820239D02*
X128659883Y-80725001D01*
X128659883Y-80725001D02*
X128612264Y-80677382D01*
X128612264Y-80677382D02*
X128517026Y-80629763D01*
X144802744Y-82239707D02*
X144707506Y-82239707D01*
X144707506Y-82239707D02*
X144612268Y-82287326D01*
X144612268Y-82287326D02*
X144564649Y-82334945D01*
X144564649Y-82334945D02*
X144517030Y-82430183D01*
X144517030Y-82430183D02*
X144469411Y-82620659D01*
X144469411Y-82620659D02*
X144469411Y-82858754D01*
X144469411Y-82858754D02*
X144517030Y-83049230D01*
X144517030Y-83049230D02*
X144564649Y-83144468D01*
X144564649Y-83144468D02*
X144612268Y-83192088D01*
X144612268Y-83192088D02*
X144707506Y-83239707D01*
X144707506Y-83239707D02*
X144802744Y-83239707D01*
X144802744Y-83239707D02*
X144897982Y-83192088D01*
X144897982Y-83192088D02*
X144945601Y-83144468D01*
X144945601Y-83144468D02*
X144993220Y-83049230D01*
X144993220Y-83049230D02*
X145040839Y-82858754D01*
X145040839Y-82858754D02*
X145040839Y-82620659D01*
X145040839Y-82620659D02*
X144993220Y-82430183D01*
X144993220Y-82430183D02*
X144945601Y-82334945D01*
X144945601Y-82334945D02*
X144897982Y-82287326D01*
X144897982Y-82287326D02*
X144802744Y-82239707D01*
X143612268Y-82239707D02*
X143802744Y-82239707D01*
X143802744Y-82239707D02*
X143897982Y-82287326D01*
X143897982Y-82287326D02*
X143945601Y-82334945D01*
X143945601Y-82334945D02*
X144040839Y-82477802D01*
X144040839Y-82477802D02*
X144088458Y-82668278D01*
X144088458Y-82668278D02*
X144088458Y-83049230D01*
X144088458Y-83049230D02*
X144040839Y-83144468D01*
X144040839Y-83144468D02*
X143993220Y-83192088D01*
X143993220Y-83192088D02*
X143897982Y-83239707D01*
X143897982Y-83239707D02*
X143707506Y-83239707D01*
X143707506Y-83239707D02*
X143612268Y-83192088D01*
X143612268Y-83192088D02*
X143564649Y-83144468D01*
X143564649Y-83144468D02*
X143517030Y-83049230D01*
X143517030Y-83049230D02*
X143517030Y-82811135D01*
X143517030Y-82811135D02*
X143564649Y-82715897D01*
X143564649Y-82715897D02*
X143612268Y-82668278D01*
X143612268Y-82668278D02*
X143707506Y-82620659D01*
X143707506Y-82620659D02*
X143897982Y-82620659D01*
X143897982Y-82620659D02*
X143993220Y-82668278D01*
X143993220Y-82668278D02*
X144040839Y-82715897D01*
X144040839Y-82715897D02*
X144088458Y-82811135D01*
X142374173Y-82192088D02*
X143231315Y-83477802D01*
X142088458Y-82334945D02*
X142040839Y-82287326D01*
X142040839Y-82287326D02*
X141945601Y-82239707D01*
X141945601Y-82239707D02*
X141707506Y-82239707D01*
X141707506Y-82239707D02*
X141612268Y-82287326D01*
X141612268Y-82287326D02*
X141564649Y-82334945D01*
X141564649Y-82334945D02*
X141517030Y-82430183D01*
X141517030Y-82430183D02*
X141517030Y-82525421D01*
X141517030Y-82525421D02*
X141564649Y-82668278D01*
X141564649Y-82668278D02*
X142136077Y-83239707D01*
X142136077Y-83239707D02*
X141517030Y-83239707D01*
X140897982Y-82239707D02*
X140802744Y-82239707D01*
X140802744Y-82239707D02*
X140707506Y-82287326D01*
X140707506Y-82287326D02*
X140659887Y-82334945D01*
X140659887Y-82334945D02*
X140612268Y-82430183D01*
X140612268Y-82430183D02*
X140564649Y-82620659D01*
X140564649Y-82620659D02*
X140564649Y-82858754D01*
X140564649Y-82858754D02*
X140612268Y-83049230D01*
X140612268Y-83049230D02*
X140659887Y-83144468D01*
X140659887Y-83144468D02*
X140707506Y-83192088D01*
X140707506Y-83192088D02*
X140802744Y-83239707D01*
X140802744Y-83239707D02*
X140897982Y-83239707D01*
X140897982Y-83239707D02*
X140993220Y-83192088D01*
X140993220Y-83192088D02*
X141040839Y-83144468D01*
X141040839Y-83144468D02*
X141088458Y-83049230D01*
X141088458Y-83049230D02*
X141136077Y-82858754D01*
X141136077Y-82858754D02*
X141136077Y-82620659D01*
X141136077Y-82620659D02*
X141088458Y-82430183D01*
X141088458Y-82430183D02*
X141040839Y-82334945D01*
X141040839Y-82334945D02*
X140993220Y-82287326D01*
X140993220Y-82287326D02*
X140897982Y-82239707D01*
X140183696Y-82334945D02*
X140136077Y-82287326D01*
X140136077Y-82287326D02*
X140040839Y-82239707D01*
X140040839Y-82239707D02*
X139802744Y-82239707D01*
X139802744Y-82239707D02*
X139707506Y-82287326D01*
X139707506Y-82287326D02*
X139659887Y-82334945D01*
X139659887Y-82334945D02*
X139612268Y-82430183D01*
X139612268Y-82430183D02*
X139612268Y-82525421D01*
X139612268Y-82525421D02*
X139659887Y-82668278D01*
X139659887Y-82668278D02*
X140231315Y-83239707D01*
X140231315Y-83239707D02*
X139612268Y-83239707D01*
X138707506Y-82239707D02*
X139183696Y-82239707D01*
X139183696Y-82239707D02*
X139231315Y-82715897D01*
X139231315Y-82715897D02*
X139183696Y-82668278D01*
X139183696Y-82668278D02*
X139088458Y-82620659D01*
X139088458Y-82620659D02*
X138850363Y-82620659D01*
X138850363Y-82620659D02*
X138755125Y-82668278D01*
X138755125Y-82668278D02*
X138707506Y-82715897D01*
X138707506Y-82715897D02*
X138659887Y-82811135D01*
X138659887Y-82811135D02*
X138659887Y-83049230D01*
X138659887Y-83049230D02*
X138707506Y-83144468D01*
X138707506Y-83144468D02*
X138755125Y-83192088D01*
X138755125Y-83192088D02*
X138850363Y-83239707D01*
X138850363Y-83239707D02*
X139088458Y-83239707D01*
X139088458Y-83239707D02*
X139183696Y-83192088D01*
X139183696Y-83192088D02*
X139231315Y-83144468D01*
X144993220Y-84849651D02*
X144993220Y-83849651D01*
X144993220Y-83849651D02*
X144755125Y-83849651D01*
X144755125Y-83849651D02*
X144612268Y-83897270D01*
X144612268Y-83897270D02*
X144517030Y-83992508D01*
X144517030Y-83992508D02*
X144469411Y-84087746D01*
X144469411Y-84087746D02*
X144421792Y-84278222D01*
X144421792Y-84278222D02*
X144421792Y-84421079D01*
X144421792Y-84421079D02*
X144469411Y-84611555D01*
X144469411Y-84611555D02*
X144517030Y-84706793D01*
X144517030Y-84706793D02*
X144612268Y-84802032D01*
X144612268Y-84802032D02*
X144755125Y-84849651D01*
X144755125Y-84849651D02*
X144993220Y-84849651D01*
X143612268Y-84802032D02*
X143707506Y-84849651D01*
X143707506Y-84849651D02*
X143897982Y-84849651D01*
X143897982Y-84849651D02*
X143993220Y-84802032D01*
X143993220Y-84802032D02*
X144040839Y-84706793D01*
X144040839Y-84706793D02*
X144040839Y-84325841D01*
X144040839Y-84325841D02*
X143993220Y-84230603D01*
X143993220Y-84230603D02*
X143897982Y-84182984D01*
X143897982Y-84182984D02*
X143707506Y-84182984D01*
X143707506Y-84182984D02*
X143612268Y-84230603D01*
X143612268Y-84230603D02*
X143564649Y-84325841D01*
X143564649Y-84325841D02*
X143564649Y-84421079D01*
X143564649Y-84421079D02*
X144040839Y-84516317D01*
X143183696Y-84802032D02*
X143088458Y-84849651D01*
X143088458Y-84849651D02*
X142897982Y-84849651D01*
X142897982Y-84849651D02*
X142802744Y-84802032D01*
X142802744Y-84802032D02*
X142755125Y-84706793D01*
X142755125Y-84706793D02*
X142755125Y-84659174D01*
X142755125Y-84659174D02*
X142802744Y-84563936D01*
X142802744Y-84563936D02*
X142897982Y-84516317D01*
X142897982Y-84516317D02*
X143040839Y-84516317D01*
X143040839Y-84516317D02*
X143136077Y-84468698D01*
X143136077Y-84468698D02*
X143183696Y-84373460D01*
X143183696Y-84373460D02*
X143183696Y-84325841D01*
X143183696Y-84325841D02*
X143136077Y-84230603D01*
X143136077Y-84230603D02*
X143040839Y-84182984D01*
X143040839Y-84182984D02*
X142897982Y-84182984D01*
X142897982Y-84182984D02*
X142802744Y-84230603D01*
X142326553Y-84849651D02*
X142326553Y-84182984D01*
X142326553Y-83849651D02*
X142374172Y-83897270D01*
X142374172Y-83897270D02*
X142326553Y-83944889D01*
X142326553Y-83944889D02*
X142278934Y-83897270D01*
X142278934Y-83897270D02*
X142326553Y-83849651D01*
X142326553Y-83849651D02*
X142326553Y-83944889D01*
X141421792Y-84182984D02*
X141421792Y-84992508D01*
X141421792Y-84992508D02*
X141469411Y-85087746D01*
X141469411Y-85087746D02*
X141517030Y-85135365D01*
X141517030Y-85135365D02*
X141612268Y-85182984D01*
X141612268Y-85182984D02*
X141755125Y-85182984D01*
X141755125Y-85182984D02*
X141850363Y-85135365D01*
X141421792Y-84802032D02*
X141517030Y-84849651D01*
X141517030Y-84849651D02*
X141707506Y-84849651D01*
X141707506Y-84849651D02*
X141802744Y-84802032D01*
X141802744Y-84802032D02*
X141850363Y-84754412D01*
X141850363Y-84754412D02*
X141897982Y-84659174D01*
X141897982Y-84659174D02*
X141897982Y-84373460D01*
X141897982Y-84373460D02*
X141850363Y-84278222D01*
X141850363Y-84278222D02*
X141802744Y-84230603D01*
X141802744Y-84230603D02*
X141707506Y-84182984D01*
X141707506Y-84182984D02*
X141517030Y-84182984D01*
X141517030Y-84182984D02*
X141421792Y-84230603D01*
X140945601Y-84182984D02*
X140945601Y-84849651D01*
X140945601Y-84278222D02*
X140897982Y-84230603D01*
X140897982Y-84230603D02*
X140802744Y-84182984D01*
X140802744Y-84182984D02*
X140659887Y-84182984D01*
X140659887Y-84182984D02*
X140564649Y-84230603D01*
X140564649Y-84230603D02*
X140517030Y-84325841D01*
X140517030Y-84325841D02*
X140517030Y-84849651D01*
X139659887Y-84802032D02*
X139755125Y-84849651D01*
X139755125Y-84849651D02*
X139945601Y-84849651D01*
X139945601Y-84849651D02*
X140040839Y-84802032D01*
X140040839Y-84802032D02*
X140088458Y-84706793D01*
X140088458Y-84706793D02*
X140088458Y-84325841D01*
X140088458Y-84325841D02*
X140040839Y-84230603D01*
X140040839Y-84230603D02*
X139945601Y-84182984D01*
X139945601Y-84182984D02*
X139755125Y-84182984D01*
X139755125Y-84182984D02*
X139659887Y-84230603D01*
X139659887Y-84230603D02*
X139612268Y-84325841D01*
X139612268Y-84325841D02*
X139612268Y-84421079D01*
X139612268Y-84421079D02*
X140088458Y-84516317D01*
X138755125Y-84849651D02*
X138755125Y-83849651D01*
X138755125Y-84802032D02*
X138850363Y-84849651D01*
X138850363Y-84849651D02*
X139040839Y-84849651D01*
X139040839Y-84849651D02*
X139136077Y-84802032D01*
X139136077Y-84802032D02*
X139183696Y-84754412D01*
X139183696Y-84754412D02*
X139231315Y-84659174D01*
X139231315Y-84659174D02*
X139231315Y-84373460D01*
X139231315Y-84373460D02*
X139183696Y-84278222D01*
X139183696Y-84278222D02*
X139136077Y-84230603D01*
X139136077Y-84230603D02*
X139040839Y-84182984D01*
X139040839Y-84182984D02*
X138850363Y-84182984D01*
X138850363Y-84182984D02*
X138755125Y-84230603D01*
X137517029Y-84849651D02*
X137517029Y-83849651D01*
X137517029Y-84230603D02*
X137421791Y-84182984D01*
X137421791Y-84182984D02*
X137231315Y-84182984D01*
X137231315Y-84182984D02*
X137136077Y-84230603D01*
X137136077Y-84230603D02*
X137088458Y-84278222D01*
X137088458Y-84278222D02*
X137040839Y-84373460D01*
X137040839Y-84373460D02*
X137040839Y-84659174D01*
X137040839Y-84659174D02*
X137088458Y-84754412D01*
X137088458Y-84754412D02*
X137136077Y-84802032D01*
X137136077Y-84802032D02*
X137231315Y-84849651D01*
X137231315Y-84849651D02*
X137421791Y-84849651D01*
X137421791Y-84849651D02*
X137517029Y-84802032D01*
X136707505Y-84182984D02*
X136469410Y-84849651D01*
X136231315Y-84182984D02*
X136469410Y-84849651D01*
X136469410Y-84849651D02*
X136564648Y-85087746D01*
X136564648Y-85087746D02*
X136612267Y-85135365D01*
X136612267Y-85135365D02*
X136707505Y-85182984D01*
X134564648Y-83897270D02*
X134659886Y-83849651D01*
X134659886Y-83849651D02*
X134802743Y-83849651D01*
X134802743Y-83849651D02*
X134945600Y-83897270D01*
X134945600Y-83897270D02*
X135040838Y-83992508D01*
X135040838Y-83992508D02*
X135088457Y-84087746D01*
X135088457Y-84087746D02*
X135136076Y-84278222D01*
X135136076Y-84278222D02*
X135136076Y-84421079D01*
X135136076Y-84421079D02*
X135088457Y-84611555D01*
X135088457Y-84611555D02*
X135040838Y-84706793D01*
X135040838Y-84706793D02*
X134945600Y-84802032D01*
X134945600Y-84802032D02*
X134802743Y-84849651D01*
X134802743Y-84849651D02*
X134707505Y-84849651D01*
X134707505Y-84849651D02*
X134564648Y-84802032D01*
X134564648Y-84802032D02*
X134517029Y-84754412D01*
X134517029Y-84754412D02*
X134517029Y-84421079D01*
X134517029Y-84421079D02*
X134707505Y-84421079D01*
X133945600Y-84849651D02*
X134040838Y-84802032D01*
X134040838Y-84802032D02*
X134088457Y-84706793D01*
X134088457Y-84706793D02*
X134088457Y-83849651D01*
X133183695Y-84802032D02*
X133278933Y-84849651D01*
X133278933Y-84849651D02*
X133469409Y-84849651D01*
X133469409Y-84849651D02*
X133564647Y-84802032D01*
X133564647Y-84802032D02*
X133612266Y-84706793D01*
X133612266Y-84706793D02*
X133612266Y-84325841D01*
X133612266Y-84325841D02*
X133564647Y-84230603D01*
X133564647Y-84230603D02*
X133469409Y-84182984D01*
X133469409Y-84182984D02*
X133278933Y-84182984D01*
X133278933Y-84182984D02*
X133183695Y-84230603D01*
X133183695Y-84230603D02*
X133136076Y-84325841D01*
X133136076Y-84325841D02*
X133136076Y-84421079D01*
X133136076Y-84421079D02*
X133612266Y-84516317D01*
X132707504Y-84849651D02*
X132707504Y-83849651D01*
X132707504Y-84230603D02*
X132612266Y-84182984D01*
X132612266Y-84182984D02*
X132421790Y-84182984D01*
X132421790Y-84182984D02*
X132326552Y-84230603D01*
X132326552Y-84230603D02*
X132278933Y-84278222D01*
X132278933Y-84278222D02*
X132231314Y-84373460D01*
X132231314Y-84373460D02*
X132231314Y-84659174D01*
X132231314Y-84659174D02*
X132278933Y-84754412D01*
X132278933Y-84754412D02*
X132326552Y-84802032D01*
X132326552Y-84802032D02*
X132421790Y-84849651D01*
X132421790Y-84849651D02*
X132612266Y-84849651D01*
X132612266Y-84849651D02*
X132707504Y-84802032D01*
X130707504Y-84325841D02*
X130564647Y-84373460D01*
X130564647Y-84373460D02*
X130517028Y-84421079D01*
X130517028Y-84421079D02*
X130469409Y-84516317D01*
X130469409Y-84516317D02*
X130469409Y-84659174D01*
X130469409Y-84659174D02*
X130517028Y-84754412D01*
X130517028Y-84754412D02*
X130564647Y-84802032D01*
X130564647Y-84802032D02*
X130659885Y-84849651D01*
X130659885Y-84849651D02*
X131040837Y-84849651D01*
X131040837Y-84849651D02*
X131040837Y-83849651D01*
X131040837Y-83849651D02*
X130707504Y-83849651D01*
X130707504Y-83849651D02*
X130612266Y-83897270D01*
X130612266Y-83897270D02*
X130564647Y-83944889D01*
X130564647Y-83944889D02*
X130517028Y-84040127D01*
X130517028Y-84040127D02*
X130517028Y-84135365D01*
X130517028Y-84135365D02*
X130564647Y-84230603D01*
X130564647Y-84230603D02*
X130612266Y-84278222D01*
X130612266Y-84278222D02*
X130707504Y-84325841D01*
X130707504Y-84325841D02*
X131040837Y-84325841D01*
X130136075Y-84182984D02*
X129897980Y-84849651D01*
X129659885Y-84182984D02*
X129897980Y-84849651D01*
X129897980Y-84849651D02*
X129993218Y-85087746D01*
X129993218Y-85087746D02*
X130040837Y-85135365D01*
X130040837Y-85135365D02*
X130136075Y-85182984D01*
X129374170Y-84182984D02*
X129136075Y-84849651D01*
X129136075Y-84849651D02*
X128897980Y-84182984D01*
X128088456Y-84849651D02*
X128088456Y-84325841D01*
X128088456Y-84325841D02*
X128136075Y-84230603D01*
X128136075Y-84230603D02*
X128231313Y-84182984D01*
X128231313Y-84182984D02*
X128421789Y-84182984D01*
X128421789Y-84182984D02*
X128517027Y-84230603D01*
X128088456Y-84802032D02*
X128183694Y-84849651D01*
X128183694Y-84849651D02*
X128421789Y-84849651D01*
X128421789Y-84849651D02*
X128517027Y-84802032D01*
X128517027Y-84802032D02*
X128564646Y-84706793D01*
X128564646Y-84706793D02*
X128564646Y-84611555D01*
X128564646Y-84611555D02*
X128517027Y-84516317D01*
X128517027Y-84516317D02*
X128421789Y-84468698D01*
X128421789Y-84468698D02*
X128183694Y-84468698D01*
X128183694Y-84468698D02*
X128088456Y-84421079D01*
X127469408Y-84849651D02*
X127564646Y-84802032D01*
X127564646Y-84802032D02*
X127612265Y-84706793D01*
X127612265Y-84706793D02*
X127612265Y-83849651D01*
X127231312Y-84182984D02*
X126850360Y-84182984D01*
X127088455Y-83849651D02*
X127088455Y-84706793D01*
X127088455Y-84706793D02*
X127040836Y-84802032D01*
X127040836Y-84802032D02*
X126945598Y-84849651D01*
X126945598Y-84849651D02*
X126850360Y-84849651D01*
X126564645Y-84802032D02*
X126469407Y-84849651D01*
X126469407Y-84849651D02*
X126278931Y-84849651D01*
X126278931Y-84849651D02*
X126183693Y-84802032D01*
X126183693Y-84802032D02*
X126136074Y-84706793D01*
X126136074Y-84706793D02*
X126136074Y-84659174D01*
X126136074Y-84659174D02*
X126183693Y-84563936D01*
X126183693Y-84563936D02*
X126278931Y-84516317D01*
X126278931Y-84516317D02*
X126421788Y-84516317D01*
X126421788Y-84516317D02*
X126517026Y-84468698D01*
X126517026Y-84468698D02*
X126564645Y-84373460D01*
X126564645Y-84373460D02*
X126564645Y-84325841D01*
X126564645Y-84325841D02*
X126517026Y-84230603D01*
X126517026Y-84230603D02*
X126421788Y-84182984D01*
X126421788Y-84182984D02*
X126278931Y-84182984D01*
X126278931Y-84182984D02*
X126183693Y-84230603D01*
X125326550Y-84802032D02*
X125421788Y-84849651D01*
X125421788Y-84849651D02*
X125612264Y-84849651D01*
X125612264Y-84849651D02*
X125707502Y-84802032D01*
X125707502Y-84802032D02*
X125755121Y-84706793D01*
X125755121Y-84706793D02*
X125755121Y-84325841D01*
X125755121Y-84325841D02*
X125707502Y-84230603D01*
X125707502Y-84230603D02*
X125612264Y-84182984D01*
X125612264Y-84182984D02*
X125421788Y-84182984D01*
X125421788Y-84182984D02*
X125326550Y-84230603D01*
X125326550Y-84230603D02*
X125278931Y-84325841D01*
X125278931Y-84325841D02*
X125278931Y-84421079D01*
X125278931Y-84421079D02*
X125755121Y-84516317D01*
X124945597Y-84182984D02*
X124707502Y-84849651D01*
X124707502Y-84849651D02*
X124469407Y-84182984D01*
D11*
X122630000Y-78230000D02*
X146080000Y-78230000D01*
X146080000Y-85830000D01*
X122630000Y-85830000D01*
X122630000Y-78230000D01*
D12*
%TO.C,J5*%
X141237500Y-115570000D03*
X141237500Y-118070000D03*
X141237500Y-120570000D03*
D13*
X141237500Y-123070000D03*
%TD*%
D14*
%TO.C,H1*%
X117120000Y-102920000D03*
%TD*%
D15*
%TO.C,J1*%
X129800000Y-103400000D03*
X132300000Y-103400000D03*
X129800000Y-105900000D03*
X127300000Y-103400000D03*
X129800000Y-100900000D03*
%TD*%
D16*
%TO.C,REF\u002A\u002A*%
X88500000Y-121400000D03*
%TD*%
%TO.C,REF\u002A\u002A*%
X145000000Y-103400000D03*
%TD*%
D17*
%TO.C,J2*%
X87925000Y-113560000D03*
D18*
X87925000Y-108480000D03*
X87925000Y-103400000D03*
X87925000Y-98320000D03*
X87925000Y-93240000D03*
%TD*%
D17*
%TO.C,J4*%
X100000000Y-128000000D03*
D18*
X94920000Y-128000000D03*
X89840000Y-128000000D03*
%TD*%
D16*
%TO.C,REF\u002A\u002A*%
X88500000Y-85400000D03*
%TD*%
D17*
%TO.C,J3*%
X124300000Y-128000000D03*
D18*
X129380000Y-128000000D03*
X134460000Y-128000000D03*
%TD*%
M02*
