%TF.GenerationSoftware,KiCad,Pcbnew,8.0.1*%
%TF.CreationDate,2025-05-19T10:21:45+02:00*%
%TF.ProjectId,stm32f103 board,73746d33-3266-4313-9033-20626f617264,rev?*%
%TF.SameCoordinates,Original*%
%TF.FileFunction,Soldermask,Top*%
%TF.FilePolarity,Negative*%
%FSLAX46Y46*%
G04 Gerber Fmt 4.6, Leading zero omitted, Abs format (unit mm)*
G04 Created by KiCad (PCBNEW 8.0.1) date 2025-05-19 10:21:45*
%MOMM*%
%LPD*%
G01*
G04 APERTURE LIST*
G04 Aperture macros list*
%AMRoundRect*
0 Rectangle with rounded corners*
0 $1 Rounding radius*
0 $2 $3 $4 $5 $6 $7 $8 $9 X,Y pos of 4 corners*
0 Add a 4 corners polygon primitive as box body*
4,1,4,$2,$3,$4,$5,$6,$7,$8,$9,$2,$3,0*
0 Add four circle primitives for the rounded corners*
1,1,$1+$1,$2,$3*
1,1,$1+$1,$4,$5*
1,1,$1+$1,$6,$7*
1,1,$1+$1,$8,$9*
0 Add four rect primitives between the rounded corners*
20,1,$1+$1,$2,$3,$4,$5,0*
20,1,$1+$1,$4,$5,$6,$7,0*
20,1,$1+$1,$6,$7,$8,$9,0*
20,1,$1+$1,$8,$9,$2,$3,0*%
G04 Aperture macros list end*
%ADD10O,1.950000X1.700000*%
%ADD11RoundRect,0.250000X0.725000X-0.600000X0.725000X0.600000X-0.725000X0.600000X-0.725000X-0.600000X0*%
%ADD12R,1.700000X1.700000*%
%ADD13RoundRect,0.250000X-0.312500X-0.625000X0.312500X-0.625000X0.312500X0.625000X-0.312500X0.625000X0*%
%ADD14RoundRect,0.250000X0.650000X-0.325000X0.650000X0.325000X-0.650000X0.325000X-0.650000X-0.325000X0*%
%ADD15C,2.000000*%
%ADD16RoundRect,0.250000X0.325000X0.650000X-0.325000X0.650000X-0.325000X-0.650000X0.325000X-0.650000X0*%
%ADD17RoundRect,0.250000X-0.650000X0.325000X-0.650000X-0.325000X0.650000X-0.325000X0.650000X0.325000X0*%
%ADD18C,3.200000*%
%ADD19RoundRect,0.250000X0.900000X-1.000000X0.900000X1.000000X-0.900000X1.000000X-0.900000X-1.000000X0*%
%ADD20RoundRect,0.250001X0.799999X-2.049999X0.799999X2.049999X-0.799999X2.049999X-0.799999X-2.049999X0*%
%ADD21RoundRect,0.250001X-2.049999X-0.799999X2.049999X-0.799999X2.049999X0.799999X-2.049999X0.799999X0*%
%ADD22RoundRect,0.525000X0.525000X0.975000X-0.525000X0.975000X-0.525000X-0.975000X0.525000X-0.975000X0*%
%ADD23RoundRect,0.075000X-0.700000X-0.075000X0.700000X-0.075000X0.700000X0.075000X-0.700000X0.075000X0*%
%ADD24RoundRect,0.075000X-0.075000X-0.700000X0.075000X-0.700000X0.075000X0.700000X-0.075000X0.700000X0*%
%ADD25RoundRect,0.250000X-0.625000X0.312500X-0.625000X-0.312500X0.625000X-0.312500X0.625000X0.312500X0*%
%ADD26RoundRect,0.250000X-0.325000X-0.650000X0.325000X-0.650000X0.325000X0.650000X-0.325000X0.650000X0*%
%ADD27RoundRect,0.250000X0.625000X-0.375000X0.625000X0.375000X-0.625000X0.375000X-0.625000X-0.375000X0*%
%ADD28RoundRect,0.250000X0.625000X-0.312500X0.625000X0.312500X-0.625000X0.312500X-0.625000X-0.312500X0*%
%ADD29R,2.000000X4.500000*%
%ADD30RoundRect,0.250000X0.700000X-0.275000X0.700000X0.275000X-0.700000X0.275000X-0.700000X-0.275000X0*%
%ADD31R,2.800000X2.800000*%
%ADD32C,2.800000*%
%ADD33RoundRect,0.150000X0.150000X-0.825000X0.150000X0.825000X-0.150000X0.825000X-0.150000X-0.825000X0*%
G04 APERTURE END LIST*
D10*
%TO.C,J5*%
X141237500Y-115570000D03*
X141237500Y-118070000D03*
X141237500Y-120570000D03*
D11*
X141237500Y-123070000D03*
%TD*%
D12*
%TO.C,H1*%
X117120000Y-102920000D03*
%TD*%
D13*
%TO.C,R5*%
X116775000Y-106280000D03*
X119700000Y-106280000D03*
%TD*%
D14*
%TO.C,C17*%
X109140000Y-107950000D03*
X109140000Y-105000000D03*
%TD*%
D15*
%TO.C,J1*%
X129800000Y-103400000D03*
X132300000Y-103400000D03*
X129800000Y-105900000D03*
X127300000Y-103400000D03*
X129800000Y-100900000D03*
%TD*%
D16*
%TO.C,C16*%
X128675000Y-117100000D03*
X125725000Y-117100000D03*
%TD*%
D14*
%TO.C,C14*%
X103670000Y-109950000D03*
X103670000Y-107000000D03*
%TD*%
%TO.C,C6*%
X117200000Y-97075000D03*
X117200000Y-100025000D03*
%TD*%
D17*
%TO.C,C9*%
X122850000Y-105675000D03*
X122850000Y-108625000D03*
%TD*%
D18*
%TO.C,REF\u002A\u002A*%
X88500000Y-121400000D03*
%TD*%
D19*
%TO.C,D3*%
X116800000Y-93725000D03*
X116800000Y-89425000D03*
%TD*%
D20*
%TO.C,C1*%
X135400000Y-89700000D03*
X135400000Y-98500000D03*
%TD*%
D18*
%TO.C,REF\u002A\u002A*%
X145000000Y-103400000D03*
%TD*%
D21*
%TO.C,C4*%
X104150000Y-82250000D03*
X112950000Y-82250000D03*
%TD*%
D22*
%TO.C,L1*%
X111850000Y-96950000D03*
X101750000Y-96950000D03*
%TD*%
D14*
%TO.C,C8*%
X109275000Y-124375000D03*
X109275000Y-121425000D03*
%TD*%
D17*
%TO.C,C15*%
X103500000Y-113500000D03*
X103500000Y-116450000D03*
%TD*%
D23*
%TO.C,U1*%
X109275000Y-110825000D03*
X109275000Y-111325000D03*
X109275000Y-111825000D03*
X109275000Y-112325000D03*
X109275000Y-112825000D03*
X109275000Y-113325000D03*
X109275000Y-113825000D03*
X109275000Y-114325000D03*
X109275000Y-114825000D03*
X109275000Y-115325000D03*
X109275000Y-115825000D03*
X109275000Y-116325000D03*
X109275000Y-116825000D03*
X109275000Y-117325000D03*
X109275000Y-117825000D03*
X109275000Y-118325000D03*
D24*
X111200000Y-120250000D03*
X111700000Y-120250000D03*
X112200000Y-120250000D03*
X112700000Y-120250000D03*
X113200000Y-120250000D03*
X113700000Y-120250000D03*
X114200000Y-120250000D03*
X114700000Y-120250000D03*
X115200000Y-120250000D03*
X115700000Y-120250000D03*
X116200000Y-120250000D03*
X116700000Y-120250000D03*
X117200000Y-120250000D03*
X117700000Y-120250000D03*
X118200000Y-120250000D03*
X118700000Y-120250000D03*
D23*
X120625000Y-118325000D03*
X120625000Y-117825000D03*
X120625000Y-117325000D03*
X120625000Y-116825000D03*
X120625000Y-116325000D03*
X120625000Y-115825000D03*
X120625000Y-115325000D03*
X120625000Y-114825000D03*
X120625000Y-114325000D03*
X120625000Y-113825000D03*
X120625000Y-113325000D03*
X120625000Y-112825000D03*
X120625000Y-112325000D03*
X120625000Y-111825000D03*
X120625000Y-111325000D03*
X120625000Y-110825000D03*
D24*
X118700000Y-108900000D03*
X118200000Y-108900000D03*
X117700000Y-108900000D03*
X117200000Y-108900000D03*
X116700000Y-108900000D03*
X116200000Y-108900000D03*
X115700000Y-108900000D03*
X115200000Y-108900000D03*
X114700000Y-108900000D03*
X114200000Y-108900000D03*
X113700000Y-108900000D03*
X113200000Y-108900000D03*
X112700000Y-108900000D03*
X112200000Y-108900000D03*
X111700000Y-108900000D03*
X111200000Y-108900000D03*
%TD*%
D14*
%TO.C,C13*%
X106500000Y-118450000D03*
X106500000Y-115500000D03*
%TD*%
D25*
%TO.C,R3*%
X120250000Y-101182500D03*
X120250000Y-98257500D03*
%TD*%
D26*
%TO.C,C5*%
X110475000Y-89200000D03*
X113425000Y-89200000D03*
%TD*%
D14*
%TO.C,C7*%
X100100000Y-124600000D03*
X100100000Y-121650000D03*
%TD*%
D27*
%TO.C,D2*%
X98550000Y-85050000D03*
X98550000Y-82250000D03*
%TD*%
D28*
%TO.C,R4*%
X95550000Y-85175000D03*
X95550000Y-82250000D03*
%TD*%
D26*
%TO.C,C11*%
X111875000Y-106250000D03*
X114825000Y-106250000D03*
%TD*%
D29*
%TO.C,Y1*%
X99500000Y-109000000D03*
X99500000Y-117500000D03*
%TD*%
D17*
%TO.C,C12*%
X106500000Y-121450000D03*
X106500000Y-124400000D03*
%TD*%
D30*
%TO.C,L2*%
X103300000Y-124600000D03*
X103300000Y-121450000D03*
%TD*%
D31*
%TO.C,J2*%
X87925000Y-113560000D03*
D32*
X87925000Y-108480000D03*
X87925000Y-103400000D03*
X87925000Y-98320000D03*
X87925000Y-93240000D03*
%TD*%
D28*
%TO.C,R2*%
X114540000Y-97057500D03*
X114540000Y-99982500D03*
%TD*%
D17*
%TO.C,C10*%
X121500000Y-120000000D03*
X121500000Y-122950000D03*
%TD*%
D31*
%TO.C,J4*%
X100000000Y-128000000D03*
D32*
X94920000Y-128000000D03*
X89840000Y-128000000D03*
%TD*%
D17*
%TO.C,C2*%
X135400000Y-103400000D03*
X135400000Y-106350000D03*
%TD*%
D14*
%TO.C,C3*%
X128200000Y-98500000D03*
X128200000Y-95550000D03*
%TD*%
D18*
%TO.C,REF\u002A\u002A*%
X88500000Y-85400000D03*
%TD*%
D33*
%TO.C,U3*%
X125460000Y-114450000D03*
X126730000Y-114450000D03*
X128000000Y-114450000D03*
X129270000Y-114450000D03*
X129270000Y-109500000D03*
X128000000Y-109500000D03*
X126730000Y-109500000D03*
X125460000Y-109500000D03*
%TD*%
D31*
%TO.C,J3*%
X124300000Y-128000000D03*
D32*
X129380000Y-128000000D03*
X134460000Y-128000000D03*
%TD*%
D28*
%TO.C,R1*%
X128200000Y-92625000D03*
X128200000Y-89700000D03*
%TD*%
D33*
%TO.C,U2*%
X120890000Y-94650000D03*
X122160000Y-94650000D03*
X123430000Y-94650000D03*
X124700000Y-94650000D03*
X124700000Y-89700000D03*
X123430000Y-89700000D03*
X122160000Y-89700000D03*
X120890000Y-89700000D03*
%TD*%
M02*
